<svg width="50" height="50" viewBox="0 0 50 50" fill="none" xmlns="http://www.w3.org/2000/svg">
<g clip-path="url(#clip0_4_905)">
<path d="M10.8398 0C12.0273 0.424479 13.2122 0.856771 14.4037 1.27083C16.168 1.88411 17.9388 2.47526 19.6992 3.10026C20.0489 3.22733 20.3749 3.41171 20.6641 3.64583C22.5 5.1263 24.3203 6.6263 26.1471 8.11849C26.2591 8.20964 26.3789 8.29037 26.5078 8.37891L27.0729 7.67578C27.5625 7.06901 27.8854 7.01693 28.5208 7.46224C31.25 9.37196 33.9783 11.2878 36.7057 13.2096C39.0208 14.8364 41.3359 16.4631 43.651 18.0898C46.1979 19.8828 46.694 22.6406 44.7904 25.1042C44.1224 25.9701 44.0521 26.6667 44.4141 27.6745C46.0833 32.3216 47.6693 37 49.2773 41.6667C49.3138 41.7747 49.3555 41.8802 49.388 41.9896C49.5729 42.5925 49.3945 42.9622 48.7891 43.1615C47.3997 43.6094 46.0065 44.043 44.5573 44.5013C44.9766 45.7591 45.3867 46.9844 45.8125 48.2604L48.2109 47.5755C47.9779 46.8659 47.7617 46.1914 47.5352 45.5208C47.3945 45.1055 47.5078 44.7773 47.8685 44.5521C48.3086 44.2773 48.8242 44.5 49.0195 45.056C49.3164 45.8984 49.5924 46.7487 49.8802 47.5938C49.9156 47.6826 49.9556 47.7695 50 47.8542V48.3424C49.7044 48.5417 49.4336 48.8151 49.1068 48.9258C47.9505 49.3164 46.7747 49.6484 45.6055 50.0026H45.0195C44.8307 49.7135 44.5755 49.4466 44.4622 49.1302C43.9792 47.7695 43.5365 46.3958 43.0651 44.9818C42.7852 45.0651 42.5443 45.138 42.2969 45.2083C41.6771 45.388 41.3398 45.2279 41.1159 44.6263C40.776 43.7148 40.4375 42.8034 40.1198 41.8763C40.0195 41.5846 39.8828 41.4766 39.5612 41.5013C36.6732 41.7266 33.7852 41.9349 30.8971 42.1523C29.9388 42.2227 28.9779 42.3164 28.0469 41.9779C26.401 41.3737 25.2904 40.2513 24.8698 38.5417C24.0677 35.2422 23.3073 31.9323 22.5404 28.6237C22.2396 27.3216 22.5143 26.1419 23.3216 25.0781C24.4197 23.625 25.5152 22.1693 26.6081 20.7109C26.6953 20.5951 26.7773 20.474 26.8815 20.3268L24.4219 16.8724C24.3086 16.7135 24.1927 16.556 24.082 16.3958C23.75 15.9089 23.7826 15.4753 24.1693 15.1914C24.556 14.9076 24.9961 15.0104 25.3411 15.474C25.5456 15.7474 25.7396 16.0286 25.9375 16.3073C26.7517 17.4453 27.5647 18.5838 28.3763 19.7227C28.7357 20.2279 28.7305 20.4948 28.3516 20.9974C27.1406 22.6107 25.9414 24.2331 24.7057 25.8268C24.0677 26.6471 23.8737 27.5117 24.1159 28.5221C24.8802 31.7135 25.6133 34.9128 26.3698 38.1081C26.5408 38.862 26.9746 39.5304 27.5935 39.9937C28.2123 40.457 28.9758 40.6849 29.7474 40.6367C31.4401 40.556 33.1237 40.4102 34.8112 40.2865C36.6615 40.1563 38.5104 40.0078 40.3607 39.8711C40.8607 39.8333 41.1419 40.1016 41.2995 40.5521C41.6484 41.53 42.0091 42.5052 42.3867 43.5352L47.6862 41.8724C47.3672 40.9362 47.0625 40.0339 46.7513 39.138C45.3346 35.0378 43.9258 30.9349 42.4883 26.8438C42.2826 26.2565 42.3203 25.793 42.7318 25.3203C43.0729 24.9297 43.3542 24.4857 43.6589 24.0638C44.8307 22.444 44.526 20.6237 42.8867 19.4714C38.9362 16.6936 34.9835 13.9158 31.0287 11.138L28.013 9.01432L25.3021 12.3893C24.8242 12.9857 24.3516 13.5872 23.8698 14.1771C23.5208 14.599 23.0768 14.6771 22.7188 14.4049C22.3607 14.1328 22.3138 13.6523 22.6563 13.2018C22.8815 12.9063 23.1172 12.6185 23.3763 12.2904L22.7865 11.7617C21.2344 10.3737 19.6862 8.98438 18.1224 7.60287C17.894 7.4023 17.6286 7.24837 17.3411 7.14974C14.7135 6.28776 12.0833 5.44401 9.45573 4.59375C8.59506 4.3138 8.44922 4.01172 8.77214 3.18229C9.07683 2.39453 9.36589 1.60026 9.70183 0.825521C9.83073 0.520833 10.0664 0.273438 10.2539 0H10.8398ZM10.4167 3.25521C10.6211 3.32552 10.7721 3.38542 10.9245 3.43099C13.3034 4.20182 15.6836 4.96354 18.056 5.7526C18.4065 5.87032 18.7306 6.05519 19.0104 6.29688C20.6836 7.76953 22.3359 9.26432 23.9961 10.75C24.1107 10.8529 24.237 10.9427 24.3711 11.0495L25.5208 9.625C25.3659 9.49479 25.2318 9.37761 25.0951 9.26563C23.3776 7.86589 21.6732 6.45573 19.9466 5.07813C19.6044 4.8102 19.2215 4.59876 18.8125 4.45182C17.5013 3.97266 16.1758 3.54036 14.8555 3.08073L11.0104 1.76563L10.4167 3.25521Z" fill="#007684"/>
<path d="M0 22.7539C0.41276 21.4258 0.713542 20.0508 1.25911 18.7786C2.64323 15.5521 4.71615 12.7604 6.97005 10.0872C7.27344 9.72785 7.57943 9.36717 7.91016 9.03124C8.26302 8.67186 8.74609 8.65233 9.08203 9.03124C12.2253 12.5794 15.0872 16.3138 16.5521 20.9127C17.3906 23.5482 17.1758 26.0794 15.4336 28.3112C13.9049 30.2643 11.8151 31.306 9.35287 31.5156C6.77083 31.7344 4.45964 31.0026 2.4974 29.2812C1.17188 28.125 0.402344 26.6523 0.0950521 24.9284C0.0701557 24.8201 0.0384077 24.7136 0 24.6094L0 22.7539ZM8.5013 10.7109C6.58594 12.9492 4.8724 15.2344 3.48958 17.7565C2.76953 19.0716 2.15625 20.4323 1.79688 21.8945C0.994792 25.1706 2.39453 28.0143 5.46615 29.362C6.56042 29.8348 7.74997 30.0457 8.94011 29.9778C12.6888 29.8047 16.5052 26.6784 15.1706 21.7747C14.694 20.0169 13.9128 18.401 12.9896 16.845C11.7018 14.668 10.1849 12.664 8.5013 10.7109Z" fill="#007684"/>
<path d="M45.6055 50C46.7773 49.6458 47.9492 49.3125 49.1068 48.9232C49.4336 48.8125 49.7044 48.5326 50 48.3398V50H45.6055Z" fill="white"/>
<path d="M32.4102 26.1419C32.8425 27.4935 33.237 28.7813 33.6693 30.056C33.7603 30.29 33.8006 30.5406 33.7876 30.7913C33.7746 31.042 33.7085 31.2871 33.5938 31.5104C33.2487 32.2083 32.9622 32.9362 32.6419 33.6471C32.405 34.1745 31.9974 34.3672 31.5586 34.1745C31.1198 33.9818 31.0026 33.5547 31.2214 33.0156L31.2969 32.8359C31.6016 32.1198 32.1107 31.4141 32.1511 30.6836C32.1914 29.9531 31.7604 29.2292 31.5261 28.5013C31.2917 27.7734 31.0638 27.0794 30.849 26.3646C30.7708 26.1042 30.6497 26.0052 30.362 25.9388C29.5234 25.7474 28.9922 26.026 28.4089 26.668C27.6537 27.4896 27.418 28.2305 27.7266 29.3333C28.3425 31.5378 28.7839 33.7904 29.3021 36.0208C29.5208 36.9596 30.1211 37.375 31.082 37.2839C32.8633 37.1155 34.645 36.9514 36.4271 36.7917C37.0156 36.7383 37.3789 36.9883 37.4245 37.4635C37.4701 37.9388 37.1849 38.2813 36.5964 38.3385C34.6862 38.5221 32.7761 38.7201 30.8672 38.849C30.185 38.8927 29.5091 38.6948 28.9582 38.29C28.4073 37.8853 28.0164 37.2995 27.8542 36.6354C27.1797 33.8229 26.5521 31.0013 25.9141 28.1797C25.8575 27.9404 25.861 27.6909 25.9241 27.4533C25.9873 27.2157 26.1082 26.9973 26.2761 26.8177C26.9076 26.0938 27.5104 25.3438 28.1784 24.6563C28.4124 24.4228 28.7281 24.2897 29.0586 24.2852C30.9896 24.4232 32.9141 24.6315 34.8425 24.7891C35.349 24.8294 35.6393 25.0417 35.8112 25.5169C37.1845 29.3034 38.5642 33.0881 39.9505 36.8711C40.1589 37.444 40.0052 37.8854 39.5599 38.0547C39.1146 38.224 38.7044 37.9844 38.4935 37.4102C37.1966 33.8711 35.905 30.3307 34.6185 26.7891C34.4883 26.4284 34.3307 26.2682 33.9362 26.2682C33.4336 26.2591 32.9505 26.1875 32.4102 26.1419Z" fill="#007684"/>
<path d="M10.4167 3.25521L11.0052 1.76953L14.8503 3.08073C16.1706 3.53385 17.4961 3.97266 18.8073 4.45182C19.2181 4.59826 19.6028 4.80972 19.9466 5.07812C21.6732 6.45964 23.3776 7.86979 25.0885 9.26953C25.2187 9.38151 25.3594 9.4974 25.5143 9.62891L24.375 11.0495C24.2448 10.9427 24.1146 10.8529 24 10.75C22.3398 9.26432 20.6875 7.76953 19.0104 6.29688C18.7313 6.05394 18.4076 5.86774 18.0573 5.7487C15.6849 4.95964 13.3047 4.19792 10.9258 3.42708C10.7773 3.3776 10.6263 3.32161 10.4167 3.25521Z" fill="white"/>
<path d="M8.50131 10.7109C10.1849 12.6641 11.7018 14.668 12.9909 16.8398C13.9141 18.3958 14.6953 20.0117 15.1719 21.7695C16.5065 26.6784 12.6901 29.8047 8.94142 29.9727C7.75212 30.0419 6.56306 29.8328 5.46876 29.362C2.39584 28.0169 0.996103 25.1706 1.79819 21.8945C2.15626 20.4323 2.76954 19.0716 3.4909 17.7565C4.87241 15.2344 6.58595 12.9492 8.50131 10.7109ZM14.6511 23.6823C14.6521 23.5422 14.6443 23.4021 14.6276 23.263C14.5833 22.9753 14.5247 22.6875 14.4622 22.4023C14.332 21.8268 13.9909 21.5456 13.5326 21.6354C13.0391 21.7318 12.8516 22.1315 12.9336 22.7279C13.0078 23.2695 13.1016 23.8359 13.0208 24.3659C12.8021 25.8073 11.8737 26.6771 10.5469 27.1732C10.0456 27.3607 9.83595 27.776 9.98829 28.207C10.1406 28.638 10.5768 28.8021 11.0781 28.638C12.1263 28.3042 13.0394 27.6423 13.6827 26.75C14.326 25.8577 14.6655 24.7822 14.6511 23.6823Z" fill="white"/>
<path d="M14.6511 23.6823C14.6653 24.7826 14.3255 25.8583 13.6817 26.7506C13.0378 27.643 12.1242 28.3046 11.0755 28.638C10.5742 28.8021 10.1354 28.6289 9.98569 28.207C9.83595 27.7852 10.043 27.3607 10.5443 27.1732C11.8737 26.6771 12.8021 25.8073 13.0182 24.3659C13.099 23.8359 13.0052 23.2695 12.931 22.7279C12.849 22.1315 13.0365 21.7318 13.53 21.6354C13.9883 21.5456 14.3333 21.8268 14.4596 22.4023C14.5221 22.6875 14.5807 22.9753 14.625 23.263C14.6426 23.4021 14.6513 23.5421 14.6511 23.6823Z" fill="#007684"/>
</g>
<defs>
<clipPath id="clip0_4_905">
<rect width="50" height="50" fill="white"/>
</clipPath>
</defs>
</svg>
