<svg width="150" height="80" viewBox="0 0 150 80" fill="none" xmlns="http://www.w3.org/2000/svg">
<g clip-path="url(#clip0_3_616)">
<path d="M-1.81533e-05 39.4388C-0.171436 35.3405 0.671502 31.2632 2.45401 27.5687C4.76473 22.7955 6.75751 17.8701 8.91149 13.0209C11.5402 7.09254 16.1213 4.07015 22.5698 3.51492C32.1531 2.68657 41.7408 1.83582 51.2837 0.649252C63.7822 -0.895524 75.9135 0.138804 87.3238 5.66866C98.3998 11.0418 109.701 15.8537 121.228 20.1045C125.881 21.8149 130.708 23.0687 135.491 24.394C138.876 25.3298 141.671 27.1075 143.623 29.9642C149.113 37.9881 150.846 46.9791 149.655 56.4806C149.033 61.406 145.804 64.809 141.272 66.8463C139.127 67.8134 138.643 67.5045 138.415 65.1716C137.752 58.3567 133.328 53.0821 127.255 51.9269C118.698 50.2657 110.986 56.4537 110.467 65.4C110.315 68.0149 110.315 68.0239 107.628 68.0284C84.6399 68.0552 61.6417 68.0791 38.633 68.1C36.4163 68.1 36.3088 67.9881 36.1789 65.7313C35.7759 58.7328 30.1469 52.7731 23.4744 52.2985C16.5691 51.7746 10.3221 56.7537 8.95628 63.8597C8.76819 64.8448 8.80402 65.8746 8.57115 66.8418C8.51382 67.1214 8.40157 67.3869 8.24092 67.6229C8.08026 67.8588 7.87439 68.0606 7.63522 68.2164C7.30832 68.3597 6.51569 67.997 6.247 67.6298C5.57936 66.7372 5.02716 65.7639 4.60352 64.7328C2.31966 58.9702 1.29864 52.9119 0.573185 46.7955C0.29554 44.3552 0.19702 41.8925 -1.81533e-05 39.4388ZM25.6911 50.0149C25.7074 49.7525 25.7074 49.4893 25.6911 49.2269C24.5238 41.4328 23.352 33.6388 22.1758 25.8448C21.8309 23.5209 21.2801 21.2104 21.1995 18.8776C20.9891 13.7373 25.0507 9.5194 30.832 8.92388C39.6226 8.02836 48.4446 7.40597 57.2531 6.46119C65.1033 5.6194 72.7251 6.36269 79.8991 9.64478C91.8423 15.0985 103.66 20.8388 115.527 26.4448C115.883 26.6067 116.205 26.8346 116.477 27.1164C116.73 27.3933 116.908 27.7309 116.993 28.0967C117.078 28.4625 117.067 28.8441 116.961 29.2044C116.855 29.5647 116.658 29.8916 116.389 30.1533C116.12 30.4151 115.787 30.6029 115.424 30.6985C114.873 30.7915 114.312 30.8171 113.754 30.7746L67.2528 30.403C66.6572 30.403 66.0616 30.403 65.269 30.403C66.1064 40.5627 66.9214 50.5164 67.7409 60.5328C68.1887 60.5731 68.5201 60.6224 68.8425 60.6224C81.7709 60.6224 94.6994 60.6224 107.628 60.6627C108.823 60.6627 109.074 60.0358 109.446 59.1806C110.802 55.9974 113.129 53.3239 116.095 51.5412C119.061 49.7586 122.514 48.9581 125.961 49.2537C132.562 49.7328 138.5 54.8463 140.291 61.5851C140.515 62.4313 140.699 63.2866 140.905 64.1552C142.57 63.4337 144.028 62.3066 145.146 60.8768C146.264 59.4471 147.006 57.7602 147.304 55.9701C148.2 49.8045 147.134 43.8313 145.065 38.0149C144.917 37.6119 144.219 37.3075 143.722 37.1194C140.882 36.1478 137.9 35.494 135.213 34.2269C133.763 33.5929 132.506 32.586 131.572 31.3087C130.637 30.0314 130.058 28.5292 129.893 26.9552C129.763 25.8627 129.333 25.4597 128.366 25.1642C114.643 20.7295 101.268 15.2801 88.3538 8.86119C78.9497 4.2 69.0978 1.91642 58.6906 2.59254C47.9744 3.25522 37.294 4.42836 26.6002 5.41791C24.3611 5.62836 22.0907 5.97313 19.8113 6.2597C20.6801 10.0522 20.5681 10.5403 18.2753 13.594C17.3304 14.8433 16.4213 16.1194 15.4451 17.3463C14.9814 17.8682 14.6646 18.5038 14.5269 19.1882C14.3892 19.8725 14.4356 20.5812 14.6614 21.2418C15.5257 24.1209 14.3301 26.5836 11.576 27.8284C9.94595 28.5672 8.34725 29.4761 6.65003 29.8836C3.44816 30.6493 2.6197 32.8254 2.59283 35.7045C2.59283 36.0403 2.53461 36.3806 2.56148 36.7119C2.96899 41.7761 3.20186 46.8627 3.86014 51.8955C4.32139 55.5224 5.37376 59.1045 6.144 62.7448C9.6683 53.6731 15.6466 48.8955 25.6911 50.0149ZM24.1372 17.3731L23.8013 17.3955C23.7393 18.4486 23.7468 19.5046 23.8237 20.5567C24.173 23.1537 24.6611 25.7373 25.0463 28.3298C26.1076 35.4045 27.1331 42.4791 28.181 49.5448C28.266 50.1179 28.4273 50.8522 28.8258 51.1701C32.0949 53.7716 35.458 56.2478 38.727 58.8493C40.1529 60.0311 41.9533 60.6661 43.8052 60.6403C50.406 60.609 57.0023 60.6403 63.6031 60.6403C64.0912 60.6403 64.5793 60.5866 65.2197 60.5507C64.4092 50.4537 63.5897 40.4642 62.7657 30.4478C62.1432 30.4209 61.7581 30.3896 61.3685 30.3851C52.3137 30.2925 43.2574 30.2015 34.1996 30.1119C29.3632 30.0672 26.4658 27.7433 25.4179 23.0463C24.997 21.1433 24.5626 19.2537 24.1372 17.3731ZM60.9834 8.68209C60.5983 8.68209 60.4281 8.63731 60.2669 8.65075C50.6299 9.54627 40.984 10.3612 31.356 11.3373C29.8558 11.4896 28.4049 12.2776 26.9539 12.8328C26.027 13.1866 25.8344 13.8806 26.0583 14.8612C26.7032 17.4627 27.2271 20.0955 27.8496 22.706C28.6467 26.0507 30.6126 27.6313 34.0608 27.6537C43.0708 27.7343 52.0823 27.7985 61.0953 27.8463C61.5208 27.8463 61.9507 27.7836 62.5284 27.7388C62.0223 21.3537 61.5073 15.0761 60.9834 8.68209ZM113.064 28.0746C112.616 27.8373 112.24 27.6269 111.846 27.4298C103.571 23.503 95.3353 19.4955 87.0059 15.694C82.3092 13.5061 77.5022 11.5632 72.6042 9.87313C69.765 8.9194 66.6303 8.83881 63.4285 8.33731C63.9882 15.1388 64.5122 21.4657 65.0585 28.0791L113.064 28.0746ZM38.6957 65.5388H107.982C108.044 64.6836 108.098 63.9761 108.165 63.0672H106.069C85.9296 63.0672 65.7914 63.0672 45.6547 63.0672C42.9678 63.0672 40.3347 63.1388 37.903 61.3254L38.6957 65.5388ZM17.2453 7.37015C14.5742 8.70132 12.4655 10.9415 11.2983 13.6881C9.53993 17.6731 7.78151 21.6582 6.02309 25.6433C5.74544 26.2791 5.5081 26.9328 5.12746 27.8821C7.02619 27.0806 8.61146 26.4313 10.1788 25.7507C12.3015 24.8284 12.8657 23.7537 12.2029 21.5015C11.929 20.6172 11.8752 19.6794 12.0461 18.7695C12.217 17.8596 12.6075 17.0053 13.1836 16.2806C14.4868 14.5298 15.7989 12.7881 17.102 11.0373C17.9439 9.91343 18.1723 8.74925 17.2453 7.37015ZM132.293 26.4179C133.189 30.8104 138.334 34.4418 143.489 34.3343C141.062 29.8433 137.743 26.7761 132.293 26.4179Z" fill="#472B53"/>
<path d="M136.995 66.9851C136.974 69.46 136.221 71.8733 134.83 73.9209C133.44 75.9685 131.474 77.5587 129.181 78.4911C126.888 79.4236 124.37 79.6566 121.945 79.1608C119.52 78.665 117.296 77.4625 115.553 75.7049C113.81 73.9473 112.627 71.7133 112.151 69.2843C111.676 66.8552 111.931 64.3399 112.883 62.0553C113.835 59.7707 115.442 57.8189 117.502 56.446C119.561 55.0731 121.981 54.3404 124.457 54.3403C126.114 54.3342 127.756 54.658 129.287 55.2926C130.818 55.9273 132.208 56.8602 133.375 58.037C134.542 59.2138 135.463 60.611 136.084 62.1472C136.706 63.6834 137.016 65.328 136.995 66.9851ZM124.492 56.8657C123.148 56.8408 121.811 57.0846 120.562 57.5828C119.313 58.081 118.175 58.8235 117.216 59.7669C116.258 60.7102 115.497 61.8354 114.979 63.0765C114.461 64.3176 114.195 65.6496 114.199 66.9945C114.202 68.3395 114.474 69.6702 114.998 70.9088C115.522 72.1473 116.288 73.2688 117.252 74.2074C118.215 75.1461 119.356 75.8831 120.608 76.3752C121.86 76.8672 123.197 77.1045 124.542 77.0731C127.199 77.0393 129.737 75.9664 131.613 74.0841C133.489 72.2019 134.553 69.66 134.577 67.003C134.587 65.6735 134.334 64.3551 133.831 63.1242C133.329 61.8932 132.587 60.7741 131.649 59.8314C130.711 58.8888 129.596 58.1413 128.368 57.6323C127.139 57.1232 125.822 56.8627 124.492 56.8657Z" fill="#472B53"/>
<path d="M22.4355 78.6C20.061 78.6071 17.7378 77.9092 15.7603 76.5947C13.7829 75.2802 12.2402 73.4084 11.3278 71.2164C10.4154 69.0244 10.1744 66.6109 10.6353 64.2817C11.0961 61.9526 12.2381 59.8127 13.9166 58.1332C15.595 56.4537 17.7343 55.3103 20.0634 54.8477C22.3924 54.3852 24.8064 54.6244 26.9993 55.535C29.1923 56.4456 31.0655 57.9867 32.3816 59.9629C33.6977 61.9392 34.3975 64.2616 34.3922 66.6358C34.3745 69.8019 33.1095 72.8335 30.8712 75.0732C28.633 77.3128 25.602 78.58 22.4355 78.6ZM31.8799 66.5687C31.8692 64.6854 31.2995 62.8478 30.243 61.2887C29.1866 59.7296 27.6911 58.5191 25.9459 57.8108C24.2007 57.1025 22.2845 56.9282 20.4401 57.31C18.5958 57.6918 16.9063 58.6126 15.5859 59.9555C14.2654 61.2984 13.3734 63.0031 13.023 64.8534C12.6726 66.7038 12.8794 68.6165 13.6174 70.3492C14.3553 72.0819 15.5911 73.5565 17.1682 74.5861C18.7452 75.6158 20.5925 76.1541 22.4758 76.1328C24.9884 76.1021 27.3869 75.0795 29.1485 73.2879C30.9101 71.4963 31.8919 69.0811 31.8799 66.5687Z" fill="#472B53"/>
<path d="M25.6911 50.0149C15.6466 48.8955 9.66829 53.6731 6.14399 62.7448C5.37375 59.1045 4.32138 55.5224 3.84222 51.8776C3.18393 46.8448 2.94659 41.7582 2.54356 36.694C2.51669 36.3627 2.57043 36.0224 2.57491 35.6866C2.57491 32.8254 3.43023 30.6493 6.63211 29.8657C8.34724 29.4582 9.94594 28.5493 11.5581 27.8104C14.3121 26.5657 15.5078 24.103 14.6435 21.2239C14.4177 20.5633 14.3713 19.8546 14.509 19.1703C14.6467 18.4859 14.9635 17.8503 15.4272 17.3284C16.4034 16.1015 17.3125 14.8254 18.2574 13.5761C20.5502 10.5224 20.6621 10.0343 19.7934 6.24179C22.0728 5.95522 24.3208 5.61045 26.5823 5.4C37.2761 4.41045 47.9565 3.23731 58.6727 2.55672C69.0754 1.89851 78.9273 4.18209 88.3359 8.82537C101.251 15.2382 114.625 20.6816 128.348 25.1104C129.315 25.4194 129.745 25.8224 129.875 26.9015C130.04 28.4755 130.62 29.9776 131.554 31.255C132.489 32.5323 133.745 33.5392 135.195 34.1731C137.882 35.4403 140.865 36.094 143.704 37.0657C144.205 37.2358 144.904 37.5403 145.047 37.9612C147.112 43.7821 148.182 49.7507 147.286 55.9164C146.991 57.708 146.251 59.397 145.135 60.8291C144.019 62.2613 142.561 63.391 140.896 64.1149C140.69 63.2463 140.506 62.391 140.282 61.5448C138.491 54.806 132.544 49.6925 125.952 49.2134C122.498 48.9136 119.037 49.7147 116.065 51.5019C113.094 53.289 110.764 55.9707 109.41 59.1627C109.038 60.0179 108.788 60.6493 107.592 60.6448C94.6635 60.591 81.7351 60.609 68.8067 60.6045C68.4843 60.6045 68.1574 60.5552 67.7051 60.5149C66.8856 50.4985 66.0705 40.5448 65.2331 30.3851C66.0258 30.3851 66.6214 30.3851 67.217 30.3851L113.745 30.7881C114.303 30.8305 114.864 30.805 115.415 30.7119C115.778 30.6163 116.111 30.4285 116.38 30.1668C116.649 29.905 116.846 29.5781 116.952 29.2178C117.058 28.8575 117.069 28.476 116.984 28.1102C116.899 27.7444 116.721 27.4067 116.468 27.1299C116.196 26.8481 115.874 26.6202 115.518 26.4582C103.633 20.8209 91.802 15.0985 79.8722 9.64478C72.7072 6.36269 65.0943 5.61493 57.2262 6.46119C48.4401 7.40597 39.6181 8.02388 30.8275 8.92388C25.0462 9.5194 20.9756 13.7373 21.195 18.8776C21.2891 21.2104 21.8265 23.5209 22.1713 25.8448C23.3446 33.6358 24.5163 41.4299 25.6866 49.2269C25.7044 49.4892 25.7059 49.7524 25.6911 50.0149ZM76.0882 33.1791C74.8062 33.1042 73.5205 33.1237 72.2414 33.2373C71.6503 33.3269 71.1488 34.0388 70.6069 34.4642C71.1129 34.8716 71.6055 35.606 72.1295 35.6284C74.6955 35.7537 77.2704 35.7537 79.8364 35.6284C80.3737 35.6284 80.8798 34.8896 81.4037 34.491C80.8619 34.0433 80.3648 33.3403 79.7647 33.2418C78.5691 33.0403 77.3152 33.1836 76.0882 33.1791Z" fill="white"/>
<path d="M24.1372 17.3731C24.585 19.2582 24.997 21.1433 25.4179 23.0328C26.4658 27.7298 29.3632 30.0537 34.1996 30.0985C43.2544 30.1791 52.3107 30.2701 61.3685 30.3716C61.7581 30.3716 62.1432 30.4075 62.7657 30.4343C63.5897 40.4642 64.4092 50.4537 65.2421 60.5507C64.6017 60.5866 64.1136 60.6358 63.6255 60.6403C57.0247 60.6403 50.4284 60.6403 43.8276 60.6403C41.9757 60.6661 40.1753 60.0311 38.7494 58.8493C35.4803 56.2478 32.1173 53.7716 28.8482 51.1701C28.4496 50.8522 28.2884 50.1179 28.2034 49.5448C27.1331 42.4791 26.1076 35.4045 25.0686 28.3298C24.6835 25.7373 24.173 23.1537 23.8461 20.5567C23.7692 19.5046 23.7617 18.4486 23.8237 17.3955L24.1372 17.3731ZM36.676 34.4463C38.1268 34.5091 39.58 34.4912 41.0288 34.3925C41.5796 34.3298 42.0677 33.6627 42.5827 33.2731C42.1035 32.8522 41.6423 32.0866 41.1497 32.0642C38.2478 31.9478 35.3281 31.9567 32.4397 32.0642C31.9919 32.0642 31.5441 32.7806 31.0649 33.1612C31.5396 33.609 31.9605 34.3254 32.4934 34.3881C33.8806 34.4943 35.273 34.5138 36.6626 34.4463H36.676Z" fill="white"/>
<path d="M60.9834 8.68209C61.5073 15.0761 62.0223 21.3537 62.5418 27.7433C61.9641 27.7881 61.5342 27.8552 61.1088 27.8507C52.0928 27.791 43.0812 27.7269 34.0742 27.6582C30.626 27.6269 28.6601 26.0552 27.863 22.7104C27.245 20.1 26.7211 17.4672 26.0717 14.8657C25.8299 13.8851 26.0225 13.191 26.9674 12.8373C28.4183 12.2821 29.8692 11.494 31.3694 11.3418C40.9974 10.3612 50.6254 9.55074 60.2803 8.65522C60.4281 8.63731 60.5982 8.66418 60.9834 8.68209Z" fill="white"/>
<path d="M113.064 28.0746H65.0585C64.5122 21.4612 63.9882 15.1343 63.4285 8.33283C66.6303 8.83432 69.765 8.91492 72.6042 9.86865C77.5022 11.5587 82.3092 13.5016 87.0059 15.6895C95.3353 19.491 103.575 23.4985 111.846 27.4254C112.24 27.6179 112.621 27.8373 113.064 28.0746Z" fill="white"/>
<path d="M38.6956 65.5388L37.903 61.3433C40.3346 63.1343 42.9902 63.0806 45.6771 63.0761C65.8138 63.0582 85.952 63.0582 106.092 63.0761H108.188C108.12 63.9716 108.067 64.6925 108.004 65.5478L38.6956 65.5388Z" fill="white"/>
<path d="M17.2453 7.37015C18.1723 8.74925 17.9439 9.91343 17.1065 11.0418C15.8034 12.7925 14.4913 14.5343 13.1881 16.2851C12.6142 17.0083 12.2249 17.8603 12.0541 18.7676C11.8832 19.6749 11.9358 20.6101 12.2074 21.4925C12.8478 23.7313 12.3059 24.8194 10.1833 25.7418C8.61596 26.4224 7.0486 27.0851 5.13196 27.8731C5.50812 26.9194 5.74546 26.2657 6.02759 25.6343C7.77705 21.6433 9.53547 17.6582 11.3028 13.6791C12.4707 10.9367 14.5774 8.69996 17.2453 7.37015Z" fill="white"/>
<path d="M132.293 26.4179C137.743 26.794 141.039 29.8612 143.489 34.3343C138.334 34.4239 133.185 30.7925 132.293 26.4179Z" fill="white"/>
<path d="M124.492 56.8657C125.822 56.8627 127.139 57.1232 128.368 57.6323C129.596 58.1413 130.711 58.8888 131.649 59.8314C132.587 60.7741 133.329 61.8932 133.831 63.1242C134.334 64.3551 134.587 65.6735 134.577 67.003C134.573 69.6797 133.506 72.2451 131.61 74.1349C129.714 76.0247 127.145 77.084 124.468 77.0799C121.791 77.0757 119.225 76.0084 117.335 74.1127C115.445 72.2171 114.386 69.6484 114.39 66.9717C114.379 65.6419 114.633 64.3233 115.137 63.0926C115.641 61.862 116.384 60.7438 117.325 59.8033C118.265 58.8628 119.383 58.1187 120.613 57.6144C121.844 57.11 123.163 56.8555 124.492 56.8657ZM128.715 66.8194C128.721 66.2608 128.618 65.7064 128.409 65.188C128.201 64.6696 127.893 64.1972 127.503 63.7978C127.112 63.3984 126.646 63.0799 126.133 62.8604C125.619 62.641 125.067 62.5248 124.508 62.5187C123.38 62.5062 122.293 62.9424 121.486 63.7313C120.679 64.5202 120.219 65.5972 120.207 66.7254C120.194 67.8535 120.631 68.9404 121.42 69.747C122.209 70.5535 123.286 71.0137 124.414 71.0261C125.542 71.0386 126.629 70.6024 127.436 69.8135C128.243 69.0246 128.703 67.9476 128.715 66.8194Z" fill="white"/>
<path d="M31.8799 66.5687C31.8817 68.4498 31.3255 70.2893 30.2816 71.8544C29.2377 73.4194 27.7531 74.6398 26.0155 75.3611C24.2779 76.0824 22.3654 76.2723 20.5199 75.9067C18.6743 75.5411 16.9787 74.6365 15.6474 73.3073C14.3161 71.978 13.409 70.2838 13.0407 68.439C12.6725 66.5942 12.8597 64.6817 13.5786 62.9433C14.2976 61.2049 15.516 59.7187 17.0798 58.6728C18.6436 57.6268 20.4825 57.068 22.3639 57.0672C23.6144 57.06 24.8539 57.3009 26.0108 57.7757C27.1677 58.2505 28.2189 58.9499 29.1038 59.8334C29.9887 60.7169 30.6897 61.7671 31.1662 62.9232C31.6427 64.0792 31.8853 65.3183 31.8799 66.5687ZM22.234 70.5716C23.0463 70.5716 23.8403 70.3301 24.515 69.8779C25.1898 69.4257 25.7149 68.7832 26.0237 68.032C26.3325 67.2807 26.4109 66.4547 26.2492 65.6587C26.0874 64.8628 25.6927 64.1329 25.1152 63.5617C24.5376 62.9906 23.8033 62.6039 23.0056 62.4509C22.2078 62.298 21.3826 62.3855 20.6347 62.7025C19.8868 63.0194 19.25 63.5515 18.8052 64.2311C18.3604 64.9108 18.1276 65.7072 18.1365 66.5194C18.1674 67.5921 18.6104 68.6116 19.3734 69.3662C20.1365 70.1208 21.1609 70.5525 22.234 70.5716Z" fill="white"/>
<path d="M76.0882 33.1791C77.3152 33.1791 78.5691 33.0403 79.7647 33.2418C80.3648 33.3403 80.8619 34.0522 81.4037 34.491C80.8798 34.8896 80.3738 35.606 79.8364 35.6284C77.2704 35.7537 74.6955 35.7537 72.1295 35.6284C71.6056 35.6284 71.113 34.8716 70.6069 34.4642C71.1488 34.0164 71.6503 33.3269 72.2415 33.2373C73.5205 33.1237 74.8063 33.1042 76.0882 33.1791Z" fill="#472B53"/>
<path d="M36.6626 34.4463C35.2684 34.5129 33.8715 34.4919 32.48 34.3836C31.9605 34.3209 31.5261 33.5866 31.0515 33.1567C31.4993 32.7761 31.9471 32.0776 32.4262 32.0597C35.3281 31.9567 38.2478 31.9478 41.1362 32.0597C41.6288 32.0597 42.0901 32.8478 42.5692 33.2687C42.0543 33.6582 41.5661 34.3254 41.0153 34.3881C39.5666 34.4882 38.1134 34.5076 36.6626 34.4463Z" fill="#472B53"/>
<path d="M128.702 66.806C128.696 67.3646 128.58 67.9165 128.36 68.4302C128.141 68.944 127.822 69.4094 127.423 69.8001C127.023 70.1907 126.551 70.4988 126.032 70.7069C125.514 70.915 124.959 71.0189 124.401 71.0127C123.842 71.0065 123.29 70.8904 122.776 70.6709C122.262 70.4514 121.797 70.1329 121.406 69.7336C121.016 69.3342 120.707 68.8618 120.499 68.3434C120.291 67.8249 120.187 67.2706 120.193 66.712C120.206 65.5838 120.666 64.5068 121.473 63.7179C122.279 62.929 123.366 62.4928 124.495 62.5052C125.623 62.5177 126.7 62.9778 127.489 63.7844C128.278 64.5909 128.714 65.6778 128.702 66.806ZM122.433 66.4254C122.433 66.6896 122.433 66.9537 122.433 67.2179C123.086 67.6657 123.7 68.409 124.403 68.503C125.464 68.6508 126.355 67.8716 126.1 66.7702C125.943 66.103 125.066 65.1761 124.475 65.1448C123.839 65.109 123.149 65.9597 122.441 66.4254H122.433Z" fill="#472B53"/>
<path d="M22.234 70.5716C21.1702 70.547 20.1576 70.1096 19.4106 69.3518C18.6636 68.5941 18.2407 67.5755 18.2314 66.5116C18.2221 65.4476 18.6271 64.4218 19.3608 63.6511C20.0944 62.8804 21.0991 62.4253 22.1623 62.3821C22.711 62.3598 23.2585 62.448 23.7724 62.6414C24.2862 62.8348 24.756 63.1295 25.1537 63.5081C25.5515 63.8866 25.869 64.3412 26.0876 64.8448C26.3062 65.3484 26.4213 65.8909 26.4261 66.4399C26.4309 66.9889 26.3253 67.5332 26.1156 68.0406C25.9059 68.548 25.5963 69.0081 25.2052 69.3935C24.8142 69.7789 24.3496 70.0818 23.8392 70.2842C23.3288 70.4866 22.7829 70.5843 22.234 70.5716ZM21.9026 68.3328H22.6325C23.0266 67.7149 23.8013 67.0388 23.7207 66.4925C23.6401 65.9463 22.7445 65.4313 22.2071 64.9075C21.6876 65.4493 20.8189 65.9552 20.7517 66.5507C20.6845 67.1463 21.4951 67.7284 21.9026 68.3284V68.3328Z" fill="#472B53"/>
<path d="M122.441 66.4254C123.131 65.9776 123.839 65.109 124.501 65.1448C125.093 65.1761 125.97 66.103 126.127 66.7702C126.382 67.8716 125.491 68.6508 124.43 68.503C123.727 68.409 123.113 67.6702 122.459 67.2179C122.455 66.9537 122.446 66.6896 122.441 66.4254Z" fill="white"/>
<path d="M21.9026 68.3284C21.4861 67.7284 20.689 67.0791 20.7517 66.5373C20.8144 65.9955 21.6877 65.4358 22.2071 64.894C22.7445 65.4179 23.6312 65.8881 23.7207 66.4791C23.8103 67.0702 23.0266 67.7015 22.6325 68.3194L21.9026 68.3284Z" fill="white"/>
</g>
<defs>
<clipPath id="clip0_3_616">
<rect width="150" height="79.4776" fill="white"/>
</clipPath>
</defs>
</svg>
