<svg width="50" height="50" viewBox="0 0 50 50" fill="none" xmlns="http://www.w3.org/2000/svg">
<path d="M25 49.978C38.8071 49.978 50 38.79 50 24.989C50 11.188 38.8071 0 25 0C11.1929 0 0 11.188 0 24.989C0 38.79 11.1929 49.978 25 49.978Z" fill="#FF6346"/>
<path d="M24.1315 5.24358C19.7248 5.38337 15.4817 7.5641 12.5098 11.9843C10.4554 15.0401 9.55753 18.4398 10.2288 22.1191C10.7673 25.0645 12.1798 27.673 13.6762 30.227C16.6131 35.2273 20.1541 39.7915 23.7651 44.3067C24.4644 45.186 25.5734 45.1553 26.2951 44.2508C27.5104 42.7271 28.7229 41.202 29.9019 39.6517C32.9352 35.6621 35.8693 31.6039 38.0636 27.0705C39.1223 24.8828 40.0062 22.6238 40.0006 20.1467C39.9754 11.9382 33.2597 5.27014 24.1315 5.24358Z" fill="white"/>
<path d="M24.993 40.9056C24.5553 40.3464 24.1441 39.8376 23.7441 39.3176C20.6226 35.2636 17.5808 31.1524 15.1936 26.605C14.2985 24.8982 13.4216 23.1592 13.1923 21.2231C12.7979 17.9184 13.7908 14.9688 15.9725 12.5043C19.3052 8.74113 23.5343 7.43269 28.3439 8.83898C33.1282 10.2369 35.9071 13.6282 36.7937 18.5349C37.1685 20.6136 36.6679 22.5692 35.8525 24.4676C34.4274 27.789 32.4961 30.8183 30.3983 33.7427C28.7662 36.0213 27.0418 38.2328 25.3552 40.4722C25.2601 40.605 25.1454 40.7267 24.993 40.9056ZM24.9706 29.3505C27.3853 29.3624 29.7061 28.4166 31.4241 26.7206C33.1421 25.0246 34.117 22.7168 34.1352 20.3032C34.1603 15.233 30.0948 11.1022 25.0643 11.0854C23.8645 11.0793 22.6752 11.3094 21.5644 11.7627C20.4535 12.2159 19.4428 12.8835 18.5901 13.7272C16.8679 15.4311 15.8934 17.749 15.8809 20.1711C15.8685 22.5932 16.8192 24.9211 18.5238 26.6425C20.2285 28.364 22.5475 29.3381 24.9706 29.3505Z" fill="#FF6346"/>
<path d="M24.9875 26.2751C23.7894 26.2731 22.6189 25.9158 21.6243 25.2483C20.6296 24.5807 19.8555 23.6331 19.4002 22.5255C18.9448 21.4179 18.8286 20.2001 19.0662 19.0263C19.3039 17.8526 19.8848 16.7759 20.7353 15.9324C21.5857 15.089 22.6675 14.5169 23.8436 14.2886C25.0197 14.0602 26.2371 14.186 27.3416 14.6499C28.4461 15.1138 29.3879 15.8949 30.0479 16.8944C30.7078 17.8938 31.0561 19.0666 31.0487 20.2641C31.0465 21.0568 30.8878 21.8414 30.5819 22.5728C30.2759 23.3042 29.8286 23.9681 29.2656 24.5264C28.7026 25.0848 28.0349 25.5266 27.3008 25.8267C26.5667 26.1268 25.7806 26.2791 24.9875 26.2751Z" fill="#FF6346"/>
</svg>
