<svg width="50" height="50" viewBox="0 0 50 50" fill="none" xmlns="http://www.w3.org/2000/svg">
<path d="M25 49.978C38.8071 49.978 50 38.7901 50 24.989C50 11.188 38.8071 0 25 0C11.1929 0 0 11.188 0 24.989C0 38.7901 11.1929 49.978 25 49.978Z" fill="#007684"/>
<path d="M39.7838 24.0105C39.7574 26.3816 39.1383 28.7086 37.9828 30.7796C36.8272 32.8506 35.1719 34.5999 33.1674 35.8683C31.1629 37.1367 28.873 37.8839 26.5059 38.042C24.1388 38.2001 21.7697 37.764 19.6143 36.7734C19.4037 36.6829 19.1705 36.6585 18.9458 36.7035C16.7501 37.2039 14.5586 37.7267 12.3727 38.2412C11.6734 38.4061 11.3853 38.1265 11.5336 37.4122C11.9839 35.2217 12.4482 33.0326 12.879 30.842C12.9345 30.5441 12.8994 30.2364 12.7783 29.9586C8.85262 21.641 13.9223 11.7424 22.9539 10.0775C30.622 8.66703 37.865 13.5345 39.4383 21.1909C39.6285 22.1149 39.6719 23.0655 39.7838 24.0105ZM15.29 34.3885C16.6116 34.0782 17.8549 33.8084 19.0842 33.4883C19.2728 33.433 19.4707 33.4169 19.6658 33.4409C19.8608 33.465 20.0489 33.5287 20.2184 33.6281C22.3987 34.8093 24.7259 35.2748 27.1831 34.8974C33.2443 33.9678 37.2832 28.6068 36.5532 22.5245C35.7826 16.1053 29.4011 11.6683 23.0952 13.1669C16.0257 14.8444 12.4664 22.4979 15.7557 29.015C16.0816 29.6622 16.1907 30.2409 16.0047 30.9497C15.7166 32.0512 15.5348 33.1793 15.29 34.3885Z" fill="white"/>
<path d="M15.2901 34.3885C15.5348 33.1822 15.7166 32.054 16.0047 30.9539C16.1907 30.2451 16.0817 29.6664 15.7558 29.0192C12.4721 22.5063 16.0201 14.8486 23.0953 13.1683C29.4012 11.6697 35.7827 16.1039 36.5532 22.5259C37.2833 28.6152 33.2443 33.9692 27.1831 34.8988C24.7259 35.2762 22.3988 34.8107 20.2185 33.6295C20.049 33.5301 19.8609 33.4664 19.6659 33.4424C19.4708 33.4183 19.2729 33.4344 19.0843 33.4897C17.855 33.8056 16.6117 34.0754 15.2901 34.3885ZM29.4711 30.8351C29.6683 30.8099 30.0557 30.7847 30.4305 30.7051C31.5787 30.4604 32.2766 29.6343 32.8975 28.7284C33.4331 27.9456 33.159 27.2173 32.2416 26.9531C31.5577 26.756 30.8557 26.6148 30.1928 26.366C29.411 26.0724 28.8474 26.2555 28.302 26.8706C27.6181 27.6436 27.2587 27.6688 26.3706 27.1124C24.9271 26.1975 23.6379 25.0595 22.5512 23.7407C22.4495 23.6131 22.3561 23.4791 22.2715 23.3395C22.1461 23.1621 22.0823 22.9484 22.0899 22.7313C22.0975 22.5142 22.176 22.3055 22.3135 22.1373C22.4967 21.8857 22.7498 21.6662 22.8729 21.3894C22.996 21.1126 23.1218 20.703 23.0225 20.436C22.6743 19.4938 22.2519 18.5754 21.8156 17.6696C21.5653 17.1495 20.894 16.9468 20.4451 17.2851C19.3528 18.1099 18.4675 19.087 18.4647 20.5814C18.4644 21.7563 18.7944 22.9077 19.4171 23.9042C21.0094 26.5156 23.3007 28.6297 26.0322 30.0075C27.0961 30.5531 28.2753 30.8359 29.4711 30.8323V30.8351Z" fill="#007684"/>
<path d="M29.4711 30.8323C28.2758 30.8376 27.0965 30.5567 26.0321 30.0131C23.3 28.6338 21.0085 26.5177 19.4171 23.9042C18.7904 22.9061 18.4579 21.7515 18.4577 20.573C18.4577 19.0787 19.3458 18.1015 20.438 17.2768C20.8869 16.9385 21.5568 17.137 21.8086 17.6612C22.2449 18.567 22.6673 19.4855 23.0155 20.4276C23.1148 20.6946 22.9889 21.0875 22.8659 21.381C22.7428 21.6746 22.4966 21.8773 22.3064 22.1289C22.169 22.2972 22.0904 22.5058 22.0829 22.7229C22.0753 22.9401 22.1391 23.1537 22.2645 23.3311C22.349 23.4707 22.4425 23.6047 22.5442 23.7323C23.6321 25.0535 24.9232 26.1935 26.3691 27.1096C27.2572 27.6688 27.6166 27.6409 28.3005 26.8678C28.8459 26.2527 29.4095 26.0696 30.1913 26.3632C30.8542 26.612 31.5563 26.7532 32.2401 26.9503C33.1576 27.2145 33.4317 27.9428 32.8961 28.7256C32.2751 29.6315 31.5773 30.4576 30.4291 30.7023C30.0557 30.782 29.6683 30.8071 29.4711 30.8323Z" fill="white"/>
</svg>
