<svg width="170" height="170" viewBox="0 0 170 170" fill="none" xmlns="http://www.w3.org/2000/svg">
<g clip-path="url(#clip0_2_313)">
<path d="M113.154 122.974V128.731H94.8921V127.143C94.8921 124.628 95.2891 122.974 98.2005 122.974H113.154ZM97.0757 119.401C92.2454 119.401 90.0619 121.981 90.0619 126.018V137.531H94.8921V132.237H113.154V137.531H117.985V119.401H97.0757ZM123.807 119.401V122.974H135.122V137.597H139.952V122.974H151.267V119.401H123.807ZM59.2276 130.583C59.2276 133.098 59.757 134.024 62.536 134.024H82.5849V137.597H61.4112C56.5809 137.597 54.3974 135.414 54.3974 131.377V119.467H82.5849V123.04H59.2276V126.613H81.6585V130.054H59.2276V130.583ZM24.8865 125.687C23.4308 125.554 23.1662 125.025 23.1662 124.165C23.1662 123.371 23.6293 122.842 24.7542 122.842H46.8543V119.335H24.1587C20.9164 119.335 18.7329 120.592 18.7329 124.165C18.7329 127.804 20.3871 128.995 24.0925 129.326L42.024 130.848C43.4135 130.98 43.8105 131.443 43.8105 132.436C43.8105 133.362 43.4135 133.958 42.1563 133.958H19.6593V137.531H42.5533C46.5234 137.531 48.2438 135.943 48.2438 132.237C48.2438 128.863 46.6557 127.473 42.818 127.143L24.8865 125.687Z" fill="#A4A4A5"/>
<path d="M46.3911 57.4016C46.4572 54.9534 46.5896 48.866 46.7219 45.2929C46.8542 40.7273 47.8467 37.9483 49.6994 36.2279C52.28 33.912 55.3237 33.3827 62.6022 32.9857C79.4088 32.0593 96.5463 32.1917 118.051 33.7135C120.301 33.8459 121.161 34.309 121.558 34.5737C122.484 35.2354 122.616 35.9632 122.881 39.7348C123.013 41.9183 123.344 47.7411 123.477 50.9172C116.066 50.5202 103.494 49.9246 92.5762 49.7923C81.6585 49.66 71.7995 49.8585 70.6085 49.9908C68.2264 50.3217 67.1016 51.4465 66.7708 51.9097L123.609 62.4304V70.7014L46.3911 57.4016Z" fill="#A4A4A5"/>
<path d="M46.3249 61.4379L123.543 75.7963C123.477 77.9137 123.344 84.5304 123.212 88.3682C123.08 92.9338 122.087 95.7128 120.234 97.4332C117.654 99.7491 114.61 100.278 107.332 100.675C90.525 101.602 73.3875 101.469 51.883 99.9476C49.6333 99.8152 48.7731 99.352 48.3761 99.0874C47.4497 98.4257 47.3174 97.6979 47.0527 93.9263C46.8542 91.3457 46.5234 83.8688 46.3911 81.3544C56.3824 82.0161 71.6672 82.5454 84.1067 82.5454C87.2166 82.5454 95.3553 82.6116 97.5388 82.6116C99.2592 82.6116 101.509 82.1484 102.634 80.3619L46.3249 70.7675V61.4379Z" fill="#A4A4A5"/>
</g>
<defs>
<clipPath id="clip0_2_313">
<rect width="170" height="170" fill="white"/>
</clipPath>
</defs>
</svg>
