<svg width="176" height="176" viewBox="0 0 176 176" fill="none" xmlns="http://www.w3.org/2000/svg">
<path d="M88 26.3702C53.6957 26.3702 25.8854 53.9643 25.8854 87.9992C25.8854 122.036 53.6957 149.63 88 149.63C122.304 149.63 150.115 122.036 150.115 87.9992C150.115 53.966 122.304 26.3702 88 26.3702ZM146.075 87.9992C146.075 119.822 120.075 145.621 88 145.621C55.925 145.621 29.9252 119.822 29.9252 87.9992C29.9252 56.1781 55.9267 30.3774 88 30.3774C120.073 30.3774 146.075 56.1781 146.075 87.9992Z" fill="#A4A4A5"/>
<path d="M88 51.4518V53.4563C107.195 53.4563 122.816 68.9498 122.816 87.9992H124.836C124.836 67.8171 108.343 51.4518 88 51.4518ZM88 122.544C68.8048 122.544 53.1843 107.049 53.1843 87.9992H51.1644C51.1644 108.183 67.6567 124.546 88 124.546" fill="#A4A4A5"/>
<path d="M118.105 61.8517C118.948 62.751 120.164 64.2012 120.847 65.0815L133.425 57.1598C132.797 56.3446 131.795 55.1055 131.048 54.232L123.082 59.4577L122.538 59.9211L122.943 59.3341L126.461 52.37L123.972 49.9021L116.95 53.3911L116.36 53.7927L116.83 53.2538L122.098 45.3543C121.172 44.5717 120.281 43.8544 119.147 42.986L111.161 55.4539C112.174 56.2262 113.507 57.3588 114.357 58.1311L121.874 54.2612L122.354 53.9094L122.001 54.3882L118.105 61.8517ZM89.5634 46.0493L93.0009 38.4124L93.2188 37.7346L93.1571 38.4399L93.5175 48.6476C94.7239 48.7609 95.9698 48.9273 97.1969 49.1299L96.6374 34.0122C94.9213 33.8234 93.212 33.6896 91.5027 33.6175L88.1167 41.9546L87.9966 42.5741L87.8764 41.9563L84.4956 33.6175C82.7846 33.6896 81.0753 33.8234 79.3591 34.0122L78.8014 49.1316C80.0284 48.9256 81.2727 48.7643 82.4791 48.6476L82.8395 38.4399L82.7777 37.7346L82.9974 38.4107L86.4331 46.0493H89.5634ZM61.7668 58.0985C63.7541 56.0219 64.8782 53.6228 62.8926 51.3334C61.8114 50.0909 59.9957 49.818 58.4906 50.4307L58.3413 50.4891L58.3894 50.3586C58.6125 49.7683 58.7549 47.8839 57.1366 46.5831C56.3472 45.9481 55.3587 45.713 54.3564 45.8142C52.491 46.003 51.0563 47.2678 47.1486 51.5908C45.9678 52.8951 44.2517 54.9545 43.222 56.2862L53.9548 66.3893C57.5124 62.4833 58.9626 61.0297 61.7668 58.0985ZM47.7629 55.6272C49.9219 53.0032 52.2198 50.6229 53.2615 49.6807C53.591 49.3838 53.948 49.0869 54.3822 48.9703C55.0875 48.778 55.8152 49.2757 55.9782 49.9931C56.1429 50.7139 55.6864 51.3986 55.1785 51.9632C54.0355 53.2435 49.8429 57.5939 49.8429 57.5939L47.7612 55.6272H47.7629ZM51.9658 59.5847C51.9658 59.5847 56.0486 55.3012 57.382 53.9317C57.9106 53.3876 58.2504 53.0564 58.6159 52.8797C59.0862 52.6514 59.601 52.6051 60.0627 52.9088C60.514 53.2109 60.7234 53.7274 60.6101 54.2423C60.4745 54.855 59.97 55.4385 59.5547 55.8847L54.1419 61.6321L51.9658 59.5847Z" fill="#A4A4A5"/>
<path d="M88 51.4518V87.9992H51.1644C51.1644 67.8017 67.6429 51.4518 88 51.4518ZM124.836 87.9992C124.836 108.198 108.357 124.546 88 124.546V87.9992H124.836Z" fill="#A4A4A5"/>
</svg>
