<svg width="50" height="58" viewBox="0 0 50 58" fill="none" xmlns="http://www.w3.org/2000/svg">
<path d="M20.6093 0C21.7581 0.257219 22.9263 0.448639 24.0495 0.786613C26.2628 1.45808 28.1308 2.73071 29.7555 4.34432C35.9621 10.5256 42.1727 16.7068 48.3873 22.888C48.9118 23.3882 49.3263 23.9914 49.6044 24.6594C49.8825 25.3274 50.0183 26.0457 50.003 26.7688C50.003 29.9451 49.985 33.1215 50.003 36.2994C50.0225 39.1901 48.8303 41.3705 46.2851 42.7956C42.0377 45.1549 38.47 48.5613 35.9241 52.6881C35.4631 53.4359 35.0351 54.209 34.5051 54.9044C33.514 56.204 32.1611 56.9666 30.5604 57.2971C30.3982 57.3315 30.2391 57.3839 30.0784 57.4272H0.675716C0.127635 57.1027 0 56.6107 0 56.0036C0.0110117 43.2931 0.0135143 30.5847 0.00750796 17.8783C0.00750796 13.6162 0.00750796 9.35461 0.00750796 5.09354C0.00750796 3.84483 0.328849 2.7008 1.15022 1.72128C1.97159 0.741749 3.06325 0.26021 4.27954 0H20.6093ZM1.92804 55.5145H2.6458C11.355 55.5145 20.0643 55.5011 28.7735 55.525C30.9733 55.525 32.5635 54.6502 33.6732 52.7524C34.442 51.4275 35.292 50.1509 36.2184 48.93C38.717 45.6594 41.8313 43.0798 45.4261 41.0729C47.2551 40.053 48.093 38.4827 48.0855 36.4145C48.0725 33.2371 48.0725 30.0598 48.0855 26.8824C48.0981 26.3696 48.002 25.8599 47.8036 25.3866C47.6051 24.9133 47.3088 24.4869 46.9338 24.1353C40.7772 18.0278 34.6312 11.9104 28.4957 5.78295C25.898 3.18832 22.7761 1.90223 19.1017 1.90821C14.4859 1.91718 9.86846 1.90821 5.25257 1.90821C3.07376 1.90821 1.92804 3.05373 1.92804 5.23412V55.5116V55.5145Z" fill="#6B315A"/>
<path d="M1.92804 55.5145V5.23412C1.92804 3.05373 3.07375 1.90821 5.25256 1.90821C9.86846 1.90821 14.4858 1.90821 19.1017 1.90821C22.7761 1.90821 25.8979 3.18832 28.4957 5.78295C34.6312 11.9104 40.7762 18.0278 46.9307 24.1353C47.3057 24.4869 47.6021 24.9133 47.8006 25.3866C47.999 25.8599 48.0951 26.3696 48.0825 26.8824C48.0634 30.0608 48.0634 33.2381 48.0825 36.4145C48.09 38.4827 47.2521 40.053 45.4231 41.0729C41.8283 43.0798 38.714 45.6594 36.2154 48.93C35.289 50.1509 34.439 51.4275 33.6702 52.7524C32.5605 54.6502 30.9673 55.5325 28.7705 55.525C20.0613 55.5011 11.352 55.5145 2.6428 55.5145H1.92804ZM24.0555 25.8356H42.6887C42.9137 25.8429 43.1389 25.8359 43.363 25.8147C43.5276 25.801 43.6856 25.7439 43.8207 25.6491C43.9558 25.5543 44.063 25.4253 44.1312 25.2755C44.1995 25.1256 44.2264 24.9604 44.209 24.7967C44.1917 24.6331 44.1308 24.477 44.0327 24.3446C43.9209 24.1946 43.7952 24.0554 43.6573 23.9289C38.0343 18.3229 32.4104 12.7179 26.7854 7.11391C24.5615 4.89465 21.8932 3.80595 18.7489 3.8239C14.9018 3.83885 11.0547 3.8239 7.20914 3.8239C4.98828 3.8239 3.85158 4.95895 3.85158 7.17672C3.85158 12.8944 3.85158 18.6125 3.85158 24.3312C3.85158 25.5888 4.10084 25.8386 5.36518 25.8386L24.0555 25.8356ZM38.4603 34.445C39.3973 34.445 40.3358 34.4584 41.2742 34.445C42.9455 34.4166 44.1948 33.2067 44.2189 31.6111C44.2429 30.0154 42.9605 28.7398 41.2652 28.7218C39.3892 28.7009 37.5133 28.7009 35.6373 28.7218C33.966 28.7413 32.7122 29.972 32.6896 31.5632C32.6671 33.1544 33.948 34.4166 35.6463 34.445C36.5833 34.4569 37.5218 34.445 38.4603 34.445Z" fill="white"/>
<path d="M24.0555 25.8356H5.36518C4.10084 25.8356 3.85158 25.5859 3.85158 24.3282C3.85158 18.6095 3.85158 12.8914 3.85158 7.17373C3.85158 4.95596 4.98828 3.8224 7.20914 3.82091C11.0547 3.82091 14.9018 3.83287 18.7489 3.82091C21.8932 3.80894 24.5615 4.89764 26.7854 7.11092C32.4033 12.7239 38.0273 18.3294 43.6573 23.9274C43.7952 24.0539 43.9209 24.1931 44.0327 24.3431C44.1308 24.4755 44.1917 24.6316 44.209 24.7952C44.2264 24.9589 44.1995 25.1242 44.1312 25.274C44.063 25.4239 43.9558 25.5528 43.8207 25.6476C43.6856 25.7424 43.5276 25.7996 43.363 25.8132C43.1389 25.8344 42.9137 25.8414 42.6888 25.8341L24.0555 25.8356ZM28.8065 23.8915C28.8215 23.7734 28.8351 23.7195 28.8351 23.6642C28.8351 19.8523 28.8426 16.0373 28.8261 12.2284C28.8102 11.9954 28.7129 11.7754 28.5513 11.6063C27.5332 10.5595 26.4791 9.54853 25.458 8.50469C23.617 6.6234 21.3797 5.72463 18.7474 5.7351C14.9018 5.75005 11.0547 5.7351 7.20914 5.7351C6.06943 5.7351 5.77362 6.03419 5.77362 7.16476C5.77362 12.5275 5.77362 17.8902 5.77362 23.2529V23.887L28.8065 23.8915ZM40.6691 23.8915L30.8036 14.0573V23.8795L40.6691 23.8915Z" fill="#6B315A"/>
<path d="M38.4603 34.445C37.5218 34.445 36.5833 34.4569 35.6463 34.445C33.948 34.4166 32.6671 33.1619 32.6897 31.5632C32.7122 29.9646 33.966 28.7413 35.6373 28.7218C37.5123 28.6999 39.3883 28.6999 41.2652 28.7218C42.9605 28.7398 44.2429 30.0154 44.2189 31.6111C44.1949 33.2067 42.9455 34.4166 41.2743 34.445C40.3358 34.4584 39.3973 34.445 38.4603 34.445ZM38.4242 32.5338C39.3417 32.5338 40.2592 32.5338 41.1782 32.5338C41.8599 32.5338 42.2728 32.1704 42.2818 31.6036C42.2908 31.0368 41.8794 30.636 41.2127 30.6315C39.3767 30.6186 37.5413 30.6186 35.7064 30.6315C35.0411 30.6315 34.6177 31.0398 34.6237 31.5976C34.6297 32.1554 35.0547 32.5263 35.7274 32.5338C36.6268 32.5413 37.5248 32.5338 38.4242 32.5338Z" fill="#6B315A"/>
<path d="M28.8065 23.8855H5.77362V23.2514C5.77362 17.8887 5.77362 12.526 5.77362 7.16326C5.77362 6.02671 6.07394 5.7336 7.20914 5.7336C11.0547 5.7336 14.9018 5.74407 18.7474 5.7336C21.3797 5.72313 23.617 6.62191 25.458 8.5032C26.4791 9.55002 27.5332 10.5595 28.5513 11.6048C28.7136 11.7721 28.8124 11.9905 28.8306 12.2224C28.8471 16.0343 28.8411 19.8493 28.8396 23.6582C28.8306 23.7135 28.8216 23.7674 28.8065 23.8855Z" fill="white"/>
<path d="M40.6661 23.884H30.8036V14.0573L40.6661 23.884Z" fill="white"/>
<path d="M38.4242 32.5338C37.5233 32.5338 36.6223 32.5338 35.7214 32.5338C35.0487 32.5263 34.6252 32.1569 34.6177 31.5976C34.6102 31.0383 35.0351 30.636 35.7003 30.6316C37.5353 30.6186 39.3707 30.6186 41.2067 30.6316C41.8734 30.6316 42.2863 31.0398 42.2758 31.6036C42.2653 32.1674 41.8539 32.5278 41.1721 32.5338C40.2592 32.5413 39.3417 32.5338 38.4242 32.5338Z" fill="white"/>
</svg>
