<svg width="50" height="50" viewBox="0 0 50 50" fill="none" xmlns="http://www.w3.org/2000/svg">
<path d="M0 47.9492V16.3086C0.147778 16.1648 0.302936 16.0287 0.464844 15.901C2.69141 14.3229 4.91797 12.737 7.16146 11.1732C7.28298 11.0983 7.38092 10.9906 7.44403 10.8625C7.50713 10.7345 7.53285 10.5912 7.51823 10.4492C7.50521 9.01693 7.51172 7.58464 7.51823 6.15234C7.51823 4.8125 8.14974 4.17448 9.48047 4.17318C11.7904 4.17318 14.1003 4.16406 16.4102 4.17318C16.8145 4.18772 17.2116 4.06318 17.5352 3.82031C18.7539 2.92578 19.9948 2.0599 21.2227 1.17839C22.1159 0.539062 23.151 0.227865 24.2188 0H25.7812C25.8528 0.0347369 25.9279 0.0617974 26.0052 0.0807292C27.0547 0.235153 28.0506 0.643703 28.9062 1.27083C30.1367 2.14974 31.3607 3.03906 32.6055 3.89453C32.8567 4.06347 33.1505 4.15782 33.4531 4.16667C35.8451 4.1875 38.2357 4.17578 40.6276 4.18099C41.8281 4.18099 42.4883 4.85286 42.4922 6.0625C42.4922 7.51042 42.5039 8.95833 42.4844 10.4049C42.4701 10.5611 42.4999 10.7182 42.5703 10.8584C42.6407 10.9985 42.749 11.1161 42.8828 11.1979C45.0026 12.6784 47.1081 14.1784 49.2148 15.6758C49.487 15.8698 49.7357 16.0951 49.9961 16.3047V47.9453C49.6949 49.0113 49.0113 49.6949 47.9453 49.9961H2.05078C0.984375 49.6992 0.298177 49.0182 0 47.9492ZM40.8281 5.8763H9.21354C9.19572 5.91586 9.1826 5.95738 9.17448 6C9.17448 11.4193 9.17708 16.8381 9.18229 22.2565C9.19625 22.4263 9.27618 22.5838 9.40495 22.6953C13.5534 26.1549 17.6966 29.6198 21.8685 33.0495C23.7031 34.5586 26.2201 34.5417 28.0951 33.0859C28.6159 32.6771 29.1263 32.2409 29.6393 31.8151C33.2556 28.8099 36.8733 25.8064 40.4922 22.8047C40.6065 22.7195 40.6977 22.6071 40.7575 22.4777C40.8173 22.3483 40.8438 22.206 40.8346 22.0638C40.8251 16.8233 40.8229 11.5833 40.8281 6.34375V5.8763ZM3.17057 48.3073H46.8346L29.612 34.0013C28.2682 35.1901 26.7474 35.8242 25.0013 35.8242C23.2552 35.8242 21.7109 35.1641 20.3854 34.0013L3.17057 48.3073ZM19.0859 32.918L1.69271 18.4674V47.3672L19.0859 32.918ZM30.9167 32.918L48.2969 47.3581V18.4766L30.9167 32.918ZM42.5169 21.1094L47.7995 16.7187L42.5169 12.9727V21.1094ZM7.47917 21.1016V12.9805L2.20312 16.7201L7.47917 21.1016ZM29.8854 4.15365L29.9479 4.03646C29.0234 3.41276 28.151 2.68359 27.1628 2.1875C25.4453 1.32552 23.7279 1.51562 22.1302 2.58854C21.5091 3.00391 20.9141 3.45703 20.3073 3.89062C20.2179 3.94716 20.1253 3.99846 20.0299 4.04427L20.1198 4.15365H29.8854Z" fill="#007684"/>
<path d="M0 47.9492C0.298177 49.0182 0.984375 49.6992 2.05078 50H0V47.9492Z" fill="white"/>
<path d="M47.9492 50C49.0169 49.7005 49.7005 49.0169 50 47.9492V50H47.9492Z" fill="white"/>
<path d="M40.8281 5.8763V6.34375C40.8281 11.5833 40.8303 16.8234 40.8346 22.0638C40.8438 22.206 40.8173 22.3483 40.7575 22.4777C40.6977 22.6071 40.6065 22.7195 40.4922 22.8047C36.8681 25.8021 33.2504 28.8056 29.6393 31.8151C29.1263 32.2409 28.6211 32.6771 28.0951 33.0859C26.2201 34.5417 23.7031 34.5586 21.8685 33.0495C17.7018 29.6198 13.5534 26.1549 9.40495 22.6953C9.27619 22.5838 9.19626 22.4263 9.1823 22.2565C9.17101 16.8372 9.16841 11.4184 9.17449 6C9.18261 5.95738 9.19572 5.91586 9.21355 5.8763H40.8281ZM26.7109 22.5586C27.3138 23.7148 28.3125 24.0391 29.5065 23.957C30.0862 23.9288 30.653 23.7759 31.1683 23.5087C31.6835 23.2415 32.1351 22.8664 32.4922 22.4089C34.6133 19.7591 34.9037 16.8281 33.5261 13.8008C31.9362 10.3099 28.5156 8.63542 24.3607 9.24479C20.4453 9.81641 17.6484 12.0638 15.8477 15.4948C13.4518 20.0521 15.4466 25.5208 20.125 27.2969C22.8934 28.358 25.9033 28.6245 28.8151 28.0664C31.125 27.6341 33.112 26.6237 34.6602 24.8112C34.793 24.67 34.8926 24.501 34.9518 24.3164C35.0096 24.1342 34.9964 23.9368 34.9147 23.7639C34.8331 23.591 34.6892 23.4553 34.5117 23.3841C34.0846 23.1862 33.7305 23.3359 33.4336 23.6888C32.3086 25.0365 30.8594 25.8581 29.1758 26.2852C26.5117 26.9609 23.8789 26.7174 21.2813 25.9427C19.6185 25.4409 18.2138 24.3163 17.3605 22.8035C16.5072 21.2907 16.2712 19.5068 16.7018 17.8242C17.7982 13.4857 22.5938 10.2448 27.0156 10.8711C29.4896 11.2227 31.2747 12.5638 32.1797 14.8828C33.0599 17.1419 32.8177 19.3216 31.2747 21.276C31.0127 21.6321 30.6619 21.9132 30.2572 22.0912C29.8526 22.2692 29.4083 22.3379 28.9688 22.2904C28.3412 22.2396 28.1667 21.9766 28.3008 21.3516C28.7904 19.0642 29.2734 16.7752 29.75 14.4844C29.8581 13.9635 29.5899 13.5482 29.1185 13.4427C28.6471 13.3372 28.2461 13.6185 28.1224 14.1406C28.0716 14.3529 28.03 14.5664 27.9714 14.8438C27.8112 14.6758 27.7109 14.5586 27.5912 14.4466C27.0085 13.8705 26.26 13.4914 25.4508 13.3625C24.6416 13.2335 23.8123 13.3613 23.0794 13.7279C20.7005 14.9479 19.1094 17.8164 19.3385 20.4727C19.5365 22.7682 21.4596 24.2826 23.7513 23.974C24.8609 23.8209 25.8953 23.3262 26.7109 22.5586Z" fill="white"/>
<path d="M3.17056 48.3073L20.3854 34.0065C21.7109 35.168 23.2344 35.8294 25.0013 35.8294C26.7682 35.8294 28.2682 35.1914 29.612 34.0065L46.8346 48.3073H3.17056Z" fill="white"/>
<path d="M19.0859 32.918L1.69272 47.3672V18.4674L19.0859 32.918Z" fill="white"/>
<path d="M30.9167 32.9193L48.2969 18.4766V47.3581L30.9167 32.9193Z" fill="white"/>
<path d="M42.5169 21.1107V12.9727L47.7995 16.7201L42.5169 21.1107Z" fill="white"/>
<path d="M7.47917 21.1029L2.20312 16.7201L7.47917 12.9805V21.1029Z" fill="white"/>
<path d="M29.8854 4.15364H20.1198L20.0299 4.04427C20.1253 3.99846 20.2179 3.94716 20.3073 3.89062C20.9154 3.45703 21.5104 3.0039 22.1302 2.58854C23.7279 1.51562 25.4453 1.32552 27.1628 2.1875C28.151 2.68359 29.0234 3.41276 29.9479 4.03646L29.8854 4.15364Z" fill="white"/>
<path d="M26.711 22.5586C25.8932 23.3205 24.859 23.8096 23.7513 23.9583C21.4596 24.2669 19.5365 22.7526 19.3386 20.457C19.1094 17.8008 20.7005 14.9323 23.0794 13.7122C23.8123 13.3457 24.6416 13.2179 25.4508 13.3468C26.26 13.4757 27.0085 13.8549 27.5912 14.431C27.7044 14.543 27.8112 14.6602 27.9714 14.8281C28.03 14.5508 28.0716 14.3372 28.1224 14.125C28.2526 13.6042 28.655 13.3203 29.1185 13.4271C29.582 13.5339 29.8581 13.9479 29.75 14.4688C29.2734 16.7587 28.7904 19.0477 28.3008 21.3359C28.1706 21.9609 28.3412 22.224 28.9688 22.2747C29.4083 22.3222 29.8526 22.2536 30.2572 22.0756C30.6619 21.8976 31.0127 21.6165 31.2748 21.2604C32.8177 19.3073 33.0599 17.1263 32.1797 14.8672C31.2748 12.543 29.4948 11.207 27.0156 10.8555C22.5886 10.2292 17.7982 13.4701 16.7018 17.8086C16.2712 19.4912 16.5072 21.2751 17.3605 22.7879C18.2138 24.3006 19.6185 25.4253 21.2813 25.9271C23.8789 26.7018 26.5117 26.9453 29.1758 26.2695C30.8594 25.8424 32.3086 25.0208 33.4336 23.6732C33.7266 23.3203 34.0846 23.1706 34.5117 23.3685C34.6892 23.4397 34.8331 23.5754 34.9147 23.7483C34.9964 23.9212 35.0096 24.1185 34.9518 24.3008C34.8927 24.4854 34.793 24.6544 34.6602 24.7956C33.1185 26.6081 31.125 27.6185 28.8151 28.0508C25.9033 28.6089 22.8934 28.3424 20.125 27.2813C15.4466 25.5208 13.4518 20.0521 15.8477 15.487C17.6485 12.0599 20.4427 9.8125 24.3607 9.24479C28.513 8.63932 31.9362 10.3138 33.5261 13.8021C34.9037 16.8294 34.6133 19.7604 32.4922 22.4102C32.1351 22.8677 31.6835 23.2428 31.1683 23.51C30.653 23.7772 30.0862 23.9301 29.5065 23.9583C28.3125 24.0391 27.3138 23.7148 26.711 22.5586ZM20.9818 19.4453C20.9675 21.3867 21.8021 22.3529 23.1862 22.3333C24.0061 22.333 24.7961 22.0249 25.3998 21.4701C26.4154 20.5404 27.2044 19.4961 27.3529 18.0495C27.4011 17.5898 27.3985 17.1836 27.181 16.7917C27.0019 16.4466 26.7946 16.1169 26.5612 15.806C26.2427 15.3873 25.7825 15.099 25.2668 14.995C24.751 14.8909 24.2151 14.9784 23.7591 15.2409C22.9956 15.6702 22.3456 16.2758 21.8634 17.0071C21.3812 17.7384 21.0808 18.5744 20.987 19.4453H20.9818Z" fill="#007684"/>
<path d="M20.987 19.4453C21.0821 18.5731 21.3846 17.7364 21.8691 17.005C22.3536 16.2735 23.0061 15.6687 23.7721 15.2409C24.2281 14.9784 24.764 14.8909 25.2797 14.9949C25.7955 15.099 26.2557 15.3873 26.5742 15.806C26.8076 16.1169 27.0149 16.4466 27.194 16.7917C27.4114 17.1823 27.4141 17.5898 27.3659 18.0495C27.2161 19.4961 26.4271 20.5404 25.4127 21.47C24.8091 22.0249 24.0191 22.3329 23.1992 22.3333C21.8073 22.3529 20.9726 21.3867 20.987 19.4453Z" fill="white"/>
</svg>
