<svg width="150" height="60" viewBox="0 0 150 60" fill="none" xmlns="http://www.w3.org/2000/svg">
<g clip-path="url(#clip0_3_637)">
<path d="M6.75504 1.82638C14.8394 1.18319 22.4258 0.145644 30.0264 0.0658329C46.6883 -0.112569 63.3785 0.103391 80.0217 0.352215C84.4781 0.487907 88.9191 0.941324 93.3108 1.70901C95.5002 2.07675 97.595 2.87459 99.4739 4.0564C106.605 8.57749 113.566 13.3286 120.65 17.9483C121.59 18.519 122.597 18.9715 123.647 19.2957C129.402 21.2628 135.217 23.0515 140.915 25.1689C145.674 26.9388 148.093 30.5914 148.365 35.6852C148.422 36.7415 148.365 37.9199 149.69 38.5021C149.93 38.6101 149.962 39.3471 149.967 39.7978C149.991 43.0232 149.939 46.2532 150 49.4785C150 50.7132 149.558 51.117 148.347 51.0935C145.119 51.0325 141.887 51.0935 138.66 51.0935C136.11 51.0935 135.95 50.8963 136.039 48.3846C136.246 42.5631 133.845 38.0561 128.73 35.3425C123.689 32.643 118.611 33.028 113.97 36.4082C110.048 39.2579 108.211 43.2626 108.333 48.1217C108.409 50.8118 108.178 51.0935 105.548 51.0935H46.0354C43.3578 51.0935 43.2592 50.9855 43.3437 48.2766C43.5739 40.9668 38.6462 34.8354 31.6564 33.7838C28.226 33.2435 24.7178 34.0118 21.8279 35.9365C18.938 37.8611 16.8778 40.8012 16.0561 44.1734C15.7511 45.5442 15.6217 46.9483 15.6709 48.3517C15.7037 50.5113 15.2575 51.2156 13.0731 51.0419C9.28698 50.7414 5.5102 50.225 1.73343 49.779C0.493291 49.6334 -0.0563141 48.9715 0.00475322 47.6334C0.1034 45.4691 0.00475322 43.2955 0.0329381 41.1265C0.0329381 39.9856 -0.230121 38.7791 1.30126 38.2016C1.60659 38.0842 1.65357 37.0608 1.66766 36.4551C1.75691 32.1782 1.08517 27.7275 2.03407 23.6571C3.39164 17.8403 5.81554 12.2582 8.04215 6.6761C8.56357 5.36625 8.8783 4.53058 7.83546 3.50242C7.42977 2.97441 7.06841 2.41383 6.75504 1.82638ZM44.8046 49.624H106.952C107.46 39.164 112.787 32.7463 121.148 32.3284C125.069 32.0375 128.947 33.293 131.952 35.826C136.227 39.4363 137.815 44.1311 137.369 49.6428H148.642C148.642 46.3987 148.642 43.2908 148.642 40.1875C148.591 39.8578 148.481 39.5399 148.318 39.2485C147.947 38.3706 147.271 37.5068 147.233 36.6195C147.012 31.1641 144.283 27.5726 139.248 25.8214C134.113 24.0186 128.913 22.4553 123.746 20.7088C122.261 20.2397 120.841 19.5868 119.518 18.7652C112.984 14.507 106.506 10.1643 100.024 5.82634C97.1252 3.90697 93.7849 2.7581 90.3186 2.48834C87.688 2.2536 85.0621 1.91558 82.4315 1.78882C61.1284 0.755967 39.8347 0.544702 18.5457 2.11746C15.5017 2.31933 12.5001 2.76534 9.86477 3.0658C9.86477 4.31931 10.2124 5.46954 9.8131 6.21601C5.30351 14.6666 2.1562 23.4365 2.9078 33.2251C2.97826 34.1641 2.98296 35.103 3.03463 36.042C3.11449 37.4504 3.23662 38.8589 1.70524 39.765C1.45628 39.9058 1.4093 40.4739 1.4093 40.8448C1.4093 42.9527 1.32944 45.0701 1.45158 47.178C1.50967 47.4711 1.64028 47.7449 1.83146 47.9745C2.02265 48.2041 2.26833 48.3822 2.54609 48.4926C5.47732 49.0137 8.45552 49.4034 11.4055 49.7649C12.3535 49.8235 13.3042 49.8235 14.2522 49.7649C14.5951 39.0326 20.2744 32.4646 29.0305 32.305C38.3409 32.15 43.9779 38.3002 44.7952 49.624H44.8046Z" fill="#472B53"/>
<path d="M41.2862 47.4784C41.2967 49.0335 40.9998 50.5754 40.4127 52.0156C39.8255 53.4558 38.9595 54.7659 37.8645 55.8708C36.7694 56.9757 35.4668 57.8536 34.0315 58.4541C32.5961 59.0547 31.0562 59.366 29.5002 59.3703C26.3889 59.3453 23.4101 58.1085 21.1969 55.9229C18.9837 53.7373 17.7107 50.7752 17.6484 47.6662C17.6361 46.115 17.9296 44.5766 18.5121 43.1388C19.0947 41.7009 19.9549 40.3919 21.0437 39.2863C22.1324 38.1807 23.4284 37.3003 24.8576 36.6953C26.2868 36.0903 27.8213 35.7725 29.3734 35.7602C30.9254 35.7479 32.4647 36.0412 33.9034 36.6234C35.342 37.2056 36.6519 38.0654 37.7581 39.1535C38.8643 40.2416 39.7452 41.5369 40.3506 42.9653C40.9559 44.3937 41.2738 45.9272 41.2862 47.4784ZM29.3875 58.0182C31.4629 58.0412 33.4987 57.4489 35.2375 56.3161C36.9762 55.1832 38.34 53.5607 39.1565 51.6535C39.973 49.7463 40.2055 47.64 39.8246 45.6008C39.4438 43.5616 38.4667 41.681 37.0169 40.1965C35.567 38.7121 33.7094 37.6905 31.6788 37.2607C29.6482 36.831 27.5358 37.0125 25.6083 37.7822C23.6809 38.552 22.025 39.8754 20.8498 41.5853C19.6747 43.2953 19.0331 45.315 19.006 47.3892C18.9846 50.171 20.0634 52.8486 22.0077 54.8393C23.952 56.8299 26.6044 57.9725 29.3875 58.0182Z" fill="#472B53"/>
<path d="M122.214 35.7367C125.31 35.7984 128.258 37.0707 130.425 39.2805C132.593 41.4903 133.807 44.4614 133.807 47.5559C133.807 50.6503 132.593 53.6214 130.425 55.8312C128.258 58.041 125.31 59.3133 122.214 59.375C115.774 59.375 110.372 53.9948 110.391 47.638C110.378 46.0788 110.675 44.5325 111.264 43.0885C111.853 41.6445 112.722 40.3314 113.821 39.2248C114.92 38.1183 116.228 37.2404 117.669 36.6417C119.109 36.043 120.654 35.7355 122.214 35.7367ZM122.214 58.0135C124.971 57.9957 127.611 56.9034 129.574 54.9691C131.537 53.0347 132.666 50.4111 132.723 47.6568C132.779 41.901 128.025 37.0278 122.299 37.0325C120.902 36.9979 119.513 37.2422 118.212 37.7512C116.911 38.2601 115.725 39.0234 114.723 39.9964C113.721 40.9694 112.923 42.1325 112.376 43.4175C111.83 44.7025 111.545 46.0836 111.54 47.4799C111.534 48.8761 111.808 50.2595 112.344 51.5489C112.88 52.8382 113.668 54.0077 114.662 54.9887C115.656 55.9697 116.836 56.7426 118.133 57.262C119.43 57.7814 120.818 58.0369 122.214 58.0135Z" fill="#472B53"/>
<path d="M44.7951 49.6239C43.9778 38.3001 38.3408 32.1499 29.0304 32.3189C20.2743 32.4786 14.595 39.0466 14.2521 49.7648C13.3041 49.8234 12.3534 49.8234 11.4054 49.7648C8.44133 49.408 5.47722 49.0183 2.5366 48.5066C2.25884 48.3962 2.01316 48.2181 1.82197 47.9885C1.63078 47.7589 1.50018 47.4851 1.44208 47.192C1.31995 45.07 1.37632 42.962 1.4092 40.8447C1.4092 40.4644 1.46557 39.9057 1.70044 39.7508C3.23182 38.8635 3.10969 37.455 3.02983 36.0278C2.97816 35.0889 2.97346 34.1499 2.903 33.2109C2.1514 23.4223 5.29872 14.6524 9.8083 6.20182C10.2076 5.45535 9.85997 4.32391 9.85997 3.05162C12.5094 2.75115 15.497 2.30515 18.4892 2.08449C39.7782 0.511737 61.0719 0.723002 82.375 1.75586C85.0056 1.88262 87.6315 2.22533 90.2621 2.45538C93.7284 2.72514 97.0687 3.87401 99.9671 5.79338C106.45 10.1314 112.927 14.474 119.462 18.7322C120.784 19.5538 122.205 20.2068 123.689 20.6759C128.857 22.4223 134.061 23.9622 139.191 25.7885C144.241 27.5584 146.97 31.1499 147.177 36.5865C147.214 37.4738 147.891 38.3377 148.262 39.2156C148.425 39.5069 148.534 39.8248 148.586 40.1545C148.609 43.2578 148.586 46.3657 148.586 49.6098H137.312C137.815 44.131 136.227 39.4362 131.929 35.8259C128.924 33.2929 125.045 32.0374 121.125 32.3283C112.763 32.7462 107.436 39.1639 106.929 49.6239H44.7951ZM63.773 20.8167V21.4552C67.7048 21.4552 71.6319 21.4552 75.5637 21.4552C78.1848 21.4552 79.0633 20.6665 79.1149 18.0421C79.1807 14.6994 79.1995 11.3567 79.2277 8.01401C79.2559 4.99057 78.6687 4.10795 75.6717 3.99058C67.592 3.68072 59.503 3.5211 51.4139 3.40373C49.4597 3.37556 48.5625 4.4225 48.5484 6.4037C48.5202 10.1595 48.5202 13.9154 48.5484 17.6712C48.5484 19.8496 49.4175 20.7744 51.6347 20.8073C55.6792 20.859 59.7284 20.8167 63.773 20.8167ZM30.0967 19.9716V20.3801C31.9757 20.3801 33.8547 20.3801 35.7337 20.3801C37.6127 20.3801 39.5997 20.4975 41.5351 20.5444C44.006 20.6054 44.9502 19.7134 45.0206 17.2111C45.1146 13.8121 45.1709 10.4084 45.2602 7.00933C45.3401 4.24879 44.5556 3.25349 41.8404 3.32392C35.4519 3.48823 29.068 3.71828 22.6888 4.07039C16.1405 4.43189 17.6437 4.46944 14.6514 9.6478C12.9039 12.6665 13.0684 15.1125 14.952 17.8684C15.8915 19.2252 16.831 19.9857 18.4892 19.9716C22.3553 19.9435 26.226 19.9716 30.0967 19.9716ZM82.483 13.0374H82.6193C82.6193 15.2111 82.6193 17.3801 82.6193 19.5491C82.6193 20.8308 83.1783 21.4693 84.5217 21.5162C87.5751 21.6242 90.6285 21.8261 93.6677 21.9857C98.3652 22.2017 103.063 22.4552 107.76 22.5679C108.333 22.5679 109.376 22.0045 109.423 21.6289C109.738 18.9904 109.475 16.4646 107.074 14.6665C104.923 13.0374 102.729 11.4506 100.69 9.69005C96.0494 5.63375 90.511 4.61968 84.6251 4.59151C83.1407 4.59151 82.4642 5.23 82.4783 6.70416C82.5018 8.81212 82.483 10.9248 82.483 13.0374ZM128.518 25.9481L128.439 26.3096C128.148 26.279 127.855 26.279 127.565 26.3096C126.87 26.4551 126.184 26.657 125.498 26.8354C126.015 27.3706 126.437 28.0889 127.067 28.4035C130.675 30.2157 134.277 32.0654 138.007 33.61C139.496 34.2297 141.296 34.1499 142.958 34.272C143.175 34.231 143.378 34.1371 143.549 33.9987C143.72 33.8602 143.855 33.6815 143.94 33.4785C144.264 32.3424 142.202 28.7556 141.047 28.5068C136.861 27.6241 132.676 26.8026 128.5 25.9481H128.518ZM8.04674 21.4411C5.58526 21.3237 5.56178 21.3472 5.22825 23.8308C5.03303 24.7956 4.92611 25.7761 4.90882 26.7603C4.9707 27.0352 5.10017 27.2904 5.28554 27.5027C5.4709 27.715 5.70631 27.8778 5.97046 27.9763C8.60574 28.4457 12.2886 26.2016 13.4254 23.6711C14.0078 22.3801 13.6039 21.7932 12.2369 21.7369C10.8699 21.6805 9.44189 21.5444 8.04674 21.4411ZM87.9932 29.1875C88.7495 29.1875 89.5105 29.2251 90.2621 29.1875C90.4828 29.1875 90.8868 28.826 90.8587 28.718C90.7741 28.4363 90.5345 27.995 90.3372 27.9856C88.8293 27.9199 87.3167 27.9152 85.8136 27.9856C85.5928 27.9856 85.3861 28.4176 85.1747 28.6476C85.419 28.8401 85.6444 29.1687 85.9028 29.1969C86.5992 29.2337 87.2971 29.2306 87.9932 29.1875Z" fill="white"/>
<path d="M29.3875 58.0182C27.3127 57.9978 25.2905 57.3634 23.5763 56.1951C21.862 55.0269 20.5326 53.3772 19.7557 51.4544C18.9789 49.5315 18.7896 47.4218 19.2116 45.3915C19.6337 43.3612 20.6482 41.5014 22.1271 40.0469C23.606 38.5924 25.4829 37.6085 27.5209 37.2194C29.5589 36.8303 31.6666 37.0534 33.5778 37.8606C35.489 38.6678 37.118 40.0228 38.2592 41.7547C39.4004 43.4865 40.0026 45.5175 39.9897 47.5911C39.9798 48.9719 39.6977 50.3371 39.1593 51.6088C38.6209 52.8805 37.8369 54.0336 36.8522 55.0021C35.8674 55.9706 34.7012 56.7355 33.4203 57.253C32.1394 57.7706 30.769 58.0306 29.3875 58.0182ZM29.4203 51.7131C29.9767 51.7237 30.5297 51.6244 31.0476 51.4209C31.5655 51.2174 32.0381 50.9137 32.4383 50.5272C32.8385 50.1408 33.1585 49.6792 33.3798 49.1689C33.6011 48.6586 33.7194 48.1096 33.7279 47.5535C33.7147 46.4344 33.2659 45.3644 32.4767 44.5704C31.6874 43.7764 30.6199 43.3207 29.5002 43.3C28.4039 43.3094 27.3542 43.7441 26.5724 44.5122C25.7906 45.2804 25.338 46.322 25.31 47.4174C25.2893 47.9713 25.38 48.5237 25.5768 49.042C25.7737 49.5602 26.0726 50.0336 26.4559 50.4343C26.8392 50.8349 27.2991 51.1545 27.8084 51.3742C28.3176 51.5938 28.8657 51.7091 29.4203 51.7131Z" fill="white"/>
<path d="M122.205 58.0135C120.808 58.0369 119.421 57.7814 118.124 57.262C116.827 56.7426 115.647 55.9697 114.653 54.9887C113.659 54.0077 112.87 52.8382 112.334 51.5489C111.798 50.2595 111.525 48.8761 111.53 47.4799C111.536 46.0836 111.821 44.7025 112.367 43.4175C112.914 42.1325 113.711 40.9694 114.713 39.9964C115.715 39.0234 116.901 38.2601 118.202 37.7512C119.503 37.2422 120.893 36.9979 122.29 37.0325C127.992 37.0325 132.77 41.901 132.713 47.6568C132.657 50.4111 131.527 53.0347 129.565 54.9691C127.602 56.9034 124.961 57.9957 122.205 58.0135ZM122.205 51.7131C123.326 51.7131 124.402 51.2679 125.194 50.4755C125.987 49.6831 126.433 48.6084 126.433 47.4878C126.352 46.4298 125.875 45.4411 125.098 44.7181C124.321 43.9951 123.3 43.5908 122.239 43.5855C121.177 43.5801 120.152 43.9742 119.368 44.6894C118.584 45.4046 118.097 46.3884 118.005 47.4455C117.995 48.001 118.095 48.553 118.3 49.0694C118.505 49.5858 118.811 50.0563 119.199 50.4534C119.588 50.8506 120.052 51.1665 120.564 51.3828C121.076 51.5991 121.626 51.7113 122.182 51.7131H122.205Z" fill="white"/>
<path d="M63.773 20.8167C59.7284 20.8167 55.6792 20.8589 51.6347 20.8167C49.4175 20.7838 48.5625 19.8777 48.5484 17.6806C48.5265 13.9247 48.5265 10.1689 48.5484 6.41308C48.5484 4.43188 49.4597 3.38494 51.4139 3.41311C59.503 3.53987 67.592 3.69011 75.6717 3.99996C78.6687 4.11733 79.2559 4.99995 79.2277 8.0234C79.1995 11.3661 79.1807 14.7088 79.1149 18.0515C79.0633 20.6759 78.1754 21.474 75.5636 21.4646C71.6319 21.4646 67.7048 21.4646 63.773 21.4646V20.8167ZM63.9421 19.535V20.1125C67.8128 20.1125 71.6882 20.0655 75.5589 20.1125C77.1279 20.1406 77.8137 19.5961 77.7996 17.9857C77.7715 14.4646 77.7996 10.9436 77.8889 7.42716C77.9359 5.97177 77.2782 5.33328 75.9629 5.29572C67.9302 5.06098 59.8975 4.85911 51.8695 4.64784C50.3617 4.61028 49.8308 5.37554 49.859 6.845C49.9201 10.3051 49.9389 13.7698 49.859 17.2299C49.812 18.9341 50.5449 19.5397 52.1514 19.5256C56.0785 19.5162 60.0103 19.535 63.9421 19.535Z" fill="#472B53"/>
<path d="M30.0968 19.9716C26.226 19.9716 22.3553 19.9435 18.4846 19.9716C16.8405 19.9716 15.8728 19.2252 14.9474 17.8684C13.0684 15.1125 12.8993 12.6665 14.6468 9.64779C17.6391 4.48353 16.1359 4.43188 22.6841 4.07038C29.0633 3.72766 35.4472 3.49762 41.8358 3.3333C44.5509 3.26288 45.3354 4.27226 45.2555 7.01871C45.1663 10.4177 45.1099 13.8215 45.016 17.2205C44.9455 19.7228 44.0013 20.6148 41.5304 20.5538C39.5951 20.5068 37.6644 20.4176 35.7291 20.3895C33.7937 20.3613 31.9711 20.3895 30.0921 20.3895L30.0968 19.9716ZM29.9652 18.5961V19.2486C33.836 19.2486 37.702 19.2205 41.5727 19.2486C42.935 19.2486 43.6443 18.8167 43.6631 17.3426C43.7148 13.8262 43.7993 10.3004 43.9637 6.79806C44.0389 5.15957 43.2873 4.54925 41.7747 4.60559C35.4519 4.85441 29.1291 5.3145 22.8063 5.28633C19.0483 5.28633 17.3337 6.99993 15.8023 10.1924C14.4823 12.9482 14.4354 15.1219 16.2721 17.3519C16.7896 17.9961 17.5309 18.4219 18.3484 18.5444C22.2285 18.6571 26.0992 18.5961 29.9652 18.5961Z" fill="#472B53"/>
<path d="M82.4831 13.0374C82.4831 10.9248 82.4831 8.81212 82.4831 6.70416C82.4831 5.23 83.1454 4.58212 84.6298 4.59151C90.5158 4.61968 96.0541 5.62906 100.7 9.65249C102.739 11.413 104.928 12.9999 107.084 14.629C109.461 16.4271 109.724 18.9529 109.433 21.5913C109.386 21.9904 108.343 22.5679 107.77 22.5303C103.072 22.4035 98.3747 22.1641 93.6772 21.9481C90.6285 21.8026 87.5705 21.6007 84.5312 21.4787C83.1877 21.4317 82.624 20.7932 82.6287 19.5115C82.6287 17.3426 82.6287 15.1736 82.6287 12.9999L82.4831 13.0374ZM108.005 21.2815C108.31 19.1829 108.253 17.2909 106.595 15.9998C103.067 13.291 99.549 10.521 95.8427 8.09852C92.2539 5.75112 88.0402 6.2206 84.0333 5.91544V20.1876L108.005 21.2815Z" fill="#472B53"/>
<path d="M128.5 25.9481C132.676 26.8026 136.861 27.6241 141.028 28.5208C142.183 28.7697 144.246 32.3565 143.921 33.4926C143.834 33.693 143.699 33.8689 143.528 34.0047C143.357 34.1406 143.155 34.2324 142.94 34.272C141.272 34.1499 139.478 34.2297 137.989 33.61C134.259 32.0654 130.656 30.2157 127.048 28.4035C126.419 28.0889 125.996 27.3706 125.479 26.8354C126.165 26.657 126.851 26.4551 127.546 26.3096C127.836 26.279 128.129 26.279 128.42 26.3096L128.5 25.9481ZM142.099 33.2203L142.446 32.7133C141.977 31.7743 141.643 30.2016 140.948 30.0091C137.19 28.9575 133.333 28.2486 129.51 27.4223C129.453 27.6335 129.402 27.8448 129.345 28.0561C132.281 29.4645 135.184 30.9481 138.162 32.2438C139.388 32.7743 140.784 32.9058 142.099 33.2203Z" fill="#472B53"/>
<path d="M8.04679 21.4411C9.45604 21.5444 10.8418 21.6711 12.2369 21.751C13.6321 21.8308 14.0079 22.3941 13.4254 23.6852C12.2886 26.2157 8.60579 28.4363 5.97051 27.9903C5.70465 27.8905 5.46812 27.7256 5.28263 27.5107C5.09714 27.2958 4.96862 27.0378 4.90887 26.7603C4.93149 25.7708 5.04471 24.7855 5.24709 23.8167C5.56182 21.3472 5.58531 21.3237 8.04679 21.4411ZM6.21477 26.6805C8.84067 26.3425 10.8606 25.5913 12.1806 23.0749L6.75968 22.7744L6.21477 26.6805Z" fill="#472B53"/>
<path d="M87.9932 29.1875C87.2965 29.2181 86.5985 29.2086 85.9028 29.1593C85.6445 29.1312 85.4331 28.8025 85.1747 28.61C85.3861 28.38 85.5928 27.9575 85.8136 27.9481C87.3168 27.8964 88.8294 27.9011 90.3373 27.9481C90.5346 27.9481 90.7741 28.4176 90.8587 28.6805C90.8869 28.7697 90.4829 29.1124 90.2621 29.1499C89.5105 29.211 88.7495 29.1499 87.9932 29.1499V29.1875Z" fill="#472B53"/>
<path d="M29.4203 51.7131C28.8657 51.7091 28.3176 51.5938 27.8083 51.3742C27.2991 51.1545 26.8392 50.8349 26.4559 50.4343C26.0726 50.0336 25.7737 49.5602 25.5768 49.042C25.38 48.5237 25.2893 47.9713 25.31 47.4174C25.3403 46.3261 25.792 45.2889 26.5705 44.5231C27.349 43.7573 28.3938 43.3224 29.4861 43.3094C30.6058 43.3301 31.6733 43.7857 32.4626 44.5798C33.2518 45.3738 33.7006 46.4438 33.7138 47.5629C33.6941 48.6819 33.2309 49.7474 32.4259 50.5255C31.621 51.3036 30.54 51.7307 29.4203 51.7131ZM32.3657 47.4455C32.3363 46.6813 32.0057 45.9597 31.446 45.4381C30.8863 44.9166 30.1429 44.6374 29.3781 44.6615C28.9995 44.6751 28.6275 44.7647 28.2844 44.9251C27.9412 45.0856 27.634 45.3135 27.381 45.5953C27.128 45.8771 26.9344 46.2069 26.8118 46.5652C26.6893 46.9234 26.6402 47.3027 26.6676 47.6803C26.6791 48.0441 26.7625 48.402 26.913 48.7335C27.0634 49.065 27.278 49.3634 27.5443 49.6117C27.8106 49.86 28.1234 50.0532 28.4647 50.1802C28.8061 50.3072 29.1691 50.3654 29.5331 50.3516C29.912 50.3537 30.2875 50.2794 30.637 50.1331C30.9866 49.9869 31.303 49.7717 31.5675 49.5004C31.8319 49.2291 32.0389 48.9073 32.176 48.5542C32.3132 48.2012 32.3777 47.8241 32.3657 47.4455Z" fill="#472B53"/>
<path d="M122.181 51.7131C121.626 51.7126 121.076 51.6016 120.564 51.3868C120.052 51.172 119.588 50.8575 119.198 50.4617C118.809 50.0659 118.502 49.5967 118.295 49.0813C118.089 48.5659 117.987 48.0147 117.996 47.4596C118.088 46.4025 118.574 45.4186 119.358 44.7035C120.143 43.9883 121.167 43.5942 122.229 43.5996C123.291 43.6049 124.312 44.0092 125.089 44.7322C125.866 45.4552 126.342 46.4439 126.423 47.5019C126.421 48.0568 126.31 48.6058 126.096 49.1178C125.882 49.6297 125.569 50.0945 125.175 50.4855C124.781 50.8766 124.314 51.1862 123.8 51.3969C123.287 51.6075 122.737 51.715 122.181 51.7131ZM122.073 50.3516C122.451 50.3772 122.831 50.3255 123.188 50.1998C123.545 50.0741 123.873 49.8769 124.152 49.6204C124.431 49.3639 124.654 49.0533 124.809 48.7076C124.963 48.362 125.046 47.9885 125.052 47.6099C125.062 46.8716 124.785 46.1582 124.279 45.6204C123.773 45.0826 123.077 44.7626 122.339 44.7278C121.601 44.6931 120.879 44.9464 120.324 45.4343C119.77 45.9221 119.427 46.6063 119.368 47.3423C119.337 47.7197 119.383 48.0995 119.505 48.4584C119.626 48.8172 119.819 49.1476 120.072 49.4293C120.325 49.711 120.633 49.9381 120.978 50.0967C121.322 50.2553 121.695 50.342 122.073 50.3516Z" fill="#472B53"/>
<path d="M63.9421 19.535C60.0103 19.535 56.0785 19.535 52.1467 19.535C50.5402 19.535 49.798 18.9435 49.8544 17.2393C49.9389 13.7792 49.9201 10.3145 49.8544 6.85439C49.8262 5.38493 50.357 4.61968 51.8649 4.65723C59.8929 4.8685 67.9256 5.07037 75.9583 5.30511C77.2736 5.34267 77.9312 5.98116 77.8842 7.43655C77.7809 10.9529 77.7668 14.4787 77.795 17.9951C77.795 19.6054 77.1232 20.15 75.5543 20.1219C71.6836 20.0514 67.8081 20.1219 63.9374 20.1219L63.9421 19.535Z" fill="white"/>
<path d="M29.9652 18.5961C26.0992 18.5961 22.2285 18.6571 18.3625 18.5444C17.5478 18.4267 16.8069 18.0079 16.2862 17.3707C14.4354 15.1407 14.4823 12.967 15.8164 10.2112C17.3478 7.01871 19.0483 5.28634 22.8204 5.30511C29.1432 5.33328 35.466 4.87319 41.7888 4.62437C43.3014 4.56803 44.053 5.17836 43.9778 6.81684C43.8134 10.3285 43.7289 13.859 43.6772 17.3613C43.6772 18.8355 42.9491 19.2815 41.5868 19.2674C37.7161 19.2252 33.8501 19.2674 29.9793 19.2674L29.9652 18.5961Z" fill="white"/>
<path d="M108.005 21.2815L84.0098 20.1876V5.91544C88.0167 6.20651 92.2304 5.7652 95.8192 8.09851C99.5396 10.521 103.044 13.291 106.572 15.9998C108.253 17.2909 108.31 19.1829 108.005 21.2815Z" fill="white"/>
<path d="M142.099 33.2203C140.784 32.9058 139.388 32.7508 138.162 32.2438C135.184 30.9481 132.281 29.4645 129.345 28.0561C129.402 27.8448 129.453 27.6335 129.51 27.4223C133.333 28.2485 137.185 28.9575 140.948 30.0091C141.643 30.2016 141.958 31.7743 142.446 32.7133L142.099 33.2203Z" fill="white"/>
<path d="M6.21472 26.6805L6.75963 22.7744L12.1805 23.0749C10.8605 25.5913 8.84061 26.3425 6.21472 26.6805Z" fill="white"/>
<path d="M32.3656 47.4455C32.3776 47.8229 32.3135 48.1988 32.1773 48.5509C32.041 48.903 31.8353 49.2242 31.5724 49.4953C31.3094 49.7664 30.9947 49.9819 30.6468 50.129C30.2989 50.2761 29.9249 50.3518 29.5472 50.3516C29.1832 50.3654 28.8202 50.3072 28.4788 50.1802C28.1375 50.0532 27.8247 49.86 27.5584 49.6117C27.2921 49.3634 27.0775 49.065 26.927 48.7335C26.7766 48.402 26.6932 48.0441 26.6817 47.6803C26.6543 47.3027 26.7034 46.9234 26.8259 46.5652C26.9485 46.2069 27.1421 45.8771 27.3951 45.5953C27.6481 45.3135 27.9553 45.0856 28.2985 44.9251C28.6416 44.7647 29.0136 44.6751 29.3921 44.6615C30.1546 44.6412 30.8943 44.9221 31.451 45.4432C32.0076 45.9644 32.3363 46.6838 32.3656 47.4455Z" fill="white"/>
<path d="M122.073 50.3516C121.695 50.342 121.322 50.2553 120.978 50.0967C120.633 49.9381 120.325 49.711 120.072 49.4293C119.819 49.1476 119.626 48.8172 119.505 48.4584C119.383 48.0995 119.337 47.7197 119.368 47.3423C119.427 46.6063 119.77 45.9221 120.324 45.4342C120.879 44.9464 121.601 44.6931 122.339 44.7278C123.077 44.7626 123.773 45.0826 124.279 45.6204C124.785 46.1582 125.062 46.8716 125.052 47.6099C125.046 47.9885 124.964 48.362 124.809 48.7076C124.654 49.0533 124.431 49.3639 124.152 49.6204C123.873 49.8769 123.545 50.0741 123.188 50.1998C122.831 50.3255 122.451 50.3772 122.073 50.3516Z" fill="white"/>
</g>
<defs>
<clipPath id="clip0_3_637">
<rect width="150" height="59.375" fill="white"/>
</clipPath>
</defs>
</svg>
