<svg width="150" height="94" viewBox="0 0 150 94" fill="none" xmlns="http://www.w3.org/2000/svg">
<g clip-path="url(#clip0_3_559)">
<path d="M150 47.1673C149.826 49.4927 149.604 51.8142 149.482 54.1396C149.066 61.9725 148.69 69.8054 148.294 77.6383C148.164 80.2755 147.764 80.7335 145.065 81.1915C145.065 84.2236 145.065 87.2833 145.065 90.343C145.065 93.0632 144.413 93.7225 141.718 93.7265C134.049 93.7265 126.382 93.7265 118.715 93.7265C116.1 93.7265 115.403 93.0237 115.391 90.4575C115.391 89.7745 115.372 89.0915 115.391 88.4085C115.451 86.8648 116.298 85.8857 117.619 85.8028C118.878 85.7238 119.879 86.6753 120.1 88.1716C120.132 88.4045 120.148 88.6375 120.176 88.9336H140.222V81.1718H9.72632V88.9178H29.7925C29.8281 88.5467 29.84 88.2111 29.9033 87.8874C29.988 87.304 30.2832 86.7715 30.7335 86.3899C31.1837 86.0083 31.7581 85.8037 32.3488 85.8146C32.9424 85.8487 33.5008 86.1067 33.9108 86.5363C34.3208 86.9659 34.5518 87.535 34.5568 88.1282C34.6162 89.0007 34.5924 89.8811 34.5806 90.7576C34.5529 92.9448 33.7892 93.7304 31.5534 93.7344C24.5231 93.7502 17.4901 93.7502 10.4544 93.7344C9.52847 93.7344 8.59856 93.7541 7.68448 93.7344C5.74552 93.6752 4.91454 92.8816 4.91454 90.9431C4.88684 87.7334 4.91454 84.5197 4.91454 81.5271C3.90154 80.9665 2.79356 80.6782 2.27123 79.9479C1.7489 79.2175 1.73703 78.1239 1.68559 77.1842C1.09599 66.5877 0.5143 55.9833 0.0236252 45.3749C-0.395822 35.876 5.08865 28.501 13.9287 26.602C15.9072 26.1796 17.8858 26.0848 19.8643 26.7284C21.8428 27.3719 23.7818 27.8299 25.7999 28.3905C27.4737 25.1886 29.0961 22.0736 30.7145 18.9863C32.6931 15.1883 34.6281 11.3666 36.6501 7.5962C39.3132 2.67301 43.4562 0.035721 49.0911 0.0238769C66.328 -0.0103394 83.5662 -0.0103394 100.806 0.0238769C106.504 0.0238769 110.698 2.66511 113.342 7.66332C116.713 14.0302 120.037 20.4247 123.314 26.8468C123.923 28.0312 124.501 28.5484 125.838 27.9681C126.803 27.6268 127.789 27.3485 128.79 27.135C135.616 25.2242 142.359 27.6009 146.597 33.3295C148.445 35.8246 149.327 38.6712 149.996 41.6204L150 47.1673ZM6.35887 76.2367H143.57C143.633 75.5221 143.712 74.8983 143.744 74.2627C144.246 64.3926 144.777 54.5225 145.228 44.6327C145.386 41.1584 144.5 37.921 142.062 35.343C138.896 31.999 135.177 30.1197 130.401 31.6002C128.679 32.1372 126.926 32.5715 125.185 33.0492L114.897 35.8483C113.789 36.1484 112.693 35.9431 112.246 34.9126C111.919 34.0967 111.925 33.1859 112.261 32.3741C112.57 31.77 113.544 31.3989 114.295 31.1502C115.938 30.6014 117.631 30.1987 119.408 29.7091C119.151 29.1485 118.988 28.7537 118.791 28.3747C115.546 22.1526 112.329 15.9305 109.056 9.73209C107.311 6.42364 104.521 4.74572 100.746 4.74572H49.1979C45.4387 4.74572 42.653 6.43153 40.8881 9.73999C37.6394 15.9423 34.4262 22.1644 31.1735 28.3826C30.9638 28.7774 30.7778 29.2117 30.58 29.7052C32.697 30.3053 34.636 30.7869 36.5156 31.4107C36.8155 31.4867 37.0965 31.6234 37.341 31.8125C37.5856 32.0016 37.7884 32.239 37.937 32.5098C38.0855 32.7806 38.1765 33.0791 38.2042 33.3865C38.232 33.694 38.196 34.0038 38.0984 34.2968C37.7541 35.5167 36.6184 36.1523 35.2216 35.876C34.8259 35.8049 34.4619 35.6904 34.0859 35.5878C28.8231 34.1428 23.5602 32.686 18.2933 31.2449C17.6851 31.0815 17.0544 31.0176 16.4256 31.0554C9.49681 31.5331 4.39617 37.5065 4.74835 44.8025C5.11635 52.5367 5.51997 60.2709 5.91568 68.0051C6.04626 70.7253 6.2085 73.4336 6.36678 76.2367H6.35887Z" fill="#472B53"/>
<path d="M136.645 16.7594C137.959 16.7594 139.272 16.7199 140.602 16.7594C142.106 16.8226 143.036 17.7622 143.028 19.1282C143.02 20.4942 142.09 21.422 140.574 21.4457C137.905 21.4931 135.231 21.4931 132.553 21.4457C131.073 21.4181 130.096 20.4192 130.104 19.1045C130.112 17.7898 131.093 16.866 132.577 16.7633H136.661L136.645 16.7594Z" fill="#472B53"/>
<path d="M13.454 16.7594C14.7677 16.7594 16.0815 16.7199 17.411 16.7594C18.8949 16.8147 19.8802 17.7819 19.8881 19.0887C19.8961 20.3955 18.9187 21.4023 17.4348 21.4299C14.7651 21.4773 12.0914 21.4773 9.41382 21.4299C7.90223 21.4062 6.97232 20.4587 6.96441 19.1124C6.95649 17.7661 7.8864 16.8186 9.39008 16.7436C10.7473 16.716 12.1086 16.7594 13.454 16.7594Z" fill="#472B53"/>
<path d="M6.36691 76.2365C6.20863 73.4413 6.04639 70.7093 5.90789 68.0049C5.51219 60.2707 5.11648 52.5365 4.74056 44.8023C4.3963 37.5063 9.49694 31.533 16.4218 31.0829C17.0505 31.045 17.6813 31.109 18.2895 31.2724C23.5563 32.6976 28.8192 34.1544 34.0821 35.6152C34.4778 35.7179 34.8339 35.8324 35.2178 35.9034C36.6146 36.1679 37.7503 35.5323 38.0946 34.3242C38.1922 34.0313 38.2282 33.7214 38.2004 33.414C38.1726 33.1065 38.0817 32.8081 37.9331 32.5373C37.7846 32.2665 37.5817 32.0291 37.3372 31.84C37.0926 31.6509 36.8116 31.5141 36.5117 31.4382C34.6203 30.8144 32.6813 30.3327 30.5762 29.7326C30.7938 29.2391 30.9719 28.8128 31.1697 28.4101C34.4264 22.1643 37.6395 15.9422 40.908 9.73981C42.6531 6.43135 45.4388 4.74949 49.2178 4.74554H100.762C104.522 4.74554 107.311 6.42346 109.072 9.73191C112.345 15.9303 115.57 22.1524 118.807 28.3706C119.004 28.7654 119.167 29.1602 119.424 29.705C117.647 30.1946 115.954 30.5973 114.311 31.146C113.56 31.3948 112.586 31.7659 112.277 32.3699C111.935 33.1842 111.927 34.0999 112.254 34.9204C112.701 35.9508 113.797 36.1561 114.905 35.856L125.193 33.0569C126.934 32.5792 128.687 32.1449 130.409 31.608C135.185 30.1274 138.904 32.0028 142.07 35.3507C144.508 37.9248 145.394 41.1662 145.236 44.6404C144.785 54.5105 144.254 64.3806 143.752 74.2704C143.72 74.8981 143.641 75.5219 143.578 76.2444L6.36691 76.2365ZM98.9619 65.3242C98.9619 66.6073 98.9619 67.7206 98.9619 68.83C98.9976 70.4882 99.8404 71.4752 101.214 71.5226C102.67 71.57 103.631 70.5711 103.675 68.8695C103.718 67.314 103.675 65.7545 103.675 64.199C103.675 61.159 103.054 60.5391 99.9829 60.5391H49.942C49.5463 60.5391 49.1506 60.5391 48.7549 60.5391C47.172 60.6497 46.3292 61.4551 46.2777 63.0382C46.2197 65.0307 46.2197 67.0258 46.2777 69.0235C46.3252 70.5553 47.263 71.4831 48.6124 71.5028C49.9618 71.5226 50.9312 70.5514 50.9866 68.9366C51.0262 67.7522 50.9866 66.5441 50.9866 65.3084L98.9619 65.3242ZM75.1326 31.2921H46.7209C46.1354 31.2728 45.5493 31.2992 44.968 31.3711C44.45 31.4251 43.9699 31.6667 43.6184 32.0501C43.2669 32.4335 43.0685 32.9322 43.0607 33.4517C42.979 33.9664 43.0938 34.4929 43.3825 34.9271C43.6712 35.3614 44.1127 35.6717 44.6197 35.7968C45.2787 35.9646 45.9582 36.0377 46.6378 36.014C65.5341 36.014 84.429 36.014 103.323 36.014C105.8 36.014 106.959 35.2244 106.935 33.5978C106.912 31.9712 105.808 31.2842 103.41 31.2842L75.1326 31.2921ZM29.5236 53.6933C24.1816 53.6933 18.9662 53.6933 13.7508 53.6933C13.0708 53.6705 12.3908 53.7382 11.7287 53.8946C11.2472 54.013 10.8235 54.2984 10.5335 54.6998C10.2435 55.1013 10.1061 55.5925 10.1459 56.0858C10.1202 56.5777 10.2657 57.0634 10.5577 57.4605C10.8498 57.8577 11.2705 58.1419 11.7485 58.2651C12.1741 58.3865 12.6158 58.4424 13.0583 58.4309C19.3065 58.4309 25.5507 58.4625 31.7949 58.4309C33.999 58.4309 34.8142 57.4241 34.6638 55.1738C34.1652 47.7515 28.1901 42.1729 20.4817 41.9834C17.8503 41.9202 15.2109 41.9597 12.5676 41.9834C12.0805 41.9847 11.5959 42.0524 11.1272 42.1847C10.648 42.3059 10.2268 42.5914 9.93735 42.9913C9.64795 43.3912 9.50885 43.88 9.54442 44.372C9.54442 45.5011 10.1182 46.346 11.2816 46.5908C11.8553 46.7007 12.4385 46.7536 13.0227 46.7487C15.8995 46.7921 18.7841 46.7131 21.653 46.8671C25.3251 47.0685 28.6095 49.9347 29.5236 53.6933ZM120.445 53.6933C121.391 49.9229 124.659 47.0685 128.335 46.8829C131.402 46.725 134.48 46.8197 137.551 46.7605C139.411 46.725 140.456 45.8288 140.452 44.3917C140.448 42.9546 139.391 42.0229 137.539 42.0229C134.809 41.9913 132.075 41.9439 129.344 42.0229C121.877 42.244 116.021 47.6212 115.344 54.7592C115.079 57.5742 115.886 58.4506 118.783 58.4546C124.637 58.4546 130.492 58.4546 136.348 58.4546C136.878 58.4602 137.408 58.4192 137.931 58.3322C138.474 58.2723 138.973 58.0049 139.323 57.5861C139.672 57.1672 139.846 56.6295 139.807 56.0858C139.807 54.8777 139.174 54.0407 137.939 53.8354C137.168 53.7261 136.39 53.6799 135.612 53.6972C130.606 53.6933 125.589 53.6933 120.445 53.6933ZM75.0732 43.9258C70.8748 43.9258 66.6763 43.9258 62.4819 43.9258C60.535 43.9258 59.431 44.8299 59.4745 46.3302C59.5141 47.7673 60.5983 48.624 62.4581 48.6279C70.8049 48.6279 79.1503 48.6279 87.4944 48.6279C89.4175 48.6279 90.5413 47.6962 90.4978 46.2078C90.4543 44.7194 89.3898 43.9298 87.5181 43.9258C83.3672 43.9179 79.2202 43.9258 75.0732 43.9258Z" fill="white"/>
<path d="M98.9659 65.3242H51.0025C51.0025 66.5599 51.0341 67.7561 51.0025 68.9524C50.955 70.5671 50.033 71.5344 48.6283 71.5186C47.2235 71.5028 46.3411 70.5711 46.2936 69.0393C46.2356 67.0442 46.2356 65.0491 46.2936 63.054C46.345 61.4748 47.1998 60.6655 48.7707 60.5549C49.1664 60.5312 49.5621 60.5549 49.9578 60.5549H100.007C103.077 60.5549 103.699 61.1748 103.699 64.2148C103.699 65.7703 103.73 67.3298 103.699 68.8853C103.655 70.5869 102.693 71.5857 101.237 71.5384C99.8642 71.491 99.0213 70.504 98.9857 68.8458C98.9461 67.7206 98.9659 66.6073 98.9659 65.3242Z" fill="#472B53"/>
<path d="M75.1365 31.2921H103.41C105.808 31.2921 106.916 32.0225 106.935 33.6057C106.955 35.1888 105.8 36.0219 103.323 36.0219C84.429 36.0219 65.5341 36.0219 46.6378 36.0219C45.9582 36.0456 45.2786 35.9725 44.6197 35.8047C44.1127 35.6796 43.6712 35.3693 43.3825 34.935C43.0938 34.5008 42.979 33.9743 43.0606 33.4596C43.0685 32.94 43.2669 32.4414 43.6184 32.058C43.9698 31.6746 44.45 31.433 44.9679 31.379C45.5493 31.3071 46.1354 31.2807 46.7209 31.3L75.1365 31.2921Z" fill="#472B53"/>
<path d="M29.5236 53.6933C28.6095 49.9347 25.3252 47.0685 21.6451 46.875C18.7762 46.721 15.8916 46.8 13.0148 46.7566C12.4306 46.7615 11.8474 46.7086 11.2737 46.5986C10.1103 46.342 9.5484 45.509 9.53653 44.3798C9.50095 43.8879 9.64005 43.3991 9.92946 42.9992C10.2189 42.5993 10.6401 42.3137 11.1193 42.1926C11.588 42.0603 12.0726 41.9926 12.5597 41.9913C15.1912 41.9913 17.8305 41.9321 20.4738 41.9913C28.1822 42.1808 34.1573 47.7594 34.6559 55.1817C34.8063 57.432 33.9911 58.4269 31.787 58.4388C25.5428 58.4743 19.2986 58.4388 13.0504 58.4388C12.6112 58.4452 12.1737 58.3853 11.7525 58.2611C11.2744 58.138 10.8538 57.8537 10.5617 57.4566C10.2696 57.0594 10.1242 56.5737 10.1499 56.0818C10.1101 55.5886 10.2475 55.0973 10.5375 54.6959C10.8275 54.2944 11.2511 54.009 11.7327 53.8907C12.3948 53.7343 13.0748 53.6666 13.7547 53.6893C18.9662 53.6933 24.1816 53.6933 29.5236 53.6933Z" fill="#472B53"/>
<path d="M120.445 53.6933C125.589 53.6933 130.606 53.6933 135.628 53.6933C136.406 53.6759 137.184 53.7222 137.955 53.8314C139.189 54.0367 139.822 54.8737 139.822 56.0818C139.862 56.6256 139.688 57.1633 139.338 57.5821C138.989 58.001 138.49 58.2684 137.947 58.3282C137.424 58.4153 136.894 58.4562 136.364 58.4506C130.508 58.4506 124.652 58.4506 118.799 58.4506C115.902 58.4506 115.095 57.5702 115.36 54.7553C116.021 47.6212 121.877 42.244 129.344 42.0031C132.075 41.9123 134.809 41.9597 137.539 42.0031C139.391 42.0268 140.448 42.9309 140.452 44.3719C140.456 45.813 139.411 46.7171 137.551 46.7408C134.48 46.8 131.402 46.7052 128.335 46.8632C124.647 47.0606 121.391 49.915 120.445 53.6933Z" fill="#472B53"/>
<path d="M75.0732 43.9258C79.2202 43.9258 83.383 43.9258 87.5181 43.9258C89.3898 43.9258 90.4582 44.7668 90.4978 46.2078C90.5374 47.6488 89.4175 48.624 87.4944 48.6279C79.1503 48.6279 70.8049 48.6279 62.4581 48.6279C60.5983 48.6279 59.5141 47.7673 59.4745 46.3302C59.431 44.8299 60.535 43.9298 62.4819 43.9258C66.6763 43.9179 70.8748 43.9258 75.0732 43.9258Z" fill="#472B53"/>
</g>
<defs>
<clipPath id="clip0_3_559">
<rect width="150" height="93.75" fill="white"/>
</clipPath>
</defs>
</svg>
