<svg width="50" height="50" viewBox="0 0 50 50" fill="none" xmlns="http://www.w3.org/2000/svg">
<g clip-path="url(#clip0_4_744)">
<path d="M47.9256 28.5479C48.0547 28.6133 48.1602 28.6675 48.2672 28.719C50.3388 29.7315 50.6193 32.4547 48.7517 33.826C47.2147 34.9568 45.6221 36.0096 44.0517 37.0945C37.9996 41.2762 31.949 45.4621 25.8998 49.6522C25.3444 50.0416 24.8695 50.1139 24.2266 49.8386C19.4168 47.7802 14.5918 45.7579 9.77645 43.7273C8.30186 45.3963 7.1133 45.5117 5.49847 44.1209C5.37906 44.2308 5.25132 44.3407 5.13191 44.4603C3.95261 45.6388 2.77469 46.8186 1.59817 47.9999C1.29964 48.3003 0.984449 48.5242 0.540128 48.3434C0.0958067 48.1626 0 47.801 0 47.3657C0 41.9424 0 36.5182 0 31.0931C0 30.3379 0.288809 30.0486 1.03166 30.043C1.59678 30.043 2.16329 30.043 2.7895 30.043C2.69231 29.8247 2.62844 29.6675 2.55346 29.5173C1.77312 27.9359 0.971952 26.3546 0.19439 24.7676C-0.222161 23.9331 0.137462 23.3768 1.07748 23.3768C4.39137 23.3768 7.70527 23.3768 11.0192 23.3768H11.5898C9.44599 22.7885 8.08525 21.4519 7.56318 19.2044C6.619 19.2044 5.65121 19.1668 4.68898 19.2169C3.99472 19.253 3.56568 19.0152 3.19495 18.4283C2.2702 16.9596 1.26909 15.5382 0.331852 14.0778C0.14077 13.7722 0.0334911 13.4215 0.0208276 13.0611C-0.011108 11.5312 0.0013885 10.0013 0.00833102 8.47139C0.013885 6.91089 1.06498 5.85526 2.62011 5.84135C3.66148 5.84135 4.70286 5.82049 5.74285 5.84969C6.15473 5.86326 6.55731 5.72521 6.87448 5.46166C10.05 3.05971 13.5546 1.32257 17.4604 0.460264C21.6259 -0.459068 25.6651 0.0430182 29.6015 1.58961C32.1042 2.5802 34.4593 3.91018 36.6009 5.54232C36.8436 5.71982 37.1338 5.82057 37.4341 5.83161C38.9947 5.85248 40.5512 5.81492 42.08 6.24886C44.3252 6.885 46.3064 8.22824 47.7302 10.0798C49.1541 11.9314 49.9451 14.193 49.9861 16.5298C49.9944 17.05 49.9861 17.5715 49.9861 18.0931C49.9861 18.9151 49.7084 19.196 48.9017 19.196C47.2179 19.196 45.5346 19.196 43.8517 19.196H43.2713C42.7534 21.4032 41.4218 22.776 39.0933 23.3337C39.3182 23.3532 39.4043 23.3643 39.4918 23.3671C39.5793 23.3699 39.6654 23.3671 39.7515 23.3671H48.8101C49.9209 23.3671 50.2444 23.8914 49.7431 24.897C49.153 26.1112 48.5407 27.3198 47.9256 28.5479ZM10.0042 31.4227V31.954C10.0042 35.1362 10.0125 38.317 9.99306 41.4978C9.99306 41.8928 10.1152 42.0681 10.4707 42.2169C15.1546 44.1761 19.8329 46.1478 24.5057 48.132C24.624 48.1963 24.7589 48.2235 24.8928 48.2101C25.0267 48.1967 25.1536 48.1434 25.2569 48.0569C26.519 47.1668 27.7937 46.2961 29.0642 45.4144L47.4868 32.6939C48.3199 32.1195 48.5476 31.4422 48.1561 30.7635C47.7645 30.0847 47.1563 29.9679 46.2122 30.3796C41.4339 32.4436 36.6602 34.5099 31.8911 36.5785C30.9692 36.9776 29.9986 37.2975 29.1419 37.808C28.4401 38.2195 27.6358 38.4225 26.8231 38.3935C23.6295 38.3768 20.436 38.3866 17.2424 38.3866H16.687V36.7176H26.7467C28.2283 36.7176 28.3782 36.5701 28.3116 35.0639C28.3008 34.9615 28.2679 34.8626 28.2151 34.7743C28.1624 34.6859 28.0911 34.61 28.0061 34.5521C24.3173 32.565 20.6193 30.5891 16.912 28.6244C16.7682 28.5451 16.599 28.5261 16.4413 28.5715C14.3016 29.5089 12.1619 30.4589 10.0042 31.4227ZM9.74313 29.7134C11.8162 28.7899 13.885 27.89 15.9261 26.9498C16.4676 26.7009 16.9106 26.7037 17.4382 26.9957C19.1808 27.9693 20.9456 28.8928 22.7145 29.8163C22.9881 29.9565 23.2903 30.0317 23.5976 30.0361C28.9767 30.05 34.3571 29.9818 39.7348 30.0778C41.8176 30.1153 43.7615 29.8427 45.579 28.8372C45.6082 28.8205 45.6498 28.8177 45.6734 28.7955C45.8428 28.6383 46.065 28.5076 46.1663 28.3128C46.6676 27.3615 47.1383 26.3935 47.6146 25.4297C47.6701 25.317 47.7048 25.1946 47.7534 25.0667H2.2105C3.02416 26.6953 3.8045 28.2781 4.60428 29.8525C4.75979 30.1598 5.0972 30.1306 5.26659 29.8038C5.41959 29.4809 5.64053 29.195 5.91424 28.9658C6.18795 28.7365 6.50794 28.5693 6.85226 28.4756C7.94502 28.171 8.85726 28.5534 9.74313 29.7134ZM42.6881 8.34483C41.5635 7.77253 40.3156 7.48596 39.0544 7.51033C33.7115 7.51033 28.3685 7.51033 23.0256 7.51033C22.8589 7.51033 22.6909 7.52424 22.5229 7.5312V8.34483C22.9034 8.34483 23.263 8.34483 23.6226 8.34483C24.8959 8.35456 25.8234 9.22383 25.8303 10.4158C25.8373 11.6077 24.9056 12.5173 23.6046 12.5173C23.2477 12.5173 22.8909 12.5173 22.5451 12.5173V17.4992H33.3935C34.0267 14.6745 36.1705 13.4978 37.9756 13.3657C39.0037 13.2845 40.031 13.5324 40.9095 14.0736C42.2105 14.8636 42.9575 16.0486 43.2699 17.4923H48.3116C48.42 15.9368 48.1523 14.3782 47.5312 12.9484C47.3813 12.6035 47.1897 12.5034 46.8301 12.5089C45.4596 12.5298 44.0891 12.5089 42.7187 12.5229C42.5111 12.5367 42.3039 12.4919 42.1205 12.3935C41.9371 12.2952 41.785 12.1472 41.6815 11.9665C41.2149 11.2363 40.7262 10.5187 40.2416 9.79823C40.0264 9.47695 39.8514 9.10282 40.1305 8.79406C40.3641 8.55875 40.6686 8.4072 40.997 8.36291C41.5496 8.30032 42.1216 8.34483 42.6881 8.34483ZM1.68703 8.34483C3.02833 8.34483 4.34324 8.34483 5.65815 8.34483C6.04971 8.34483 6.4496 8.42271 6.55096 8.81771C6.62249 9.14237 6.57673 9.48193 6.42183 9.77598C5.98862 10.5284 5.46515 11.2252 4.99861 11.961C4.89211 12.1503 4.73319 12.3048 4.54102 12.4057C4.34886 12.5066 4.13165 12.5497 3.91558 12.5298C3.17412 12.5062 2.43266 12.5298 1.60094 12.5298C1.68703 12.8511 1.69536 13.1292 1.82588 13.3295C2.68398 14.655 3.56568 15.9721 4.45293 17.2739C4.49842 17.3404 4.55698 17.3969 4.62502 17.4399C4.69306 17.483 4.76916 17.5117 4.84865 17.5242C5.7484 17.5465 6.65371 17.5368 7.5368 17.5368C8.3935 14.8719 10.025 13.4505 12.2813 13.3643C13.3295 13.3162 14.3657 13.6046 15.2388 14.1877C16.4413 14.9818 17.1411 16.1209 17.434 17.502H20.797V7.51033H2.75479C2.66785 7.50546 2.5807 7.50546 2.49375 7.51033C2.02166 7.56875 1.73841 7.81075 1.68703 8.34483ZM13.4074 23.3518H37.4285C35.2472 22.7843 33.8948 21.4046 33.3921 19.2224H17.4396C16.9245 21.4311 15.5735 22.7857 13.4074 23.3518ZM1.69536 45.5242C2.79089 44.4269 3.81561 43.4171 4.81811 42.3838C4.94108 42.2251 5.00447 42.0282 4.99722 41.8274C5.00833 38.5998 5.00833 35.3713 4.99722 32.1418C4.99722 32.0027 4.9764 31.8761 4.96668 31.7509H1.69536V45.5242ZM33.9295 5.82466C30.4582 3.51172 26.7356 1.96235 22.534 1.71618V5.82466H33.9295ZM9.25715 5.82466H20.8067V1.71478C16.5926 1.97487 12.8686 3.51033 9.25715 5.8191V5.82466ZM8.33796 36.7746C8.33796 34.8622 8.33796 32.9498 8.33796 31.0375C8.33796 30.3893 7.93946 29.9832 7.4035 30.0555C6.93002 30.1181 6.67592 30.4728 6.67592 31.0889C6.67592 33.5748 6.67592 36.0606 6.67592 38.5465C6.67592 39.8497 6.67592 41.1529 6.67592 42.4575C6.67592 43.043 7.05499 43.4311 7.55762 43.3921C8.03805 43.3615 8.33519 42.9985 8.33657 42.406C8.34074 40.5284 8.33796 38.6508 8.33796 36.7746ZM29.9986 35.5827L38.7767 31.7579H26.3357C27.4313 32.3434 28.4046 32.8706 29.3904 33.3852C29.8264 33.6119 30.0333 33.9415 30.0069 34.4297C29.9833 34.7885 29.9986 35.1501 29.9986 35.5827ZM38.3407 21.6967C38.9994 21.6945 39.6425 21.4969 40.1891 21.1288C40.7356 20.7606 41.161 20.2386 41.4116 19.6284C41.6621 19.0183 41.7265 18.3475 41.5966 17.7007C41.4668 17.054 41.1486 16.4602 40.6821 15.9945C40.2156 15.5288 39.6218 15.212 38.9757 15.0841C38.3296 14.9562 37.6601 15.023 37.0518 15.2759C36.4436 15.5289 35.9238 15.9567 35.5581 16.5054C35.1924 17.0541 34.9972 17.699 34.9972 18.3587C34.9994 19.2453 35.3528 20.0947 35.9796 20.7205C36.6065 21.3464 37.4557 21.6974 38.3407 21.6967ZM12.5215 21.6967C13.1798 21.6931 13.8223 21.4943 14.368 21.1254C14.9136 20.7564 15.3379 20.2339 15.5874 19.6236C15.8368 19.0134 15.9002 18.3428 15.7696 17.6965C15.639 17.0502 15.3202 16.4571 14.8535 15.9921C14.3867 15.5271 13.7929 15.211 13.147 15.0836C12.5011 14.9563 11.8319 15.0235 11.2241 15.2766C10.6162 15.5298 10.0968 15.9576 9.73145 16.5062C9.36607 17.0547 9.17107 17.6993 9.17106 18.3587C9.17216 18.7983 9.2597 19.2333 9.42868 19.639C9.59767 20.0447 9.84479 20.413 10.1559 20.723C10.4671 21.033 10.8361 21.2785 11.242 21.4456C11.6479 21.6126 12.0827 21.698 12.5215 21.6967ZM42.4965 10.0138L42.416 10.1626C42.6493 10.3907 42.8687 10.7955 43.1103 10.8149C44.0975 10.89 45.093 10.8455 46.0858 10.8455L46.158 10.7064C45.8623 10.4756 45.5832 10.0778 45.2694 10.0472C44.3571 9.96235 43.4241 10.0138 42.4965 10.0138ZM1.69397 10.8483C2.16745 10.8483 2.60483 10.7982 3.02416 10.8594C3.69064 10.9582 3.98639 10.6063 4.20439 10.0416H1.69397V10.8483ZM22.5215 10.8483C22.9343 10.8695 23.3481 10.863 23.7601 10.8288C23.849 10.8021 23.9296 10.7531 23.9942 10.6864C24.0588 10.6197 24.1054 10.5375 24.1294 10.4477C24.1118 10.3566 24.071 10.2716 24.0109 10.2009C23.9508 10.1302 23.8735 10.0763 23.7864 10.0444C23.3657 10.0107 22.9431 10.0042 22.5215 10.0249V10.8483Z" fill="#FF6346"/>
<path d="M10.0042 31.4228C12.1619 30.4631 14.2988 29.509 16.4413 28.5716C16.599 28.5262 16.7682 28.5452 16.912 28.6245C20.6146 30.5929 24.3173 32.5702 28.02 34.5563C28.1049 34.6143 28.1763 34.6901 28.229 34.7785C28.2818 34.8669 28.3147 34.9657 28.3255 35.0681C28.3921 36.5744 28.2422 36.7218 26.7606 36.7218H16.694V38.3908H17.2494C20.4429 38.3908 23.6365 38.3811 26.83 38.3978C27.6428 38.4268 28.447 38.2237 29.1488 37.8122C30.0055 37.3018 30.9761 36.9777 31.8981 36.5827C36.6671 34.5132 41.4371 32.4455 46.208 30.3797C47.1577 29.9624 47.7756 30.1015 48.1519 30.7635C48.5282 31.4256 48.3144 32.1196 47.4826 32.694L29.0641 45.4186C27.7937 46.2962 26.519 47.1669 25.2569 48.0612C25.1536 48.1476 25.0267 48.201 24.8928 48.2144C24.7589 48.2278 24.624 48.2006 24.5057 48.1363C19.832 46.1502 15.1537 44.1771 10.4707 42.217C10.1152 42.0681 9.99028 41.8929 9.99306 41.4979C10.0125 38.3171 10.0042 35.1363 10.0042 31.9541V31.4228Z" fill="white"/>
<path d="M9.74312 29.7135C8.85726 28.5536 7.93807 28.1711 6.84532 28.4757C6.501 28.5694 6.181 28.7366 5.90729 28.9659C5.63358 29.1952 5.41265 29.481 5.25965 29.8039C5.09025 30.1294 4.75284 30.16 4.59733 29.8526C3.79755 28.2782 3.01722 26.6954 2.20355 25.0668H47.7465C47.6979 25.1947 47.6631 25.3171 47.6076 25.4298C47.1313 26.3936 46.6606 27.3616 46.1594 28.3129C46.058 28.5077 45.8359 28.6384 45.6665 28.7956C45.6429 28.8178 45.6012 28.8206 45.5721 28.8373C43.749 29.8429 41.8106 30.1155 39.7279 30.0779C34.3502 29.9819 28.9697 30.0501 23.5907 30.0362C23.2834 30.0318 22.9812 29.9566 22.7076 29.8164C20.9414 28.8929 19.1766 27.9639 17.4313 26.9958C16.9036 26.7038 16.4593 26.701 15.9192 26.9499C13.885 27.8901 11.8162 28.79 9.74312 29.7135Z" fill="white"/>
<path d="M42.6881 8.34492C42.1216 8.34492 41.5496 8.29624 40.9928 8.36439C40.6645 8.40868 40.3599 8.56023 40.1264 8.79554C39.8487 9.10431 40.0222 9.47844 40.2374 9.79972C40.722 10.5202 41.2094 11.2378 41.6773 11.968C41.7809 12.1487 41.933 12.2967 42.1164 12.395C42.2997 12.4934 42.507 12.5382 42.7145 12.5243C44.085 12.5076 45.4554 12.5313 46.8259 12.5104C47.1855 12.5104 47.3813 12.605 47.5271 12.9499C48.1482 14.3796 48.4158 15.9383 48.3074 17.4937H43.2658C42.9506 16.0501 42.2036 14.8651 40.9053 14.0751C40.0269 13.5339 38.9995 13.286 37.9714 13.3672C36.1663 13.5063 34.0253 14.6759 33.3893 17.5007H22.541V12.5174C22.8867 12.5174 23.2436 12.5174 23.6004 12.5174C24.9056 12.5076 25.8387 11.6273 25.8303 10.4158C25.822 9.20444 24.8959 8.35883 23.6226 8.34492C23.263 8.34492 22.9034 8.34492 22.5229 8.34492V7.53685C22.6909 7.53685 22.8589 7.51599 23.0256 7.51599C28.3685 7.51599 33.7115 7.51599 39.0544 7.51599C40.3152 7.48989 41.563 7.77455 42.6881 8.34492Z" fill="white"/>
<path d="M1.68702 8.34493C1.7384 7.80668 2.02165 7.56468 2.49374 7.51043C2.58069 7.50556 2.66784 7.50556 2.75478 7.51043H20.8053V17.4951H17.4354C17.1425 16.114 16.4426 14.975 15.2402 14.1808C14.3671 13.5978 13.3309 13.3093 12.2827 13.3574C10.0264 13.4381 8.39488 14.8595 7.53818 17.5299C6.65092 17.5299 5.74978 17.5396 4.85003 17.5174C4.77054 17.5048 4.69444 17.4761 4.6264 17.4331C4.55836 17.39 4.4998 17.3335 4.45431 17.267C3.56706 15.9597 2.68536 14.6481 1.82726 13.3227C1.69674 13.1224 1.68841 12.8442 1.60233 12.523C2.43543 12.523 3.1755 12.5049 3.91696 12.523C4.13209 12.5433 4.34851 12.5011 4.54033 12.4014C4.73215 12.3018 4.89125 12.1489 4.9986 11.9611C5.46375 11.2281 5.98722 10.5313 6.42043 9.78025C6.57533 9.4862 6.62109 9.14664 6.54956 8.82198C6.4482 8.42698 6.04831 8.34771 5.65675 8.3491C4.34323 8.35327 3.02832 8.34493 1.68702 8.34493Z" fill="white"/>
<path d="M13.4074 23.3519C15.5734 22.7858 16.9245 21.4312 17.434 19.2225H33.3879C33.8906 21.4089 35.243 22.7844 37.4243 23.3519H13.4074Z" fill="white"/>
<path d="M1.69536 45.5243V31.7552H4.97361C4.98333 31.8804 5.00416 32.0139 5.00416 32.146C5.00416 35.3746 5.00416 38.6031 5.00416 41.8317C5.01141 42.0324 4.94801 42.2293 4.82504 42.388C3.8156 43.4172 2.79089 44.427 1.69536 45.5243Z" fill="white"/>
<path d="M33.9295 5.82473H22.534V1.71625C26.7356 1.96242 30.4582 3.5118 33.9295 5.82473Z" fill="white"/>
<path d="M9.25716 5.81916C12.8673 3.51039 16.5926 1.97493 20.8067 1.71484V5.81916H9.25716Z" fill="white"/>
<path d="M8.33797 36.7747C8.33797 38.6509 8.33797 40.5299 8.33797 42.4061C8.33797 42.9986 8.03944 43.3616 7.55902 43.3922C7.05638 43.4256 6.68148 43.0431 6.67732 42.4576C6.66899 41.153 6.67732 39.8498 6.67732 38.5466C6.67732 36.0598 6.67732 33.5739 6.67732 31.089C6.67732 30.4701 6.93141 30.1154 7.40489 30.0556C7.94086 29.9833 8.33797 30.3894 8.33936 31.0375C8.34074 32.9499 8.33797 34.8623 8.33797 36.7747Z" fill="white"/>
<path d="M29.9986 35.5828C29.9986 35.1502 29.9833 34.7886 29.9986 34.4298C30.025 33.936 29.8181 33.612 29.3821 33.3853C28.4004 32.8748 27.4271 32.3435 26.3274 31.758H38.7684L29.9986 35.5828Z" fill="white"/>
<path d="M38.3407 21.6968C37.6818 21.7003 37.0367 21.5081 36.4868 21.1445C35.9369 20.7809 35.507 20.2621 35.2514 19.6538C34.9957 19.0455 34.9259 18.375 35.0506 17.7269C35.1754 17.0788 35.4891 16.4823 35.9522 16.0128C36.4153 15.5433 37.007 15.2219 37.6524 15.0891C38.2978 14.9563 38.9681 15.0182 39.5784 15.2669C40.1888 15.5156 40.7118 15.9399 41.0814 16.4863C41.4511 17.0327 41.6507 17.6766 41.6551 18.3365C41.658 18.7752 41.5746 19.2102 41.4096 19.6166C41.2445 20.023 41.0011 20.3928 40.6933 20.7049C40.3855 21.0169 40.0193 21.2652 39.6156 21.4354C39.2119 21.6056 38.7787 21.6944 38.3407 21.6968ZM38.3157 20.8623C38.8114 20.8656 39.2969 20.7212 39.7104 20.4474C40.1239 20.1737 40.4468 19.7829 40.6381 19.3249C40.8294 18.8669 40.8803 18.3622 40.7846 17.875C40.6888 17.3879 40.4505 16.9403 40.1001 16.5891C39.7497 16.2379 39.303 15.9991 38.8167 15.9028C38.3305 15.8066 37.8266 15.8574 37.3692 16.0487C36.9118 16.2401 36.5216 16.5633 36.248 16.9774C35.9745 17.3914 35.8301 17.8776 35.8331 18.3741C35.8393 19.033 36.1037 19.6632 36.5694 20.1286C37.0352 20.5941 37.6648 20.8576 38.3227 20.8623H38.3157Z" fill="white"/>
<path d="M12.5215 21.6968C11.8626 21.7017 11.2171 21.5109 10.6665 21.1484C10.1158 20.7859 9.68483 20.2681 9.42794 19.6603C9.17105 19.0525 9.09981 18.3821 9.22321 17.7338C9.34661 17.0854 9.65912 16.4883 10.1212 16.0178C10.5833 15.5474 11.1743 15.2247 11.8195 15.0906C12.4646 14.9565 13.135 15.0169 13.7459 15.2643C14.3567 15.5118 14.8806 15.935 15.2514 16.4806C15.6222 17.0262 15.8231 17.6696 15.8289 18.3296C15.8328 18.7683 15.7502 19.2035 15.5861 19.6102C15.4219 20.0169 15.1793 20.3872 14.8721 20.7C14.5649 21.0127 14.1992 21.2617 13.7959 21.4327C13.3925 21.6038 12.9595 21.6935 12.5215 21.6968ZM12.5215 15.8553C12.0262 15.8504 11.5405 15.993 11.1262 16.265C10.712 16.5371 10.3877 16.9263 10.1947 17.3833C10.0017 17.8403 9.94864 18.3444 10.0422 18.8317C10.1358 19.319 10.3719 19.7674 10.7204 20.12C11.0689 20.4726 11.5142 20.7136 11.9997 20.8122C12.4852 20.9108 12.989 20.8627 13.4471 20.674C13.9053 20.4853 14.2971 20.1645 14.5728 19.7522C14.8486 19.34 14.9958 18.855 14.9958 18.3588C14.9934 17.7009 14.7334 17.0702 14.2718 16.6021C13.8103 16.134 13.1838 15.8659 12.5271 15.8553H12.5215Z" fill="white"/>
<path d="M42.4965 10.0139C43.4241 10.0139 44.3571 9.95687 45.2735 10.0459C45.5873 10.0765 45.8664 10.4743 46.1622 10.7051L46.0983 10.8484C45.1055 10.8484 44.11 10.8929 43.1227 10.8178C42.8742 10.7983 42.6548 10.4005 42.4285 10.1655L42.4965 10.0139Z" fill="white"/>
<path d="M1.69397 10.8484V10.0417H4.20438C3.98639 10.6064 3.69064 10.9582 3.02416 10.8595C2.60483 10.8025 2.16745 10.8484 1.69397 10.8484Z" fill="white"/>
<path d="M22.5215 10.8484V10.025C22.9431 10.0043 23.3657 10.0108 23.7864 10.0445C23.8735 10.0764 23.9508 10.1303 24.0109 10.2009C24.071 10.2716 24.1118 10.3567 24.1294 10.4478C24.1054 10.5376 24.0588 10.6197 23.9942 10.6864C23.9295 10.7531 23.849 10.8022 23.7601 10.8289C23.3481 10.8631 22.9343 10.8696 22.5215 10.8484Z" fill="white"/>
<path d="M38.3227 20.8623C37.8288 20.8623 37.346 20.7157 36.9352 20.4411C36.5244 20.1664 36.204 19.776 36.0146 19.3191C35.8251 18.8622 35.7751 18.3594 35.8707 17.874C35.9664 17.3886 36.2034 16.9425 36.552 16.592C36.9006 16.2415 37.345 16.0023 37.8292 15.9046C38.3133 15.807 38.8156 15.8551 39.2724 16.0431C39.7293 16.2311 40.1203 16.5505 40.3961 16.9609C40.6719 17.3713 40.8201 17.8544 40.822 18.3491C40.822 19.014 40.559 19.6517 40.0905 20.1228C39.6221 20.5938 38.9864 20.8597 38.3227 20.8623ZM38.3463 17.5243C38.181 17.5216 38.0185 17.5682 37.8797 17.6582C37.7409 17.7482 37.632 17.8775 37.5668 18.0297C37.5016 18.1819 37.4831 18.3502 37.5137 18.5129C37.5442 18.6757 37.6224 18.8257 37.7384 18.9438C37.8543 19.0619 38.0027 19.1428 38.1647 19.1761C38.3267 19.2095 38.4949 19.1938 38.6479 19.131C38.801 19.0683 38.9319 18.9614 39.0241 18.8239C39.1162 18.6863 39.1655 18.5245 39.1655 18.3588C39.1637 18.1399 39.0761 17.9305 38.9215 17.7757C38.767 17.6209 38.5579 17.5331 38.3393 17.5313L38.3463 17.5243Z" fill="#FF6346"/>
<path d="M12.5271 15.8554C13.0205 15.8595 13.5016 16.0098 13.9099 16.2874C14.3182 16.565 14.6353 16.9574 14.8212 17.4152C15.0072 17.873 15.0537 18.3757 14.955 18.8599C14.8562 19.3442 14.6165 19.7883 14.2662 20.1363C13.9158 20.4844 13.4705 20.7207 12.9862 20.8156C12.502 20.9106 12.0005 20.8598 11.5451 20.6697C11.0896 20.4796 10.7005 20.1587 10.4267 19.7475C10.153 19.3363 10.007 18.8531 10.0069 18.3588C10.0069 18.0283 10.0723 17.7011 10.1992 17.396C10.3261 17.0909 10.512 16.814 10.7463 16.5812C10.9806 16.3485 11.2586 16.1645 11.5642 16.0399C11.8699 15.9153 12.1971 15.8526 12.5271 15.8554ZM13.3296 18.3588C13.3296 18.1929 13.2801 18.0308 13.1877 17.8931C13.0952 17.7555 12.9638 17.6486 12.8103 17.5861C12.6569 17.5236 12.4883 17.5083 12.3262 17.5422C12.164 17.5762 12.0157 17.6577 11.9 17.7766C11.7844 17.8954 11.7067 18.046 11.677 18.2092C11.6472 18.3724 11.6667 18.5408 11.733 18.6929C11.7992 18.845 11.9093 18.9738 12.049 19.063C12.1887 19.1521 12.3518 19.1975 12.5174 19.1933C12.7347 19.1879 12.9413 19.0976 13.093 18.9417C13.2448 18.7858 13.3297 18.5766 13.3296 18.3588Z" fill="#FF6346"/>
<path d="M38.3393 17.5313C38.5049 17.5327 38.6663 17.5836 38.8029 17.6774C38.9395 17.7711 39.0451 17.9035 39.1062 18.0576C39.1674 18.2118 39.1813 18.3807 39.1461 18.5427C39.111 18.7048 39.0285 18.8528 38.909 18.9676C38.7896 19.0825 38.6387 19.1591 38.4756 19.1877C38.3125 19.2163 38.1446 19.1956 37.9933 19.1282C37.842 19.0608 37.7142 18.9497 37.6263 18.8092C37.5383 18.6687 37.4941 18.5051 37.4993 18.3393C37.5062 18.1214 37.5979 17.9149 37.7549 17.7638C37.9119 17.6128 38.1217 17.5294 38.3393 17.5313Z" fill="white"/>
<path d="M13.3296 18.3588C13.3313 18.5247 13.2835 18.6873 13.1925 18.8258C13.1015 18.9644 12.9713 19.0726 12.8185 19.1367C12.6658 19.2008 12.4975 19.2179 12.335 19.1857C12.1726 19.1536 12.0234 19.0737 11.9065 18.9562C11.7896 18.8387 11.7103 18.689 11.6787 18.5261C11.6472 18.3633 11.6648 18.1947 11.7293 18.042C11.7938 17.8892 11.9023 17.7592 12.0409 17.6685C12.1796 17.5777 12.3421 17.5305 12.5076 17.5327C12.7246 17.5376 12.9312 17.6264 13.0843 17.7803C13.2375 17.9343 13.3254 18.1415 13.3296 18.3588Z" fill="white"/>
</g>
<defs>
<clipPath id="clip0_4_744">
<rect width="50" height="50" fill="white"/>
</clipPath>
</defs>
</svg>
