<svg width="150" height="73" viewBox="0 0 150 73" fill="none" xmlns="http://www.w3.org/2000/svg">
<g clip-path="url(#clip0_3_543)">
<path d="M150 45.2793C149.008 43.1241 146.984 43.9924 145.191 43.6834C145.168 43.1749 145.121 42.6547 145.121 42.1188C145.121 38.6454 145.145 35.176 145.121 31.7065C145.074 27.0792 142.102 24.1417 137.461 24.1299C130.039 24.1299 122.617 24.1065 115.195 24.1299C114.746 24.179 114.293 24.1013 113.885 23.9057C113.478 23.7101 113.133 23.4043 112.891 23.023C108.34 16.5651 103.68 10.1699 99.125 3.70417C97.3398 1.17344 95.0625 0 91.9492 0C70.2747 0.0469378 48.5977 0.0469378 26.918 0C23.7422 0 21.4141 1.17344 19.6172 3.75893C17.25 7.16975 14.793 10.518 12.293 13.8349C11.8448 14.3448 11.2215 14.6673 10.5469 14.7385C8.93997 14.8578 7.32675 14.8656 5.71875 14.7619C2.94922 14.5898 0.992188 15.6186 0.0078125 18.2823V44.982C1.11328 47.5519 3.07812 48.5884 5.83203 48.3929C7.33594 48.2873 8.85156 48.3929 10.5938 48.3929C10.5938 50.0161 10.5938 51.5612 10.5938 53.0866C10.5938 56.3645 12.2891 58.0816 15.5391 58.1051C18.5195 58.1246 21.4961 58.1285 24.4727 58.1051C25.2852 58.1051 25.6445 58.2889 25.8125 59.1886C26.4487 63.0335 28.4228 66.5291 31.3853 69.0568C34.3479 71.5845 38.1079 72.9813 42 73C49.9726 73.0978 56.7969 67.4496 58.4062 59.4193C58.4805 59.0282 58.5703 58.6605 58.6914 58.1168H60.1094C73.4844 58.1168 86.8594 58.109 100.234 58.0933C101.348 58.0933 101.797 58.328 102.016 59.5445C103.348 67.2579 110.281 72.9648 118.207 73.0039C126.133 73.043 133.051 67.3323 134.504 59.6423C134.594 59.169 134.707 58.7035 134.832 58.1168C138.879 58.1168 142.875 58.0855 146.867 58.1168C148.18 58.1168 149.266 57.8508 149.992 56.7087L150 45.2793ZM15.0586 28.4599H136.805C140.176 28.4599 141.238 29.7155 140.711 33.2515C139.539 33.2515 138.324 33.2515 137.117 33.2515C135.449 33.2515 134.508 34.0103 134.465 35.3246C134.418 36.7132 135.363 37.5307 137.113 37.5698C138.316 37.5933 139.523 37.5698 140.812 37.5698C140.84 38.223 140.879 38.7002 140.879 39.1774C140.879 41.3287 140.859 43.48 140.879 45.6314C140.906 47.2233 141.629 47.9352 143.223 48.0017C144.004 48.0291 144.758 48.0017 145.59 48.0017V53.646C142.465 53.646 139.449 53.5795 136.434 53.6773C135.109 53.7203 134.555 53.3839 134.176 51.9992C132.527 45.956 128.586 41.9624 122.574 40.3313C116.324 38.6298 110.805 40.2922 106.234 44.9077C103.863 47.3016 102.551 50.2704 101.859 53.646H100.07C86.8398 53.646 73.6094 53.6264 60.3828 53.6734C59.0195 53.6734 58.4023 53.4191 58.0156 51.9328C57.1315 48.5503 55.1893 45.54 52.4733 43.3426C49.7573 41.1452 46.4102 39.8761 42.9219 39.7211C39.3821 39.551 35.8814 40.5233 32.9349 42.4949C29.9884 44.4666 27.752 47.3334 26.5547 50.6733C26.2109 51.6316 25.9688 52.629 25.668 53.6264H15.0586V37.5893C16.3828 37.5893 17.6367 37.6206 18.8906 37.5893C20.5273 37.5385 21.4414 36.7014 21.4023 35.3559C21.3633 34.0847 20.4453 33.3024 18.9023 33.275C17.6445 33.2515 16.3906 33.275 15.0625 33.275L15.0586 28.4599ZM14.9766 24.0947C14.9766 22.2329 14.9141 20.5235 15.0078 18.826C15.0417 18.0681 15.2719 17.3321 15.6758 16.6903C18.1289 13.1035 20.6875 9.59095 23.1523 6.01195C23.522 5.43711 24.0377 4.97111 24.6466 4.66179C25.2555 4.35246 25.9356 4.21095 26.6172 4.25178C32.1797 4.27525 37.7422 4.2909 43.3047 4.25178C44.4258 4.25178 44.707 4.60382 44.6992 5.67556C44.6523 11.4411 44.6797 17.2066 44.6719 22.9721C44.6473 23.3488 44.6003 23.7237 44.5312 24.0947H14.9766ZM73.3984 4.3261V24.0908H49.0742V4.3261H73.3984ZM77.9375 4.3261C78.4453 4.29481 78.875 4.24396 79.3008 4.24396C83.5469 4.24396 87.793 4.27525 92.0352 4.2244C92.7648 4.1827 93.4924 4.33736 94.1422 4.67234C94.792 5.00731 95.3404 5.51038 95.7305 6.12929C99.6602 11.7344 103.645 17.2888 107.609 22.8587C107.875 23.2499 108.105 23.641 108.391 24.0869H77.9219L77.9375 4.3261ZM105.977 56.3997C106.017 53.173 107.322 50.0914 109.61 47.8188C111.898 45.5462 114.985 44.2644 118.208 44.2495C121.431 44.2346 124.53 45.4879 126.839 47.7393C129.147 49.9907 130.48 53.0601 130.551 56.2862C130.586 57.9197 130.297 59.5438 129.699 61.064C129.101 62.5842 128.207 63.9699 127.068 65.1404C125.93 66.3109 124.57 67.2426 123.069 67.8813C121.567 68.5199 119.953 68.8527 118.321 68.8603C116.69 68.8678 115.073 68.5499 113.565 67.9251C112.058 67.3003 110.689 66.3812 109.54 65.2213C108.391 64.0614 107.484 62.684 106.872 61.1694C106.261 59.6548 105.956 58.0334 105.977 56.3997ZM29.8672 56.5757C29.8485 53.3134 31.1242 50.1772 33.414 47.8564C35.7038 45.5357 38.8202 44.2204 42.0781 44.1998C48.7188 44.1998 54.3398 49.6758 54.4023 56.2158C54.4727 63.2252 48.7891 68.7599 41.5117 68.7756C35.3398 68.7717 29.8867 63.0648 29.8672 56.5757ZM4.40234 43.8321V19.1897H10.6016V43.8321H4.40234Z" fill="#472B53"/>
<path d="M15.0586 28.46V33.2476C16.3867 33.2476 17.6406 33.228 18.8984 33.2476C20.4414 33.275 21.3594 34.0573 21.3984 35.3285C21.4375 36.6741 20.5234 37.5111 18.8867 37.562C17.6328 37.5972 16.3789 37.562 15.0547 37.562V53.5991H25.6641C25.9648 52.5938 26.207 51.6042 26.5508 50.6459C27.7514 47.3096 29.9893 44.4471 32.9354 42.4792C35.8816 40.5113 39.3806 39.5418 42.918 39.7133C46.4063 39.8683 49.7534 41.1374 52.4694 43.3348C55.1854 45.5322 57.1276 48.5425 58.0117 51.9249C58.4023 53.4113 59.0156 53.6734 60.3789 53.6655C73.6055 53.6186 86.8359 53.6382 100.066 53.6382H101.855C102.547 50.2626 103.859 47.2937 106.23 44.8999C110.801 40.2844 116.305 38.6415 122.57 40.3235C128.582 41.9546 132.523 45.9482 134.172 51.9914C134.562 53.3761 135.105 53.7125 136.43 53.6695C139.445 53.5717 142.465 53.6382 145.586 53.6382V48.0135C144.754 48.0135 143.984 48.0369 143.219 48.0135C141.633 47.947 140.91 47.2312 140.875 45.6431C140.844 43.4918 140.875 41.3405 140.875 39.1891C140.875 38.7119 140.836 38.2347 140.809 37.5815C139.52 37.5815 138.312 37.6011 137.109 37.5815C135.359 37.5424 134.414 36.7249 134.461 35.3363C134.5 34.0299 135.441 33.2711 137.109 33.2476C138.316 33.2476 139.527 33.2476 140.703 33.2476C141.238 29.7273 140.176 28.456 136.797 28.456H15.0586V28.46ZM83.8086 33.2476C84.5893 33.2062 85.3716 33.2062 86.1523 33.2476C86.677 33.2589 87.1761 33.4766 87.5416 33.8536C87.9071 34.2306 88.1097 34.7366 88.1055 35.262C88.1641 36.4355 87.5156 37.3195 86.3555 37.4212C84.7086 37.5581 83.0532 37.5581 81.4062 37.4212C80.2344 37.3312 79.582 36.498 79.6172 35.3011C79.6563 34.0377 80.3984 33.3454 81.6367 33.2241C82.3398 33.2085 83.0781 33.2476 83.8086 33.2476Z" fill="white"/>
<path d="M14.9766 24.0947H44.5313C44.601 23.7185 44.6479 23.3384 44.6719 22.9565C44.6719 17.191 44.6523 11.4254 44.6992 5.65991C44.6992 4.58817 44.4258 4.2244 43.3047 4.23613C37.7422 4.29089 32.1797 4.27525 26.6172 4.23613C25.9356 4.1953 25.2555 4.33681 24.6466 4.64614C24.0377 4.95546 23.522 5.42146 23.1523 5.9963C20.6875 9.57531 18.1289 13.0878 15.6758 16.6746C15.2719 17.3165 15.0417 18.0525 15.0078 18.8103C14.9141 20.5235 14.9766 22.2329 14.9766 24.0947Z" fill="white"/>
<path d="M73.3984 4.3261H49.0742V24.0908H73.3984V4.3261Z" fill="white"/>
<path d="M77.9375 4.34566V24.0869H108.406C108.113 23.6293 107.883 23.2303 107.625 22.8587C103.645 17.2888 99.6602 11.7344 95.7305 6.14885C95.3404 5.52994 94.792 5.02687 94.1422 4.69189C93.4924 4.35692 92.7648 4.20225 92.0352 4.24396C87.793 4.29481 83.5469 4.24396 79.3008 4.26352C78.875 4.26352 78.4453 4.30263 77.9375 4.34566Z" fill="white"/>
<path d="M105.977 56.3997C105.984 58.8414 106.717 61.2257 108.081 63.2492C109.446 65.2727 111.381 66.844 113.64 67.763C115.899 68.6821 118.38 68.9073 120.768 68.4102C123.155 67.9131 125.341 66.716 127.047 64.9713C128.753 63.2266 129.902 61.0132 130.347 58.6126C130.793 56.2121 130.516 53.733 129.551 51.4908C128.585 49.2485 126.976 47.3446 124.926 46.0212C122.877 44.6978 120.481 44.0147 118.043 44.0589C114.819 44.1255 111.75 45.4551 109.494 47.7624C107.238 50.0696 105.975 53.1706 105.977 56.3997ZM118.316 64.4143C116.74 64.4227 115.196 63.9633 113.881 63.0939C112.565 62.2245 111.536 60.9842 110.924 59.5296C110.311 58.075 110.143 56.4713 110.44 54.9211C110.738 53.3708 111.487 51.9436 112.594 50.8195C113.7 49.6954 115.115 48.9249 116.659 48.6053C118.203 48.2857 119.806 48.4314 121.268 49.0238C122.729 49.6163 123.982 50.629 124.869 51.9341C125.755 53.2392 126.236 54.7782 126.25 56.3566C126.257 58.4763 125.427 60.5129 123.941 62.0223C122.455 63.5318 120.433 64.3916 118.316 64.4143Z" fill="white"/>
<path d="M29.8672 56.5757C29.8867 63.0648 35.336 68.7717 41.5078 68.756C48.7891 68.756 54.4727 63.2057 54.3985 56.1963C54.336 49.6485 48.707 44.1606 42.0742 44.1802C40.4597 44.1909 38.8632 44.5202 37.3758 45.149C35.8884 45.7779 34.5394 46.694 33.4057 47.8452C32.2721 48.9963 31.3761 50.3599 30.7689 51.8579C30.1618 53.3559 29.8554 54.959 29.8672 56.5757ZM42.1328 64.3987C40.5557 64.401 39.0133 63.9351 37.7006 63.0599C36.3878 62.1847 35.3636 60.9394 34.7574 59.4815C34.1512 58.0236 33.9902 56.4185 34.2947 54.869C34.5993 53.3195 35.3557 51.8952 36.4685 50.776C37.5812 49.6569 39.0003 48.8932 40.5463 48.5814C42.0924 48.2696 43.6961 48.4237 45.1547 49.0243C46.6133 49.6249 47.8614 50.645 48.7412 51.9557C49.621 53.2663 50.093 54.8087 50.0977 56.3879C50.1117 57.4416 49.9157 58.4874 49.521 59.4643C49.1264 60.4411 48.541 61.3293 47.7993 62.0767C47.0576 62.8242 46.1743 63.416 45.2013 63.8173C44.2283 64.2187 43.1851 64.4217 42.1328 64.4143V64.3987Z" fill="white"/>
<path d="M4.40233 43.8321H10.6016V19.1897H4.40233V43.8321Z" fill="white"/>
<path d="M83.8086 33.2476C83.0781 33.2476 82.3399 33.1928 81.6172 33.2476C80.3828 33.361 79.6367 34.0612 79.5977 35.3246C79.5625 36.5215 80.2305 37.3547 81.3867 37.4446C83.0336 37.5815 84.689 37.5815 86.3359 37.4446C87.5078 37.3429 88.1445 36.4472 88.0859 35.2855C88.0902 34.76 87.8876 34.2541 87.5221 33.8771C87.1565 33.5001 86.6575 33.2824 86.1328 33.2711C85.3521 33.2297 84.5698 33.2297 83.7891 33.2711L83.8086 33.2476Z" fill="#472B53"/>
<path d="M118.316 64.4143C119.892 64.3895 121.424 63.8982 122.721 63.0023C124.018 62.1065 125.02 60.8462 125.603 59.3804C126.185 57.9146 126.321 56.309 125.993 54.766C125.665 53.2231 124.888 51.8118 123.761 50.7103C122.633 49.6088 121.205 48.8664 119.656 48.5767C118.107 48.2869 116.508 48.4629 115.059 49.0823C113.61 49.7017 112.377 50.7368 111.515 52.0572C110.653 53.3775 110.2 54.9239 110.215 56.5014C110.22 57.556 110.434 58.5991 110.846 59.5699C111.257 60.5408 111.857 61.42 112.611 62.1564C113.365 62.8928 114.258 63.4716 115.237 63.8593C116.217 64.2469 117.263 64.4356 118.316 64.4143ZM114.543 56.3566C114.548 55.8707 114.648 55.3905 114.838 54.9433C115.028 54.4961 115.304 54.0908 115.65 53.7505C115.997 53.4101 116.406 53.1415 116.857 52.9598C117.307 52.7781 117.788 52.687 118.273 52.6916C118.759 52.6962 119.238 52.7965 119.685 52.9867C120.131 53.1769 120.536 53.4534 120.876 53.8003C121.216 54.1471 121.484 54.5576 121.666 55.0083C121.847 55.459 121.938 55.9411 121.934 56.427C121.934 58.4415 120.277 60.1586 118.387 60.1156C117.888 60.1218 117.392 60.0294 116.929 59.8438C116.466 59.6582 116.044 59.383 115.687 59.0339C115.33 58.6848 115.045 58.2687 114.849 57.8093C114.652 57.3499 114.549 56.8563 114.543 56.3566Z" fill="#472B53"/>
<path d="M42.1328 64.4143C43.7084 64.4004 45.2445 63.9195 46.5475 63.0324C47.8504 62.1453 48.8618 60.8917 49.4541 59.4297C50.0463 57.9677 50.1929 56.3628 49.8754 54.8175C49.5578 53.2721 48.7903 51.8556 47.6696 50.7465C46.549 49.6375 45.1255 48.8856 43.5786 48.5857C42.0317 48.2858 40.4308 48.4514 38.9778 49.0616C37.5247 49.6717 36.2847 50.6991 35.4141 52.0141C34.5436 53.3291 34.0814 54.8728 34.086 56.4505C34.1025 58.5738 34.9586 60.604 36.4667 62.0966C37.9749 63.5893 40.0123 64.4226 42.1328 64.4143ZM38.3907 56.4114C38.3883 55.9234 38.4821 55.4398 38.6664 54.988C38.8508 54.5363 39.1222 54.1254 39.4651 53.7787C39.8081 53.432 40.2159 53.1564 40.6652 52.9675C41.1146 52.7786 41.5967 52.6802 42.084 52.6779C42.5713 52.6756 43.0544 52.7694 43.5055 52.954C43.9566 53.1386 44.367 53.4104 44.7132 53.7538C45.0594 54.0972 45.3347 54.5056 45.5233 54.9555C45.712 55.4055 45.8102 55.8882 45.8125 56.3762C45.8125 58.375 44.1836 60.1312 42.2969 60.1234C41.2891 60.1435 40.314 59.7651 39.5828 59.0703C38.8517 58.3755 38.4233 57.4202 38.3907 56.4114Z" fill="#472B53"/>
<path d="M114.543 56.3566C114.549 56.8563 114.652 57.3499 114.849 57.8093C115.045 58.2687 115.33 58.6848 115.687 59.0339C116.044 59.383 116.466 59.6582 116.929 59.8438C117.392 60.0294 117.888 60.1218 118.387 60.1156C120.277 60.1586 121.926 58.4415 121.934 56.427C121.938 55.9411 121.847 55.459 121.666 55.0083C121.484 54.5576 121.216 54.1471 120.876 53.8003C120.536 53.4534 120.131 53.1769 119.685 52.9867C119.238 52.7965 118.759 52.6962 118.273 52.6916C117.788 52.687 117.307 52.7781 116.857 52.9598C116.406 53.1415 115.997 53.4101 115.65 53.7505C115.304 54.0908 115.028 54.4961 114.838 54.9433C114.648 55.3905 114.548 55.8707 114.543 56.3566Z" fill="white"/>
<path d="M38.3906 56.4114C38.4233 57.4202 38.8516 58.3755 39.5828 59.0703C40.314 59.7651 41.2891 60.1435 42.2969 60.1234C44.1758 60.1234 45.8125 58.375 45.8125 56.3762C45.8102 55.8882 45.7119 55.4055 45.5233 54.9555C45.3347 54.5056 45.0594 54.0972 44.7132 53.7538C44.3669 53.4104 43.9566 53.1386 43.5054 52.954C43.0543 52.7694 42.5713 52.6756 42.084 52.6779C41.5967 52.6802 41.1146 52.7786 40.6652 52.9675C40.2159 53.1564 39.8081 53.432 39.4651 53.7787C39.1221 54.1254 38.8507 54.5363 38.6664 54.988C38.482 55.4398 38.3883 55.9234 38.3906 56.4114Z" fill="white"/>
</g>
<defs>
<clipPath id="clip0_3_543">
<rect width="150" height="73" fill="white" transform="matrix(-1 0 0 1 150 0)"/>
</clipPath>
</defs>
</svg>
