<svg width="150" height="116" viewBox="0 0 150 116" fill="none" xmlns="http://www.w3.org/2000/svg">
<g clip-path="url(#clip0_3_600)">
<path d="M25.6184 35.3895C26.0104 26.5389 26.4281 17.8399 26.7685 9.13826C26.9671 4.10939 28.6999 2.35263 33.6817 2.35263H116.78C121.589 2.35263 123.278 4.06059 123.471 8.9071C123.814 17.488 124.222 26.0689 124.608 34.6498C124.634 34.8911 124.675 35.1305 124.732 35.3664C130.387 35.4255 136.411 30.4994 138.141 24.4072C138.365 23.6367 138.657 22.7943 138.564 22.0212C138.471 21.2481 138.151 20.3723 137.61 19.9177C135.805 18.4024 134.773 16.6045 134.773 14.2365C134.773 11.7297 134.74 9.22044 134.773 6.71372C134.861 3.02554 137.569 0.187497 141.106 0.0128478C145.175 -0.190053 148.239 2.2011 148.528 6.10501C148.739 9.03552 148.646 11.9968 148.546 14.9376C148.473 17.0694 147.347 18.6926 145.64 19.9768C145.126 20.3547 144.761 20.8999 144.608 21.5178C142.893 32.7184 136.955 38.9955 125.9 41.212C125.643 41.2608 125.421 41.3533 125.049 41.4689V64.0962H25.3528V41.4843C24.275 41.2634 23.308 41.0964 22.3565 40.8679C13.1767 38.6719 7.04476 31.6705 5.67294 21.9518C5.52005 21.1552 5.09668 20.4351 4.47389 19.9125C2.69981 18.4691 1.68642 16.6944 1.64 14.424C1.58843 11.8556 1.53944 9.28722 1.64 6.71885C1.81793 2.51957 4.72917 -0.110434 8.90393 6.00354e-06C12.7228 0.107877 15.4098 2.98445 15.451 7.03733C15.4716 9.34886 15.433 11.6784 15.451 13.9976C15.482 16.5043 14.4943 18.464 12.4805 19.9716C12.0601 20.2901 11.6037 20.9168 11.6037 21.4099C11.3949 28.0286 18.6382 35.3099 25.6184 35.3895ZM116.643 9.22815H33.5915C33.1841 17.4649 32.787 25.5707 32.4002 33.4119C35.167 33.2501 37.7224 32.9701 40.2778 32.965C60.36 32.929 80.4413 32.929 100.522 32.965C106.259 32.965 111.997 33.1165 117.842 33.1987C117.461 25.4987 117.069 17.4315 116.656 9.22815H116.643ZM42.4258 55.1428C44.167 55.1387 45.8352 54.4459 47.0635 53.2167C48.2918 51.9875 48.9795 50.3226 48.9754 48.5884C48.9713 46.8541 48.2757 45.1925 47.0416 43.9691C45.8075 42.7456 44.136 42.0606 42.3948 42.0647C41.5327 42.0667 40.6794 42.2379 39.8837 42.5684C39.0879 42.8989 38.3653 43.3822 37.7571 43.9909C37.1489 44.5995 36.6671 45.3215 36.339 46.1156C36.011 46.9097 35.8432 47.7605 35.8452 48.6192C35.8472 49.4779 36.019 50.3278 36.3509 51.1204C36.6827 51.913 37.1679 52.6327 37.779 53.2385C39.0131 54.4619 40.6846 55.1469 42.4258 55.1428ZM114.423 48.6038C114.43 47.7424 114.265 46.8882 113.937 46.0911C113.609 45.294 113.125 44.5699 112.513 43.9612C111.902 43.3524 111.174 42.8712 110.373 42.5456C109.573 42.22 108.715 42.0565 107.85 42.0647C106.552 42.0662 105.283 42.451 104.205 43.1705C103.126 43.8899 102.286 44.9117 101.79 46.1067C101.295 47.3017 101.166 48.6162 101.42 49.8842C101.674 51.1521 102.3 52.3166 103.218 53.2303C104.137 54.144 105.307 54.7661 106.58 55.0177C107.853 55.2694 109.173 55.1395 110.372 54.6443C111.571 54.1492 112.596 53.3111 113.317 52.2359C114.038 51.1607 114.423 49.8968 114.423 48.6038ZM77.8455 48.5884C77.8455 50.8382 77.8455 53.0881 77.8455 55.338C77.8455 56.689 78.3148 57.7163 79.8852 57.6752C81.3653 57.6367 81.7366 56.6042 81.7366 55.3637C81.7366 50.8639 81.7366 46.3642 81.7366 41.8644C81.7366 40.5237 81.306 39.4732 79.715 39.5272C78.2452 39.5785 77.8532 40.5982 77.8455 41.8387C77.8352 44.0886 77.8455 46.3385 77.8455 48.5884ZM72.4046 48.7245C72.4046 46.4746 72.4046 44.2247 72.4046 41.9748C72.4046 40.6624 72.0668 39.5503 70.481 39.5169C68.8952 39.4835 68.5109 40.5776 68.5084 41.9029C68.5084 46.341 68.5084 50.7792 68.5084 55.2173C68.5084 56.5246 68.8075 57.6675 70.4114 57.6727C72.1158 57.6727 72.4124 56.481 72.4124 55.1043C72.4038 52.976 72.4012 50.8494 72.4046 48.7245ZM59.1687 48.442C59.1687 50.7535 59.1687 53.065 59.1687 55.3766C59.1687 56.6607 59.5374 57.6393 61.0201 57.6675C62.4564 57.6932 63.0134 56.8097 63.0159 55.4947C63.0159 50.8716 63.0159 46.2486 63.0159 41.6255C63.0159 40.403 62.4796 39.5529 61.1413 39.522C59.6818 39.4886 59.1738 40.3747 59.179 41.6949C59.1764 43.9422 59.1712 46.1921 59.1687 48.442ZM91.0815 48.6217C91.0815 46.3693 91.0686 44.1194 91.0815 41.8695C91.0815 40.5057 90.6921 39.4758 89.1011 39.5195C87.6365 39.5606 87.2265 40.5468 87.229 41.8181C87.229 46.3214 87.229 50.8228 87.229 55.3226C87.229 56.6916 87.6726 57.7009 89.2378 57.6727C90.7179 57.647 91.0892 56.6453 91.0841 55.3611C91.0712 53.1241 91.0789 50.8716 91.0815 48.6217Z" fill="#472B53"/>
<path d="M75.3262 68.1208H141.779C147.303 68.1208 149.977 70.7893 149.99 76.3088C149.99 77.5621 150.023 78.818 149.956 80.0688C149.879 81.7444 149.195 83.3356 148.032 84.5487C146.869 85.7618 145.305 86.5151 143.628 86.6695C142.942 86.7308 142.254 86.7566 141.565 86.7466C97.265 86.7466 52.9628 86.7552 8.65896 86.7723C5.22426 86.7723 2.2434 85.899 0.956672 82.5525C-0.317287 79.2401 -0.311774 75.5747 0.972144 72.2661C2.11704 69.2817 4.72401 68.1028 7.93438 68.108C27.0006 68.1336 46.0676 68.1379 65.1356 68.1208H75.3262Z" fill="#472B53"/>
<path d="M11.6192 90.7584H33.7952C33.8287 91.4621 33.8803 92.0734 33.8803 92.6821C33.8803 98.4472 33.8803 104.213 33.8803 109.98C33.8803 113.126 32.3073 115.035 29.195 115.145C24.8578 115.299 20.5077 115.304 16.173 115.145C13.1354 115.029 11.6089 113.155 11.6089 110.103C11.6166 103.713 11.6192 97.3411 11.6192 90.7584Z" fill="#472B53"/>
<path d="M138.615 90.7661C138.615 97.7495 138.657 104.571 138.592 111.393C138.574 113.303 136.694 115.032 134.271 115.114C129.748 115.273 125.207 115.312 120.689 115.096C117.842 114.96 116.36 113.008 116.357 110.183C116.357 104.291 116.357 98.3993 116.357 92.5074C116.357 91.9578 116.414 91.4082 116.452 90.7584L138.615 90.7661Z" fill="#472B53"/>
<path d="M4.82971 64.258C4.82971 62.2392 4.70593 60.3001 4.85807 58.3815C5.10046 55.3303 7.59655 52.3998 10.6496 52.0428C13.8755 51.6653 17.1606 51.786 20.4199 51.786C20.7345 51.786 21.3096 52.4589 21.3173 52.8313C21.3869 56.2678 21.3998 59.7094 21.3018 63.1459C21.3018 63.5311 20.4973 64.2092 20.0564 64.2169C15.0461 64.2862 10.0359 64.258 4.82971 64.258Z" fill="#472B53"/>
<path d="M145.493 64.2605C140.232 64.2605 135.222 64.2451 130.214 64.2734C129.263 64.2734 128.861 63.9703 128.873 62.9892C128.913 59.676 128.913 56.362 128.873 53.0471C128.873 52.0916 129.188 51.6987 130.181 51.7166C132.759 51.7706 135.338 51.6422 137.901 51.7834C142.514 52.0403 145.379 55.0889 145.487 59.6786C145.521 61.1631 145.493 62.6682 145.493 64.2605Z" fill="#472B53"/>
<path d="M116.656 9.22815C117.061 17.4315 117.461 25.4988 117.842 33.191C111.997 33.1088 106.259 32.965 100.522 32.9573C80.4395 32.9299 60.3582 32.9299 40.2778 32.9573C37.7224 32.9573 35.167 33.2424 32.4001 33.4042C32.7869 25.563 33.1737 17.4572 33.5915 9.22044L116.656 9.22815Z" fill="white"/>
<path d="M42.4258 55.1428C41.1295 55.1367 39.8641 54.7486 38.789 54.0273C37.7139 53.306 36.8772 52.2838 36.3845 51.0896C35.8917 49.8954 35.7649 48.5827 36.02 47.3168C36.2752 46.051 36.9008 44.8887 37.8181 43.9764C38.7354 43.0642 39.9033 42.4428 41.1746 42.1907C42.4459 41.9386 43.7637 42.0669 44.9619 42.5596C46.1601 43.0523 47.185 43.8872 47.9075 44.9592C48.63 46.0311 49.0177 47.2921 49.0218 48.5832C49.0259 49.4467 48.8581 50.3023 48.5279 51.1007C48.1977 51.8991 47.7119 52.6243 47.0984 53.2343C46.485 53.8444 45.7561 54.3272 44.954 54.6548C44.152 54.9824 43.2926 55.1483 42.4258 55.1428Z" fill="white"/>
<path d="M114.423 48.6038C114.427 49.465 114.26 50.3186 113.931 51.115C113.601 51.9114 113.117 52.6347 112.505 53.243C111.892 53.8513 111.165 54.3324 110.365 54.6586C109.564 54.9847 108.707 55.1493 107.842 55.1428C106.101 55.1428 104.431 54.4539 103.2 53.2276C101.969 52.0013 101.277 50.338 101.277 48.6038C101.277 46.8695 101.969 45.2063 103.2 43.98C104.431 42.7537 106.101 42.0647 107.842 42.0647C108.708 42.0555 109.566 42.2182 110.368 42.5433C111.17 42.8685 111.898 43.3496 112.511 43.9584C113.123 44.5673 113.608 45.2917 113.936 46.0893C114.265 46.8869 114.43 47.7417 114.423 48.6038Z" fill="white"/>
<path d="M77.8455 48.5884C77.8455 46.3385 77.8455 44.0886 77.8455 41.8361C77.8455 40.5879 78.2452 39.5683 79.715 39.5246C81.306 39.4707 81.734 40.5211 81.7366 41.8618C81.7469 46.3616 81.7469 50.8614 81.7366 55.3612C81.7366 56.6119 81.3653 57.6444 79.8851 57.6727C78.3148 57.7138 77.8532 56.6864 77.8455 55.3355C77.8377 53.0881 77.8455 50.8383 77.8455 48.5884Z" fill="white"/>
<path d="M72.4046 48.7245C72.4046 50.8511 72.4046 52.9768 72.4046 55.1017C72.4046 56.481 72.1081 57.6701 70.4036 57.6701C68.7997 57.6701 68.5006 56.522 68.5006 55.2147C68.5006 50.7766 68.5006 46.3385 68.5006 41.9003C68.5006 40.5751 68.8719 39.4809 70.4732 39.5143C72.0746 39.5477 72.3943 40.6598 72.3969 41.9722C72.4055 44.2239 72.4081 46.4746 72.4046 48.7245Z" fill="white"/>
<path d="M59.1712 48.442C59.1712 46.1921 59.1712 43.9422 59.1712 41.6897C59.1712 40.3696 59.674 39.4835 61.1335 39.5169C62.4718 39.5477 63.0056 40.3979 63.0082 41.6204C63.0219 46.2435 63.0219 50.8665 63.0082 55.4896C63.0082 56.8046 62.4486 57.6881 61.0123 57.6624C59.5296 57.6342 59.1531 56.6505 59.1609 55.3714C59.1789 53.0702 59.1686 50.7561 59.1712 48.442Z" fill="white"/>
<path d="M91.0789 48.6218C91.0789 50.8717 91.0789 53.1241 91.0789 55.374C91.0789 56.6582 90.7127 57.647 89.2326 57.6855C87.6674 57.7138 87.2213 56.7044 87.2239 55.3355C87.2239 50.834 87.2239 46.3325 87.2239 41.831C87.2239 40.5468 87.6313 39.5734 89.0959 39.5323C90.6869 39.4887 91.0866 40.5186 91.0763 41.8824C91.0686 44.1194 91.0815 46.3693 91.0789 48.6218Z" fill="white"/>
</g>
<defs>
<clipPath id="clip0_3_600">
<rect width="150" height="115.263" fill="white"/>
</clipPath>
</defs>
</svg>
