<svg width="50" height="50" viewBox="0 0 50 50" fill="none" xmlns="http://www.w3.org/2000/svg">
<g clip-path="url(#clip0_4_661)">
<path d="M7.07071 32.4087C9.47239 31.0169 11.8056 29.6547 14.1495 28.3101C15.2764 27.6634 16.4518 27.0746 17.7762 27.0571C18.6263 27.037 19.4746 27.1465 20.292 27.3818C22.6803 28.1067 25.0363 28.9366 27.4111 29.7073C27.9097 29.8542 28.4159 29.9734 28.9276 30.0643C31.3145 30.5507 32.4683 32.7388 31.5133 34.974C31.4695 35.0749 31.4666 35.189 31.5052 35.292C31.9942 35.0575 32.5032 34.8568 32.9707 34.5846C35.919 32.8776 38.8553 31.1503 41.7997 29.4365C43.1133 28.6712 44.4727 28.0191 46.0227 27.9234C47.4022 27.8372 48.6017 28.236 49.3808 29.4419C50.176 30.6733 50.2001 32.0018 49.5084 33.2764C49.2316 33.7753 48.8355 34.1975 48.3559 34.5051C42.9011 37.9071 37.4261 41.2755 31.9565 44.6546C30.1513 45.7702 28.2345 45.9776 26.2022 45.4198C22.6453 44.4457 19.0831 43.508 15.5263 42.5244C14.9487 42.3641 14.4665 42.3628 13.9856 42.74C13.7271 42.9188 13.4579 43.0817 13.1797 43.2277C13.4698 43.7465 13.7492 44.2382 14.0205 44.7327C14.7042 45.9776 14.3778 47.1579 13.1474 47.8747C12.3925 48.313 11.6341 48.7442 10.872 49.1681C9.63223 49.8553 8.4314 49.5346 7.73695 48.3085C5.26543 43.9477 2.80107 39.5864 0.343872 35.2246C-0.334454 34.0187 0.00941011 32.8115 1.20891 32.1177C1.97902 31.6686 2.75226 31.2298 3.52865 30.8013C4.75366 30.1196 5.94644 30.4618 6.65969 31.6879L7.07071 32.4087ZM12.3711 41.8144C12.9285 41.4924 13.4456 41.2148 13.9386 40.9009C14.1066 40.7912 14.2969 40.7206 14.4956 40.6942C14.6943 40.6679 14.8964 40.6865 15.087 40.7487C18.9528 41.7969 22.824 42.8235 26.6884 43.8718C28.2439 44.2935 29.7134 44.1412 31.0915 43.2897C36.5629 39.9151 42.0284 36.532 47.4882 33.1403C47.8317 32.9067 48.092 32.5692 48.231 32.1769C48.7481 30.6625 47.7421 29.4136 46.1517 29.5321C44.842 29.6291 43.7017 30.195 42.5935 30.839C39.6062 32.5771 36.6215 34.3205 33.6396 36.0694C32.1231 36.9586 30.4965 37.2591 28.7946 36.8778C26.5568 36.3752 24.3365 35.7891 22.1121 35.2273C21.3209 35.0279 21.0281 34.6641 21.1718 34.1238C21.3156 33.5836 21.7588 33.4583 22.5459 33.6671C24.3432 34.1467 26.1377 34.6372 27.943 35.0818C29.0834 35.3634 30.0089 34.8244 30.2198 33.8315C30.436 32.8156 29.8034 31.8967 28.6831 31.6757C26.0611 31.1449 23.5534 30.2462 21.0429 29.3489C20.335 29.0956 19.6204 28.818 18.8857 28.6887C17.4874 28.4394 16.2436 28.9865 15.0642 29.6615C12.7606 30.9697 10.4691 32.309 8.17618 33.6388C8.07679 33.6967 7.98813 33.7735 7.87665 33.8503L12.3711 41.8144ZM4.7859 32.0099C4.53472 32.1204 4.39234 32.1689 4.26339 32.2416C3.53088 32.6521 2.80152 33.0666 2.07528 33.4852C1.56217 33.7816 1.50307 33.9904 1.79321 34.5051C4.21906 38.8076 6.64626 43.1119 9.0748 47.4179C9.3918 47.9771 9.59597 48.0269 10.1736 47.7036C10.8613 47.3164 11.5477 46.928 12.2327 46.5381C12.8304 46.1959 12.8828 45.9992 12.5457 45.4064C11.3502 43.283 10.1534 41.16 8.95525 39.0375C7.74635 36.8818 6.53074 34.7261 5.30572 32.5865C5.17812 32.3629 4.95514 32.2012 4.7859 32.0099Z" fill="#6B315A"/>
<path d="M42.6271 10.6978C42.6271 12.5652 42.752 14.442 42.6042 16.2987C42.1422 22.0827 37.5309 27.1985 31.8585 28.4853C30.1123 28.8895 28.5434 28.3909 27.0444 27.7051C21.5896 25.2099 18.6842 20.9133 18.4693 14.8961C18.3605 11.87 18.4545 8.83309 18.4451 5.8043C18.4451 5.30444 18.6345 4.9959 19.1019 4.7938C22.7662 3.23359 26.4252 1.63835 30.1016 0.0862271C30.4253 -0.0319458 30.7808 -0.0285957 31.1023 0.0956584C34.7625 1.64239 38.4094 3.22416 42.0629 4.78706C42.5236 4.98377 42.7345 5.29231 42.7238 5.79756C42.7104 7.43052 42.7238 9.06349 42.7238 10.6978H42.6271ZM41.0152 11.0508H41.1025C41.1025 9.55257 41.1025 8.05434 41.1025 6.55611C41.1025 6.27721 41.0515 6.10879 40.76 5.98484C37.4745 4.589 34.1984 3.17161 30.9129 1.77578C30.7044 1.69399 30.4735 1.69064 30.2627 1.76635C26.9866 3.16083 23.7092 4.58092 20.425 5.97541C20.1255 6.1034 20.0476 6.26778 20.0489 6.57766C20.061 9.35586 20.0395 12.1327 20.061 14.9096C20.0768 17.5117 20.9122 20.0422 22.4476 22.1396C23.9831 24.2371 26.1401 25.7941 28.6106 26.5882C29.4461 26.8577 30.2775 27.1433 31.2097 26.9601C36.3824 25.9442 40.5303 21.4576 40.9897 16.1949C41.1442 14.4919 41.0179 12.766 41.0179 11.0481L41.0152 11.0508Z" fill="#6B315A"/>
<path d="M12.3711 41.8144L7.87665 33.8503C7.98814 33.7708 8.07679 33.6967 8.17619 33.6388C10.4691 32.309 12.7606 30.9697 15.0588 29.6547C16.2382 28.9811 17.4766 28.4327 18.8803 28.682C19.615 28.8167 20.3296 29.0862 21.0375 29.3421C23.548 30.2395 26.0558 31.1381 28.6777 31.669C29.798 31.8953 30.4306 32.8142 30.2144 33.8247C30.0035 34.8177 29.078 35.3566 27.9376 35.075C26.1323 34.6304 24.3378 34.14 22.5406 33.6603C21.7534 33.4515 21.3021 33.593 21.1665 34.1171C21.0308 34.6412 21.3209 35.0211 22.1067 35.2206C24.3311 35.7824 26.5514 36.3685 28.7892 36.871C30.4911 37.2537 32.1177 36.9532 33.6342 36.0626C36.6153 34.3129 39.5999 32.5695 42.5881 30.8323C43.6963 30.1883 44.8367 29.6197 46.1463 29.5254C47.7367 29.4068 48.7428 30.6558 48.2256 32.1702C48.0866 32.5624 47.8264 32.8999 47.4828 33.1335C42.0276 36.5342 36.562 39.9173 31.0861 43.283C29.708 44.1318 28.2385 44.2867 26.6831 43.865C22.8186 42.8168 18.9475 41.7901 15.0817 40.7419C14.8911 40.6797 14.689 40.6611 14.4902 40.6875C14.2915 40.7138 14.1012 40.7844 13.9332 40.8942C13.4456 41.2148 12.9285 41.4978 12.3711 41.8144Z" fill="white"/>
<path d="M4.78589 32.0099C4.95514 32.1944 5.17811 32.3629 5.30572 32.5865C6.53074 34.7315 7.74098 36.8858 8.95525 39.0375C10.1534 41.16 11.3502 43.2825 12.5457 45.405C12.8828 46.0046 12.8304 46.1945 12.2327 46.5368C11.5477 46.9275 10.8613 47.316 10.1735 47.7022C9.59596 48.0256 9.39179 47.9717 9.07479 47.4166C6.64625 43.1114 4.21906 38.8076 1.7932 34.5051C1.50307 33.9904 1.56217 33.7816 2.07528 33.4852C2.80151 33.0657 3.53088 32.6512 4.26338 32.2416C4.39233 32.1688 4.53471 32.1203 4.78589 32.0099ZM5.03976 34.5698C5.04346 34.4475 5.02254 34.3258 4.97824 34.2118C4.93394 34.0978 4.86717 33.994 4.78194 33.9065C4.6967 33.819 4.59475 33.7497 4.48218 33.7027C4.36961 33.6556 4.24873 33.6318 4.12679 33.6328C4.00484 33.6337 3.88433 33.6592 3.77247 33.7079C3.66061 33.7567 3.55969 33.8275 3.47576 33.9162C3.39182 34.005 3.3266 34.1098 3.28399 34.2244C3.24138 34.339 3.22225 34.4611 3.22776 34.5833C3.23835 34.8183 3.33933 35.04 3.50947 35.2019C3.67962 35.3639 3.9057 35.4533 4.14023 35.4516C4.37476 35.4499 4.59949 35.357 4.76722 35.1926C4.93496 35.0282 5.03264 34.8049 5.03976 34.5698Z" fill="white"/>
<path d="M41.0179 11.0481C41.0179 12.7633 41.1442 14.4892 40.9951 16.1922C40.5357 21.4549 36.3878 25.9415 31.2151 26.9574C30.2829 27.1406 29.4514 26.855 28.6159 26.5855C26.1445 25.7923 23.9863 24.2357 22.4498 22.1382C20.9133 20.0407 20.0772 17.5096 20.061 14.9069C20.0395 12.13 20.061 9.35316 20.0489 6.57497C20.0489 6.26508 20.1255 6.10071 20.425 5.97271C23.7092 4.58092 26.9866 3.16083 30.2721 1.76635C30.4829 1.69064 30.7138 1.69399 30.9223 1.77578C34.2078 3.17161 37.4839 4.589 40.7694 5.98484C41.0609 6.10879 41.1133 6.27721 41.1119 6.55611C41.1025 8.05434 41.1025 9.55257 41.1025 11.0481H41.0179ZM30.5905 23.1161C32.3256 23.1116 34.0204 22.5916 35.4611 21.6216C36.9018 20.6517 38.0237 19.2754 38.6851 17.6664C39.3466 16.0574 39.518 14.2879 39.1777 12.5813C38.8374 10.8747 38.0007 9.3075 36.7732 8.07751C35.5456 6.84751 33.9823 6.00989 32.2805 5.67038C30.5787 5.33087 28.8148 5.5047 27.2115 6.16992C25.6081 6.83515 24.2372 7.96194 23.2718 9.40805C22.3063 10.8542 21.7897 12.5548 21.787 14.2952C21.7888 16.636 22.7171 18.8803 24.3679 20.5348C26.0186 22.1894 28.2568 23.1188 30.5905 23.1188V23.1161Z" fill="white"/>
<path d="M5.03976 34.5711C5.04107 34.752 4.98856 34.9292 4.88895 35.08C4.78935 35.2308 4.64717 35.3484 4.48059 35.4177C4.31402 35.487 4.13062 35.505 3.95383 35.4692C3.77705 35.4334 3.61492 35.3456 3.48816 35.2169C3.36141 35.0882 3.27579 34.9246 3.24225 34.7468C3.20872 34.5691 3.22879 34.3853 3.2999 34.2191C3.37101 34.0529 3.48994 33.9117 3.64146 33.8136C3.79299 33.7155 3.97024 33.6649 4.15055 33.6684C4.38693 33.6726 4.61228 33.7694 4.77845 33.9381C4.94461 34.1068 5.0384 34.334 5.03976 34.5711Z" fill="#6B315A"/>
<path d="M30.5905 23.1188C28.8534 23.1175 27.1557 22.5994 25.7123 21.63C24.2688 20.6606 23.1444 19.2836 22.4814 17.6731C21.8183 16.0626 21.6464 14.291 21.9874 12.5825C22.3284 10.874 23.1669 9.30531 24.3969 8.07493C25.6269 6.84456 27.1931 6.00778 28.8974 5.67046C30.6016 5.33315 32.3673 5.51046 33.9711 6.17996C35.5748 6.84947 36.9446 7.98107 37.907 9.43161C38.8694 10.8822 39.3813 12.5864 39.3778 14.3289C39.3672 16.661 38.4372 18.8943 36.7909 20.5411C35.1445 22.1879 32.9156 23.1146 30.5905 23.1188ZM30.5905 21.502C32.0077 21.4964 33.3914 21.0696 34.5669 20.2755C35.7424 19.4814 36.6568 18.3556 37.1947 17.0404C37.7325 15.7252 37.8697 14.2796 37.5888 12.8863C37.308 11.4929 36.6216 10.2143 35.6166 9.21208C34.6116 8.20981 33.3329 7.52883 31.9422 7.25518C30.5515 6.98154 29.1112 7.1275 27.8031 7.67464C26.4951 8.22177 25.3781 9.14552 24.5932 10.3292C23.8084 11.5128 23.3909 12.9033 23.3935 14.3248C23.4017 16.234 24.1646 18.0619 25.5149 19.4075C26.8652 20.7531 28.6925 21.5063 30.5959 21.502H30.5905Z" fill="#6B315A"/>
<path d="M30.5958 21.502C29.1786 21.5018 27.7932 21.0801 26.6147 20.2904C25.4363 19.5006 24.5176 18.3782 23.9749 17.065C23.4322 15.7517 23.2897 14.3066 23.5655 12.9121C23.8412 11.5177 24.5229 10.2365 25.5243 9.23056C26.5257 8.22457 27.802 7.5389 29.1917 7.26019C30.5815 6.98148 32.0225 7.12223 33.3325 7.66465C34.6426 8.20708 35.7629 9.12684 36.552 10.3077C37.3411 11.4886 37.7636 12.8776 37.766 14.2992C37.7638 16.207 37.0081 18.0362 35.6642 19.3862C34.3203 20.7362 32.4978 21.4971 30.5958 21.502ZM29.2822 14.0271C29.0135 13.7306 28.7153 13.3871 28.3957 13.0678C27.5306 12.2028 26.3634 12.1543 25.5749 12.933C24.7864 13.7118 24.8173 14.8772 25.6864 15.7624C26.4287 16.5151 27.176 17.2647 27.9282 18.0111C28.8456 18.9179 29.943 18.9138 30.8551 17.9909C32.4034 16.4433 33.9414 14.8925 35.469 13.3386C35.5282 13.2793 35.5873 13.2187 35.6423 13.1553C36.2078 12.5046 36.3139 11.6733 35.9204 10.9524C35.5268 10.2316 34.7988 9.82473 33.9834 9.99719C33.5344 10.1066 33.1206 10.3292 32.7813 10.6439C31.6113 11.7218 30.4911 12.8549 29.2822 14.0271Z" fill="white"/>
<path d="M29.2822 14.0271C30.483 12.8549 31.6073 11.7231 32.7746 10.6426C33.1153 10.3254 33.5316 10.1013 33.9835 9.9918C34.7988 9.81934 35.5389 10.2424 35.9204 10.9471C36.3019 11.6517 36.2078 12.4992 35.6423 13.1499C35.5873 13.2133 35.5282 13.2739 35.4691 13.3332C33.9333 14.8871 32.3976 16.4406 30.8618 17.9936C29.9457 18.9165 28.847 18.9206 27.9349 18.0138C27.1827 17.2683 26.4355 16.5187 25.6931 15.7651C24.824 14.8826 24.7824 13.7333 25.5816 12.9357C26.3808 12.1381 27.5347 12.2001 28.4024 13.0704C28.7194 13.3871 29.0135 13.7306 29.2822 14.0271ZM34.6551 11.7366C34.4025 11.6867 34.2333 11.6113 34.0829 11.6369C33.9741 11.6571 33.8854 11.8067 33.7914 11.9064C32.5592 13.1459 31.3284 14.3868 30.0989 15.629C29.5858 16.1451 29.1962 16.1424 28.6777 15.629C28.2103 15.1696 27.7643 14.6859 27.2794 14.248C27.1451 14.1321 26.9168 14.1348 26.7314 14.0836C26.7731 14.2682 26.7529 14.5107 26.8657 14.6226C27.583 15.3784 28.3339 16.1046 29.0606 16.8484C29.3064 17.1017 29.4998 17.0815 29.7322 16.8403C31.2616 15.2819 32.7947 13.7253 34.3313 12.1704C34.4478 12.0324 34.5559 11.8876 34.6551 11.7366Z" fill="#6B315A"/>
<path d="M34.6551 11.7366C34.5579 11.8902 34.4516 12.0378 34.3367 12.1785C32.8037 13.736 31.2706 15.2926 29.7375 16.8484C29.5011 17.0895 29.3077 17.1097 29.0659 16.8564C28.3392 16.11 27.5884 15.3865 26.8711 14.6307C26.7596 14.5121 26.7798 14.2696 26.7368 14.0917C26.9222 14.1429 27.1572 14.1402 27.2848 14.2561C27.7643 14.6859 28.2076 15.1709 28.6777 15.629C29.1962 16.1397 29.5858 16.1424 30.0989 15.629C31.3319 14.3913 32.5619 13.1495 33.7887 11.9037C33.8827 11.808 33.9714 11.6584 34.0802 11.6342C34.2306 11.6113 34.3999 11.6867 34.6551 11.7366Z" fill="white"/>
</g>
<defs>
<clipPath id="clip0_4_661">
<rect width="50" height="49.5238" fill="white"/>
</clipPath>
</defs>
</svg>
