<svg width="166" height="73" viewBox="0 0 166 73" fill="none" xmlns="http://www.w3.org/2000/svg">
<path d="M56.3237 15.5501C53.6948 15.4942 51.0133 15.5337 48.3483 15.5238C45.6833 15.5139 42.9986 15.5238 40.3237 15.5238H0.184021L0.0821524 15.4252C0.0642727 15.411 0.0496971 15.3931 0.0394334 15.3726C0.0181226 15.3066 0.00488178 15.2382 0 15.1689C0 10.3077 0 5.44645 0 0.585217C0 0.447201 0.023003 0.309182 0.0427196 0.115302C0.213666 0.0704884 0.387011 0.0353832 0.561923 0.01015C0.768947 -0.0062805 0.979257 0.01015 1.18957 0.01015C20.9631 0.01015 40.7355 0.01015 60.5069 0.01015C61.5051 0.00547757 62.502 0.0835126 63.4874 0.24346C64.8018 0.470201 65.8665 1.26872 66.8228 2.16911C69.9204 5.08716 73.0127 8.0107 76.0994 10.9397C78.0448 12.7755 79.9912 14.6114 81.9388 16.4472C82.0538 16.5556 82.182 16.6509 82.343 16.7758C82.4756 16.6893 82.6029 16.595 82.7242 16.4932C85.8832 13.5029 89.0389 10.5103 92.1914 7.51559C94.0623 5.73891 95.9354 3.96223 97.8106 2.18554C98.895 1.16685 100.094 0.332189 101.616 0.144881C102.469 0.0440446 103.327 -0.00424345 104.186 0.000292095C117.911 0.000292095 131.636 0.000292095 145.36 0.000292095H164.509C164.693 0.575359 164.748 14.3901 164.587 15.4778C164.315 15.4778 164.022 15.5172 163.73 15.5172H108.257C108.228 15.8458 108.188 16.0923 108.188 16.3388C108.188 20.8736 108.188 25.4095 108.188 29.9465C108.188 30.1732 108.221 30.4032 108.241 30.6661C108.402 30.7078 108.565 30.7386 108.73 30.7581C108.987 30.7746 109.243 30.7581 109.499 30.7581H164.522C164.686 31.3398 164.719 45.4437 164.564 46.2652C164.285 46.2652 163.993 46.3047 163.697 46.3047H120.301C114.813 46.3047 109.324 46.3047 103.834 46.3047C103.091 46.2977 102.349 46.2428 101.613 46.1404C100.071 45.9268 98.8556 45.079 97.7581 44.0405C94.472 40.9385 91.2001 37.8309 87.9425 34.7179C86.2074 33.0727 84.468 31.4296 82.7242 29.7887C82.6256 29.6935 82.5106 29.6179 82.3594 29.4996C82.0308 29.7822 81.7186 30.0451 81.4196 30.3277L71.9458 39.2987C70.2764 40.8826 68.6027 42.4643 66.9246 44.0438C65.8238 45.0757 64.6244 45.93 63.0733 46.1469C62.3846 46.2503 61.6896 46.3063 60.9932 46.3145C40.9437 46.3233 20.8875 46.3277 0.82481 46.3277C0.575067 46.3277 0.325324 46.3047 0.0361473 46.2882V30.8436C0.220169 30.8206 0.394331 30.7844 0.571781 30.7746C0.828096 30.7746 1.08441 30.7746 1.34073 30.7746H56.281C56.4617 30.1601 56.4946 16.3946 56.3237 15.5501Z" fill="#A4A4A5"/>
<path d="M107.097 55.0851V60.9672C106.831 60.9672 106.561 60.9902 106.292 60.9902C99.733 60.9902 93.1739 60.9902 86.6149 60.9902C86.3071 60.9635 85.9973 61.0063 85.7084 61.1156C85.4194 61.2248 85.1587 61.3976 84.9456 61.6211C84.2095 62.3934 83.4077 63.0999 82.596 63.8655C82.7107 64.0199 82.8335 64.168 82.964 64.3092C83.687 65.0025 84.4329 65.6696 85.1394 66.3761C85.2905 66.5323 85.4736 66.6539 85.6761 66.7327C85.8785 66.8116 86.0957 66.8457 86.3126 66.8329C92.9439 66.8197 99.5742 66.8197 106.203 66.8329H107.081V72.6953C106.874 72.6953 106.673 72.738 106.469 72.738C98.9816 72.738 91.4915 72.738 83.9992 72.738C83.5349 72.751 83.0732 72.6655 82.6444 72.4871C82.2156 72.3087 81.8295 72.0414 81.5116 71.7029C79.2245 69.3533 76.9439 67.03 74.6601 64.7298C74.5443 64.6139 74.4346 64.4922 74.3315 64.365C74.2188 64.2435 74.1561 64.0839 74.1561 63.9181C74.1561 63.7524 74.2188 63.5927 74.3315 63.4712C74.4473 63.3263 74.5713 63.1881 74.7028 63.0572C76.9538 60.7569 79.2212 58.4928 81.4557 56.1892C81.7861 55.8309 82.1892 55.5473 82.638 55.3575C83.0869 55.1676 83.5711 55.0759 84.0583 55.0884C91.5068 55.0884 98.9553 55.0884 106.404 55.0884L107.097 55.0851Z" fill="#A4A4A5"/>
<path d="M0.558614 72.6855V66.8132H1.41628C8.02134 66.8132 14.6253 66.8132 21.2282 66.8132C21.4912 66.8283 21.7544 66.7856 21.9991 66.6879C22.2438 66.5903 22.4641 66.4401 22.6445 66.248C23.3017 65.5678 24.0213 64.9336 24.7114 64.2763C24.8264 64.1679 24.9283 64.0463 25.0696 63.8919C24.6556 63.4844 24.2645 63.0966 23.8702 62.7122C23.4758 62.3277 22.9764 61.8972 22.5557 61.4602C22.3986 61.2919 22.2057 61.1608 21.9914 61.0767C21.777 60.9925 21.5466 60.9574 21.3169 60.9738C15.1105 60.987 8.90201 60.987 2.69129 60.9738H0.598047C0.42717 60.3166 0.529039 59.6758 0.512609 59.0383C0.496178 58.4008 0.512609 57.7239 0.512609 57.0864C0.512609 56.4489 0.529039 55.7982 0.538897 55.1147C0.821502 55.095 1.02524 55.0687 1.22898 55.0687H23.6171C24.0814 55.05 24.5443 55.13 24.9753 55.3033C25.4064 55.4766 25.7958 55.7394 26.1179 56.0742C28.3393 58.3745 30.5902 60.6091 32.8215 62.883C33.7219 63.8031 33.7186 63.974 32.8215 64.8711C30.6067 67.1287 28.3754 69.3665 26.1704 71.6372C25.8471 71.9855 25.4534 72.2611 25.0155 72.4458C24.5776 72.6305 24.1054 72.72 23.6303 72.7085C16.1643 72.7085 8.70046 72.7085 1.23884 72.7085C1.04496 72.7183 0.841219 72.6986 0.558614 72.6855Z" fill="#A4A4A5"/>
<path d="M71.5153 72.7183H70.2469C67.9663 72.7183 65.6891 72.7019 63.4085 72.7183C63.1607 72.7289 62.9137 72.6832 62.6861 72.5848C62.4585 72.4863 62.256 72.3376 62.0941 72.1498C59.5375 69.4782 56.9579 66.8296 54.3816 64.1777C54.2074 63.9937 54.0168 63.8261 53.7868 63.6059C53.5831 63.8031 53.3958 63.9674 53.2216 64.1449C50.6212 66.8438 48.0186 69.5439 45.4138 72.2451C45.2703 72.4072 45.092 72.5348 44.8923 72.6184C44.6926 72.7021 44.4766 72.7396 44.2604 72.7281C41.8189 72.7084 39.3773 72.7281 36.9357 72.7281H36.2161C36.3607 72.5441 36.4297 72.4357 36.5184 72.347L47.9146 60.6616C49.5554 58.9835 51.1985 57.301 52.8437 55.6142C52.9883 55.4663 53.1329 55.3118 53.2906 55.1738C53.3591 55.0934 53.4442 55.0288 53.5401 54.9846C53.636 54.9403 53.7404 54.9174 53.846 54.9174C53.9516 54.9174 54.0559 54.9403 54.1518 54.9846C54.2477 55.0288 54.3328 55.0934 54.4013 55.1738C54.5047 55.2663 54.6034 55.3639 54.6971 55.4663C59.199 60.0668 63.6988 64.675 68.1964 69.2909C69.2545 70.3852 70.3192 71.486 71.5153 72.7183Z" fill="#A4A4A5"/>
<path d="M147.293 63.6059C146.885 64.0167 146.507 64.3847 146.139 64.7659C143.729 67.259 141.326 69.7553 138.93 72.2549C138.796 72.4114 138.629 72.5353 138.44 72.6173C138.252 72.6993 138.047 72.7372 137.842 72.7281C135.354 72.7051 132.863 72.7281 130.376 72.7281H129.719C129.89 72.5211 129.978 72.3995 130.087 72.2878L141.89 60.195L146.317 55.647C146.465 55.4958 146.606 55.3414 146.764 55.2034C147.214 54.8058 147.526 54.8123 147.979 55.2264C148.17 55.3973 148.344 55.5846 148.525 55.7653L162.31 69.8955C163.184 70.7926 164.055 71.693 165.005 72.6755C164.735 72.692 164.564 72.715 164.394 72.715C161.857 72.715 159.323 72.715 156.786 72.715C156.594 72.7255 156.401 72.6926 156.223 72.6186C156.045 72.5447 155.886 72.4316 155.758 72.2878C153.162 69.5932 150.555 66.9074 147.937 64.2303C147.743 64.0331 147.539 63.8458 147.293 63.6059Z" fill="#A4A4A5"/>
<path d="M117.162 55.1147H123.34C123.508 55.6175 123.547 71.8508 123.38 72.6822H117.162V55.1147Z" fill="#A4A4A5"/>
</svg>
