<svg width="197" height="74" viewBox="0 0 197 74" fill="none" xmlns="http://www.w3.org/2000/svg">
<path d="M98.2269 -1.52588e-05C43.705 -1.52588e-05 0 16.3364 0 36.8185C0 57.1759 44.0652 73.6385 98.2269 73.6385C152.39 73.6385 196.455 57.1206 196.455 36.8185C196.455 16.5164 152.39 -1.52588e-05 98.2269 -1.52588e-05Z" fill="#A4A4A5"/>
<path d="M136.918 44.6178C136.942 44.7864 137.165 44.948 137.38 45.0244C137.459 45.0523 137.498 45.1034 137.415 45.2825C136.803 46.5931 136.241 47.3485 135.474 48.4872C134.769 49.5394 133.974 50.3602 133.013 51.1498C131.562 52.3499 129.547 53.6563 127.881 52.7781C127.141 52.3943 126.821 51.3592 126.835 50.5212C126.871 48.1648 127.919 45.7455 129.856 43.3679C132.217 40.4626 134.826 38.9557 136.539 39.7794C138.311 40.6243 137.746 42.6752 136.952 44.285C136.89 44.4099 136.891 44.5159 136.918 44.6178ZM155.933 26.2562C156.061 26.0313 155.927 25.8671 155.643 25.8671C154.162 25.8671 152.22 25.8695 150.678 25.8695C150.311 25.8695 150.121 25.9135 149.948 26.2561C149.379 27.3463 142.442 37.739 141.15 39.7572C140.932 40.0646 140.667 40.0216 140.636 39.6694C140.506 38.4707 139.47 37.0927 137.838 36.4333C136.595 35.9292 135.379 35.8377 134.115 36.0055C131.834 36.3119 129.801 37.5152 128.014 38.8721C125.32 40.919 122.996 43.5721 119.997 45.5324C118.359 46.5995 116.116 47.5302 114.615 46.141C113.257 44.8823 113.411 42.0867 115.489 39.9245C115.708 39.6981 115.97 39.8895 115.929 40.0907C115.733 41.0685 115.973 42.0409 116.716 42.7227C117.623 43.5351 118.92 43.6269 120.031 43.0846C121.341 42.4356 122.111 41.1823 122.335 39.7599C122.682 37.5535 120.983 35.6073 118.857 35.4512C117.13 35.3299 115.474 35.9308 113.86 37.2622C113.051 37.9332 112.591 38.4289 111.892 39.4237C111.721 39.6689 111.459 39.6932 111.467 39.3313C111.546 36.5064 110.379 34.9172 108.042 34.8653C106.229 34.8214 104.292 35.8055 102.781 37.009C101.126 38.338 99.6786 40.0991 98.1267 41.754C97.9335 41.9579 97.7656 41.9478 97.7112 41.5529C97.6672 39.6812 97.1936 37.8683 96.3272 36.5809C96.0205 36.1329 95.375 35.9116 94.8327 36.2137C94.5823 36.3508 93.7114 36.7513 93.077 37.2618C92.7625 37.5208 92.6394 37.8959 92.7792 38.3766C93.6156 41.1729 93.432 44.3523 92.2968 47.0376C91.2546 49.4969 89.2294 51.7149 86.8489 52.4657C85.2807 52.9628 83.6505 52.7195 82.6417 51.3298C81.2563 49.4117 81.8158 46.076 83.8811 43.3063C85.7036 40.8674 88.34 39.3182 90.9695 38.3207C91.2787 38.2014 91.3429 38.0027 91.255 37.7401C91.1127 37.308 90.8843 36.7194 90.792 36.4508C90.5504 35.8088 89.8753 35.705 89.0506 35.7946C87.14 36.0169 85.4163 36.6712 83.7138 37.5825C79.2555 39.969 77.0203 44.5879 76.0409 47.0588C75.569 48.2459 75.1658 48.9864 74.6446 49.643C73.9417 50.5261 73.0594 51.3299 71.4461 52.7461C71.3003 52.8763 71.1913 53.1467 71.3144 53.3987C71.4787 53.7395 72.3177 54.924 72.5544 55.0297C72.8172 55.1588 73.122 54.9772 73.2442 54.891C74.373 54.126 75.7236 52.9136 76.3845 52.0913C76.6164 51.8094 76.8546 51.928 76.9776 52.3555C77.5943 54.5552 79.2094 56.3513 81.4427 57.1027C85.5305 58.4807 89.7705 56.486 92.9709 53.0135C95.0049 50.8064 95.7388 49.3868 96.5185 48.422C97.8397 46.7855 100.446 43.1248 103.55 40.7744C104.689 39.9075 106.036 39.2464 106.713 39.6855C107.257 40.0377 107.433 40.8562 106.56 42.4421C103.395 48.2195 98.7386 55.0073 97.8846 56.6533C97.7283 56.9386 97.8668 57.1636 98.164 57.1636C99.8202 57.1537 101.462 57.1612 102.965 57.1612C103.216 57.1513 103.327 57.0347 103.453 56.8581C105.882 53.0575 108.168 49.4402 110.618 45.7003C110.755 45.4801 110.881 45.6476 110.887 45.7442C110.939 46.6119 111.15 47.7987 111.666 48.5781C112.592 50.0188 113.905 50.6379 115.36 50.6474C116.518 50.6671 117.104 50.4851 118.353 50.0184C119.37 49.6417 120.185 49.1472 120.812 48.6997C121.177 48.445 121.241 48.8711 121.232 48.936C120.67 51.9532 121.364 55.5282 124.364 57.0105C127.954 58.7799 131.898 56.2929 134.167 54.0478C134.389 53.8318 134.628 53.8546 134.65 54.3209C134.703 55.1781 135.086 56.1952 135.796 56.9071C137.697 58.8149 141.535 58.0588 145.386 55.0791C147.859 53.1713 150.446 50.4759 152.783 47.6217C152.871 47.5111 152.934 47.3336 152.764 47.1536C152.408 46.7812 151.893 46.3552 151.541 46.0272C151.38 45.8902 151.143 45.9296 151.008 46.0296C148.613 48.307 146.456 50.9043 143.34 53.0521C142.289 53.7854 140.613 54.3769 139.861 53.3585C139.568 52.9632 139.601 52.4169 139.886 51.6995C140.794 49.4344 155.181 27.5394 155.928 26.2481" fill="white"/>
<path d="M88.2483 28.8984C88.3098 29.2234 88.4363 29.2866 88.5839 29.2593C89.3167 29.1129 90.1186 28.51 90.5934 27.8116C91.0257 27.1784 91.2287 26.2645 90.799 25.8984C90.4159 25.569 89.7922 25.6624 89.3298 26.0708C88.4089 26.8841 88.1296 28.0372 88.2483 28.8984ZM51.5815 57.0827C46.2175 57.1178 41.4919 53.8065 40.9496 48.07C40.6482 44.8912 41.547 42.0581 43.3465 39.7242C44.9433 37.6445 47.6451 35.9167 49.9322 35.4946C50.6764 35.3586 51.6763 35.442 52.0897 35.9373C52.7381 36.6917 52.5519 37.5204 51.9034 37.8511C50.1586 38.7416 48.0591 40.2663 47.0202 42.348C46.1776 44.0471 46.0073 46.0948 47.2943 48.0456C49.4484 51.2967 55.453 51.3859 61.0359 46.201C62.4186 44.9321 63.656 43.7131 64.9137 42.2689C67.3727 39.4584 68.1906 38.4342 71.4592 33.9019C71.4944 33.8493 71.5119 33.7806 71.4944 33.7473C71.468 33.6856 71.4241 33.677 71.3266 33.6683C69.1445 33.7301 67.2421 34.3788 65.3929 35.7602C64.8605 36.1484 64.0941 36.0939 63.7586 35.5827C63.3852 35.0047 63.6532 34.2525 64.2673 33.8276C67.242 31.7596 70.4915 31.3846 73.81 30.8248C73.8072 30.8248 74.0401 30.8345 74.2299 30.5839C75.5921 28.8363 76.6207 27.2599 78.0729 25.4925C79.5361 23.6993 81.4262 22.0526 82.8702 20.8157C84.8858 19.0832 86.1784 18.5002 87.4921 17.7857C87.8383 17.6047 87.4482 17.3887 87.3427 17.3887C80.0081 16.0106 72.3842 14.2275 65.1 16.9231C60.0552 18.805 57.8445 22.804 58.9079 25.4762C59.6643 27.3718 62.1581 27.6799 64.4929 26.5378C66.4321 25.588 68.2268 24.0573 69.499 22.0868C70.2106 20.9924 71.7102 21.7819 70.9 23.6823C68.7684 28.6905 64.6963 32.663 59.736 32.8307C55.5145 32.9677 52.7908 29.8632 52.7996 26.0332C52.8174 18.4791 61.2298 13.5029 70.0712 12.759C80.7188 11.8794 90.8037 14.7146 101.376 15.9964C109.476 16.977 117.241 16.9974 125.383 15.1277C126.345 14.9186 127.021 15.5327 126.958 16.5045C126.879 17.9091 125.79 19.2618 123.109 20.7237C120.059 22.3957 116.869 22.903 113.537 22.9303C105.48 23.0007 97.9747 19.8578 90.2082 18.1709C90.2171 18.5108 90.3067 18.9157 90.022 19.1303C85.72 22.3022 81.8314 25.5233 79.227 30.0474C79.1392 30.1518 79.1831 30.2514 79.3386 30.2408C81.5998 30.1205 83.6332 30.0627 85.7443 29.8938C86.1133 29.8588 86.1273 29.7709 86.0948 29.5021C85.9077 27.9427 86.3637 26.1644 87.7359 24.9412C89.1404 23.6824 90.8988 23.5393 92.0646 24.4458C93.3899 25.4782 93.2726 27.335 92.5478 28.7273C91.8098 30.14 90.5909 30.8956 89.4211 31.2624C89.4211 31.2624 89.1751 31.315 89.212 31.5382C89.2559 31.8948 90.8518 32.7777 90.9882 33.0129C91.12 33.2369 91.0497 33.5838 90.8099 33.8499C90.6411 34.0433 90.3767 34.2241 90.0384 34.218C89.7652 34.2106 89.5991 34.118 89.2494 33.9289C88.5342 33.5416 87.6404 32.9048 87.0442 32.154C86.8412 31.9002 86.7375 31.895 86.2306 31.9231C83.9462 32.0547 80.3843 32.3992 77.971 32.7005C77.3858 32.7709 77.2997 32.8824 77.1794 33.0851C73.3317 39.4277 69.2233 46.2674 64.7126 50.8467C59.8744 55.7567 55.8508 57.0492 51.5815 57.0827Z" fill="white"/>
<path d="M98.2248 6.02066C48.0663 6.02066 7.40893 19.8758 7.40893 36.8301C7.40893 53.7857 48.0663 67.6422 98.2248 67.6422C148.383 67.6422 189.037 53.7857 189.037 36.8301C189.037 19.8758 148.383 6.02066 98.2248 6.02066ZM98.2248 70.4344C46.2404 70.4344 4.09937 55.3893 4.09937 36.8301C4.09937 18.268 46.2404 3.22575 98.2248 3.22575C150.204 3.22575 192.343 18.268 192.343 36.8301C192.343 55.3893 150.204 70.4344 98.2248 70.4344Z" fill="white"/>
</svg>
