<svg width="465" height="177" viewBox="0 0 465 177" fill="none" xmlns="http://www.w3.org/2000/svg">
<path d="M1.876 168V156.38C1.876 155.876 1.95067 155.54 2.1 155.372C2.268 155.204 2.61333 155.12 3.136 155.12H15.4V157.108H5.6V160.356H14.56V162.344H5.6V166.012H15.4V168H1.876ZM18.6756 168C18.0596 168 17.7516 167.683 17.7516 167.048V157.556C18.3116 157.332 19.1049 157.145 20.1316 156.996C21.1769 156.828 22.3342 156.744 23.6036 156.744C24.9289 156.744 25.9742 156.819 26.7396 156.968C27.5236 157.117 28.1022 157.369 28.4756 157.724C28.8676 158.079 29.1196 158.545 29.2316 159.124C29.3622 159.703 29.4276 160.421 29.4276 161.28V166.684C29.4276 167.02 29.3996 167.291 29.3436 167.496C29.3062 167.683 29.1849 167.823 28.9796 167.916C28.7929 167.991 28.4942 168.028 28.0836 168.028L26.0676 168V160.496C26.0676 159.843 25.8622 159.367 25.4516 159.068C25.0409 158.769 24.4342 158.62 23.6316 158.62C23.3516 158.62 23.0529 158.648 22.7356 158.704C22.4182 158.741 22.1196 158.807 21.8396 158.9C21.5596 158.975 21.3262 159.077 21.1396 159.208V168H18.6756ZM38.2963 168.168C36.7097 168.168 35.4217 168.028 34.4323 167.748C33.4617 167.449 32.7523 166.899 32.3043 166.096C31.875 165.293 31.6603 164.127 31.6603 162.596C31.6603 160.972 31.875 159.74 32.3043 158.9C32.7523 158.041 33.4617 157.453 34.4323 157.136C35.4217 156.819 36.7097 156.66 38.2963 156.66C38.7817 156.66 39.2483 156.688 39.6963 156.744C40.1443 156.781 40.6763 156.847 41.2923 156.94C41.6283 156.977 41.899 157.052 42.1043 157.164C42.3283 157.276 42.4963 157.463 42.6083 157.724C42.7203 157.985 42.7763 158.368 42.7763 158.872C42.5523 158.779 42.2257 158.704 41.7963 158.648C41.367 158.573 40.9097 158.517 40.4243 158.48C39.9577 158.443 39.5283 158.424 39.1363 158.424C38.147 158.424 37.3537 158.545 36.7563 158.788C36.1777 159.031 35.7577 159.441 35.4963 160.02C35.2537 160.599 35.1323 161.383 35.1323 162.372C35.1323 163.361 35.2537 164.145 35.4963 164.724C35.739 165.303 36.1497 165.713 36.7283 165.956C37.3257 166.199 38.1283 166.32 39.1363 166.32C39.603 166.32 40.0697 166.301 40.5363 166.264C41.0217 166.208 41.4603 166.152 41.8523 166.096C42.2443 166.021 42.5523 165.937 42.7763 165.844V166.796C42.7763 167.188 42.571 167.487 42.1603 167.692C41.7683 167.879 41.2363 168 40.5643 168.056C39.8923 168.131 39.1363 168.168 38.2963 168.168ZM48.0959 156.828V164.192C48.0959 164.957 48.2919 165.499 48.6839 165.816C49.0946 166.115 49.7292 166.264 50.5879 166.264C51.5026 166.264 52.1466 166.105 52.5199 165.788C52.9119 165.452 53.1079 164.929 53.1079 164.22V156.828C53.1266 156.828 53.2199 156.828 53.3879 156.828C53.5746 156.828 53.7799 156.828 54.0039 156.828C54.2466 156.809 54.4612 156.8 54.6479 156.8C54.8532 156.8 54.9839 156.8 55.0399 156.8C55.3946 156.8 55.6746 156.828 55.8799 156.884C56.1039 156.921 56.2626 157.024 56.3559 157.192C56.4492 157.341 56.4959 157.612 56.4959 158.004V163.772C56.4959 164.836 56.3372 165.695 56.0199 166.348C55.7026 166.983 55.1146 167.449 54.2559 167.748C53.3972 168.028 52.1466 168.168 50.5039 168.168C49.0106 168.168 47.8346 168.047 46.9759 167.804C46.1359 167.561 45.5386 167.141 45.1839 166.544C44.8479 165.947 44.6799 165.107 44.6799 164.024V158.004C44.6799 157.537 44.7546 157.22 44.9039 157.052C45.0719 156.884 45.4172 156.8 45.9399 156.8C46.2946 156.8 46.6492 156.809 47.0039 156.828C47.3586 156.828 47.7226 156.828 48.0959 156.828ZM64.9753 168.168C63.7433 168.168 62.726 168.093 61.9233 167.944C61.1206 167.776 60.486 167.496 60.0193 167.104C59.5526 166.712 59.2166 166.152 59.0113 165.424C58.806 164.696 58.7033 163.763 58.7033 162.624C58.7033 161.205 58.89 160.067 59.2633 159.208C59.6553 158.349 60.3273 157.724 61.2793 157.332C62.25 156.94 63.594 156.744 65.3113 156.744C66.6553 156.744 67.7286 156.893 68.5313 157.192C69.334 157.491 69.9126 157.967 70.2673 158.62C70.622 159.255 70.7993 160.076 70.7993 161.084V163.044H62.9593C62.9593 162.708 63.034 162.428 63.1833 162.204C63.3513 161.961 63.6406 161.84 64.0513 161.84H67.7473V161.168C67.7286 160.272 67.5326 159.609 67.1593 159.18C66.8046 158.751 66.1513 158.536 65.1993 158.536C64.3966 158.536 63.7713 158.657 63.3233 158.9C62.894 159.143 62.586 159.553 62.3993 160.132C62.2313 160.711 62.1473 161.523 62.1473 162.568C62.1473 163.576 62.25 164.341 62.4553 164.864C62.6606 165.387 63.0153 165.741 63.5193 165.928C64.042 166.096 64.7606 166.18 65.6753 166.18C66.0113 166.18 66.4313 166.171 66.9353 166.152C67.458 166.133 67.9806 166.115 68.5033 166.096C69.0446 166.059 69.5206 166.021 69.9313 165.984C70.342 165.928 70.6033 165.881 70.7153 165.844V166.292C70.7153 166.516 70.6686 166.759 70.5753 167.02C70.5006 167.263 70.3233 167.459 70.0433 167.608C69.6886 167.832 69.0913 167.981 68.2513 168.056C67.43 168.131 66.338 168.168 64.9753 168.168ZM73.9373 168C73.3213 168 73.0133 167.683 73.0133 167.048V157.556C73.5733 157.332 74.3666 157.145 75.3933 156.996C76.4386 156.828 77.5959 156.744 78.8653 156.744C80.1906 156.744 81.2359 156.819 82.0013 156.968C82.7853 157.117 83.3639 157.369 83.7373 157.724C84.1293 158.079 84.3813 158.545 84.4933 159.124C84.6239 159.703 84.6893 160.421 84.6893 161.28V166.684C84.6893 167.02 84.6613 167.291 84.6053 167.496C84.5679 167.683 84.4466 167.823 84.2413 167.916C84.0546 167.991 83.7559 168.028 83.3453 168.028L81.3293 168V160.496C81.3293 159.843 81.1239 159.367 80.7133 159.068C80.3026 158.769 79.6959 158.62 78.8933 158.62C78.6133 158.62 78.3146 158.648 77.9973 158.704C77.6799 158.741 77.3813 158.807 77.1013 158.9C76.8213 158.975 76.5879 159.077 76.4013 159.208V168H73.9373ZM91.1781 168.112C90.3007 168.112 89.6101 168.019 89.1061 167.832C88.6207 167.627 88.2754 167.3 88.0701 166.852C87.8647 166.385 87.7621 165.751 87.7621 164.948V158.62H86.6141V156.828H87.7621V155.176C87.7621 154.784 87.7901 154.495 87.8461 154.308C87.9021 154.121 88.0141 154 88.1821 153.944C88.3687 153.888 88.6394 153.86 88.9941 153.86H91.1781C91.1781 153.916 91.1687 154.009 91.1501 154.14C91.1501 154.252 91.1501 154.401 91.1501 154.588V156.828H93.8381V158.62H91.1781V164.64C91.1781 165.368 91.2434 165.9 91.3741 166.236C91.5234 166.553 91.8967 166.712 92.4941 166.712C92.6807 166.712 92.8954 166.693 93.1381 166.656C93.3994 166.619 93.5767 166.581 93.6701 166.544V167.86C93.5581 167.879 93.2781 167.925 92.8301 168C92.3821 168.075 91.8314 168.112 91.1781 168.112ZM99.234 168H96.854C96.4993 168 96.238 167.916 96.07 167.748C95.902 167.561 95.818 167.207 95.818 166.684V157.388C96.3033 157.257 96.994 157.117 97.89 156.968C98.8046 156.819 99.85 156.744 101.026 156.744C102.239 156.744 103.191 156.819 103.882 156.968C104.573 157.117 105.077 157.332 105.394 157.612C105.73 157.892 105.945 158.247 106.038 158.676C106.131 159.105 106.178 159.619 106.178 160.216H102.93V159.824C102.911 159.376 102.809 159.049 102.622 158.844C102.435 158.639 102.202 158.517 101.922 158.48C101.642 158.424 101.362 158.396 101.082 158.396C100.671 158.396 100.298 158.443 99.962 158.536C99.6446 158.611 99.402 158.723 99.234 158.872V168ZM113.555 168.14C112.323 168.14 111.325 168.093 110.559 168C109.794 167.925 109.206 167.767 108.795 167.524C108.385 167.263 108.105 166.908 107.955 166.46C107.806 166.012 107.731 165.443 107.731 164.752C107.731 163.8 107.834 163.072 108.039 162.568C108.245 162.064 108.59 161.728 109.075 161.56C109.579 161.373 110.251 161.28 111.091 161.28C111.558 161.28 112.081 161.289 112.659 161.308C113.257 161.308 113.835 161.317 114.395 161.336C114.955 161.355 115.441 161.392 115.851 161.448C116.281 161.485 116.57 161.523 116.719 161.56C116.719 160.888 116.663 160.356 116.551 159.964C116.439 159.572 116.253 159.273 115.991 159.068C115.73 158.863 115.394 158.732 114.983 158.676C114.591 158.62 114.115 158.592 113.555 158.592C112.921 158.592 112.277 158.611 111.623 158.648C110.989 158.667 110.382 158.713 109.803 158.788C109.243 158.844 108.749 158.928 108.319 159.04V158.396C108.319 157.929 108.431 157.593 108.655 157.388C108.879 157.164 109.169 157.015 109.523 156.94C109.934 156.847 110.531 156.781 111.315 156.744C112.118 156.707 112.967 156.688 113.863 156.688C115.021 156.688 115.991 156.744 116.775 156.856C117.559 156.968 118.185 157.192 118.651 157.528C119.137 157.864 119.482 158.359 119.687 159.012C119.893 159.647 119.995 160.505 119.995 161.588V167.244C119.771 167.561 119.118 167.795 118.035 167.944C116.971 168.075 115.478 168.14 113.555 168.14ZM113.527 166.684C114.162 166.684 114.685 166.675 115.095 166.656C115.525 166.619 115.87 166.563 116.131 166.488C116.393 166.413 116.589 166.32 116.719 166.208V162.736C116.533 162.68 116.234 162.633 115.823 162.596C115.431 162.54 115.03 162.503 114.619 162.484C114.209 162.447 113.863 162.428 113.583 162.428C113.023 162.428 112.566 162.475 112.211 162.568C111.857 162.643 111.595 162.829 111.427 163.128C111.278 163.427 111.203 163.893 111.203 164.528C111.203 165.032 111.259 165.452 111.371 165.788C111.483 166.105 111.707 166.339 112.043 166.488C112.379 166.619 112.874 166.684 113.527 166.684ZM134.053 168.112C133.176 168.112 132.485 168.019 131.981 167.832C131.496 167.627 131.15 167.3 130.945 166.852C130.74 166.385 130.637 165.751 130.637 164.948V158.62H129.489V156.828H130.637V155.176C130.637 154.784 130.665 154.495 130.721 154.308C130.777 154.121 130.889 154 131.057 153.944C131.244 153.888 131.514 153.86 131.869 153.86H134.053C134.053 153.916 134.044 154.009 134.025 154.14C134.025 154.252 134.025 154.401 134.025 154.588V156.828H136.713V158.62H134.053V164.64C134.053 165.368 134.118 165.9 134.249 166.236C134.398 166.553 134.772 166.712 135.369 166.712C135.556 166.712 135.77 166.693 136.013 166.656C136.274 166.619 136.452 166.581 136.545 166.544V167.86C136.433 167.879 136.153 167.925 135.705 168C135.257 168.075 134.706 168.112 134.053 168.112ZM141.885 156.828V164.192C141.885 164.957 142.081 165.499 142.473 165.816C142.884 166.115 143.518 166.264 144.377 166.264C145.292 166.264 145.936 166.105 146.309 165.788C146.701 165.452 146.897 164.929 146.897 164.22V156.828C146.916 156.828 147.009 156.828 147.177 156.828C147.364 156.828 147.569 156.828 147.793 156.828C148.036 156.809 148.25 156.8 148.437 156.8C148.642 156.8 148.773 156.8 148.829 156.8C149.184 156.8 149.464 156.828 149.669 156.884C149.893 156.921 150.052 157.024 150.145 157.192C150.238 157.341 150.285 157.612 150.285 158.004V163.772C150.285 164.836 150.126 165.695 149.809 166.348C149.492 166.983 148.904 167.449 148.045 167.748C147.186 168.028 145.936 168.168 144.293 168.168C142.8 168.168 141.624 168.047 140.765 167.804C139.925 167.561 139.328 167.141 138.973 166.544C138.637 165.947 138.469 165.107 138.469 164.024V158.004C138.469 157.537 138.544 157.22 138.693 157.052C138.861 156.884 139.206 156.8 139.729 156.8C140.084 156.8 140.438 156.809 140.793 156.828C141.148 156.828 141.512 156.828 141.885 156.828ZM166.785 168.168C165.198 168.168 163.91 168.028 162.921 167.748C161.95 167.449 161.241 166.899 160.793 166.096C160.363 165.293 160.149 164.127 160.149 162.596C160.149 160.972 160.363 159.74 160.793 158.9C161.241 158.041 161.95 157.453 162.921 157.136C163.91 156.819 165.198 156.66 166.785 156.66C167.27 156.66 167.737 156.688 168.185 156.744C168.633 156.781 169.165 156.847 169.781 156.94C170.117 156.977 170.387 157.052 170.593 157.164C170.817 157.276 170.985 157.463 171.097 157.724C171.209 157.985 171.265 158.368 171.265 158.872C171.041 158.779 170.714 158.704 170.285 158.648C169.855 158.573 169.398 158.517 168.913 158.48C168.446 158.443 168.017 158.424 167.625 158.424C166.635 158.424 165.842 158.545 165.245 158.788C164.666 159.031 164.246 159.441 163.985 160.02C163.742 160.599 163.621 161.383 163.621 162.372C163.621 163.361 163.742 164.145 163.985 164.724C164.227 165.303 164.638 165.713 165.217 165.956C165.814 166.199 166.617 166.32 167.625 166.32C168.091 166.32 168.558 166.301 169.025 166.264C169.51 166.208 169.949 166.152 170.341 166.096C170.733 166.021 171.041 165.937 171.265 165.844V166.796C171.265 167.188 171.059 167.487 170.649 167.692C170.257 167.879 169.725 168 169.053 168.056C168.381 168.131 167.625 168.168 166.785 168.168ZM178.852 168.14C177.62 168.14 176.622 168.093 175.856 168C175.091 167.925 174.503 167.767 174.092 167.524C173.682 167.263 173.402 166.908 173.252 166.46C173.103 166.012 173.028 165.443 173.028 164.752C173.028 163.8 173.131 163.072 173.336 162.568C173.542 162.064 173.887 161.728 174.372 161.56C174.876 161.373 175.548 161.28 176.388 161.28C176.855 161.28 177.378 161.289 177.956 161.308C178.554 161.308 179.132 161.317 179.692 161.336C180.252 161.355 180.738 161.392 181.148 161.448C181.578 161.485 181.867 161.523 182.016 161.56C182.016 160.888 181.96 160.356 181.848 159.964C181.736 159.572 181.55 159.273 181.288 159.068C181.027 158.863 180.691 158.732 180.28 158.676C179.888 158.62 179.412 158.592 178.852 158.592C178.218 158.592 177.574 158.611 176.92 158.648C176.286 158.667 175.679 158.713 175.1 158.788C174.54 158.844 174.046 158.928 173.616 159.04V158.396C173.616 157.929 173.728 157.593 173.952 157.388C174.176 157.164 174.466 157.015 174.82 156.94C175.231 156.847 175.828 156.781 176.612 156.744C177.415 156.707 178.264 156.688 179.16 156.688C180.318 156.688 181.288 156.744 182.072 156.856C182.856 156.968 183.482 157.192 183.948 157.528C184.434 157.864 184.779 158.359 184.984 159.012C185.19 159.647 185.292 160.505 185.292 161.588V167.244C185.068 167.561 184.415 167.795 183.332 167.944C182.268 168.075 180.775 168.14 178.852 168.14ZM178.824 166.684C179.459 166.684 179.982 166.675 180.392 166.656C180.822 166.619 181.167 166.563 181.428 166.488C181.69 166.413 181.886 166.32 182.016 166.208V162.736C181.83 162.68 181.531 162.633 181.12 162.596C180.728 162.54 180.327 162.503 179.916 162.484C179.506 162.447 179.16 162.428 178.88 162.428C178.32 162.428 177.863 162.475 177.508 162.568C177.154 162.643 176.892 162.829 176.724 163.128C176.575 163.427 176.5 163.893 176.5 164.528C176.5 165.032 176.556 165.452 176.668 165.788C176.78 166.105 177.004 166.339 177.34 166.488C177.676 166.619 178.171 166.684 178.824 166.684ZM189.118 168C188.595 168 188.25 167.925 188.082 167.776C187.914 167.608 187.83 167.253 187.83 166.712V157.584C188.072 157.491 188.39 157.407 188.782 157.332C189.174 157.239 189.612 157.155 190.098 157.08C190.583 156.987 191.096 156.912 191.638 156.856C192.198 156.8 192.748 156.772 193.29 156.772C193.999 156.772 194.606 156.828 195.11 156.94C195.632 157.052 196.071 157.257 196.426 157.556C196.799 157.836 197.116 158.256 197.378 158.816H196.846C197.014 158.387 197.247 158.041 197.546 157.78C197.844 157.5 198.199 157.295 198.61 157.164C199.02 157.015 199.431 156.912 199.842 156.856C200.252 156.8 200.626 156.772 200.962 156.772C202.175 156.772 203.127 156.884 203.818 157.108C204.508 157.313 205.003 157.687 205.302 158.228C205.619 158.751 205.778 159.488 205.778 160.44V166.824C205.778 167.328 205.684 167.655 205.498 167.804C205.33 167.935 204.994 168 204.49 168H202.362C202.362 166.712 202.362 165.433 202.362 164.164C202.362 162.895 202.362 161.616 202.362 160.328C202.362 159.563 202.203 159.059 201.886 158.816C201.568 158.555 201.092 158.424 200.458 158.424C200.159 158.424 199.86 158.471 199.562 158.564C199.263 158.639 199.011 158.751 198.806 158.9C198.619 159.049 198.526 159.227 198.526 159.432V168H195.11V159.88C195.11 159.413 194.932 159.068 194.578 158.844C194.223 158.601 193.756 158.48 193.178 158.48C192.823 158.48 192.506 158.508 192.226 158.564C191.946 158.601 191.712 158.676 191.526 158.788C191.358 158.881 191.264 159.012 191.246 159.18V168H189.118ZM211.276 168.112C210.175 168.112 209.41 167.879 208.98 167.412C208.57 166.927 208.364 166.171 208.364 165.144V156.828H211.78V164.976C211.78 165.629 211.864 166.087 212.032 166.348C212.2 166.591 212.499 166.712 212.928 166.712C213.134 166.712 213.33 166.693 213.516 166.656C213.703 166.619 213.824 166.591 213.88 166.572V167.86C213.806 167.879 213.675 167.907 213.488 167.944C213.302 167.981 213.031 168.019 212.676 168.056C212.322 168.093 211.855 168.112 211.276 168.112ZM210.1 155.372C209.559 155.372 209.167 155.307 208.924 155.176C208.682 155.027 208.56 154.756 208.56 154.364C208.56 153.972 208.682 153.701 208.924 153.552C209.186 153.403 209.587 153.328 210.128 153.328C210.67 153.347 211.052 153.431 211.276 153.58C211.519 153.711 211.631 153.972 211.612 154.364C211.612 154.756 211.5 155.027 211.276 155.176C211.052 155.307 210.66 155.372 210.1 155.372ZM216.426 168C215.81 168 215.502 167.683 215.502 167.048V157.556C216.062 157.332 216.855 157.145 217.882 156.996C218.927 156.828 220.084 156.744 221.354 156.744C222.679 156.744 223.724 156.819 224.49 156.968C225.274 157.117 225.852 157.369 226.226 157.724C226.618 158.079 226.87 158.545 226.982 159.124C227.112 159.703 227.178 160.421 227.178 161.28V166.684C227.178 167.02 227.15 167.291 227.094 167.496C227.056 167.683 226.935 167.823 226.73 167.916C226.543 167.991 226.244 168.028 225.834 168.028L223.818 168V160.496C223.818 159.843 223.612 159.367 223.202 159.068C222.791 158.769 222.184 158.62 221.382 158.62C221.102 158.62 220.803 158.648 220.486 158.704C220.168 158.741 219.87 158.807 219.59 158.9C219.31 158.975 219.076 159.077 218.89 159.208V168H216.426ZM235.626 168.168C234.637 168.168 233.76 168.103 232.994 167.972C232.229 167.823 231.576 167.552 231.034 167.16C230.512 166.749 230.11 166.161 229.83 165.396C229.55 164.631 229.41 163.641 229.41 162.428C229.41 161.215 229.55 160.225 229.83 159.46C230.11 158.695 230.512 158.116 231.034 157.724C231.576 157.313 232.229 157.043 232.994 156.912C233.76 156.763 234.637 156.688 235.626 156.688C236.634 156.688 237.512 156.763 238.258 156.912C239.024 157.043 239.668 157.313 240.19 157.724C240.713 158.116 241.105 158.695 241.366 159.46C241.646 160.225 241.786 161.215 241.786 162.428C241.786 163.66 241.646 164.659 241.366 165.424C241.105 166.171 240.713 166.749 240.19 167.16C239.668 167.552 239.024 167.823 238.258 167.972C237.493 168.103 236.616 168.168 235.626 168.168ZM235.626 166.46C236.224 166.46 236.718 166.357 237.11 166.152C237.521 165.947 237.829 165.555 238.034 164.976C238.24 164.397 238.342 163.548 238.342 162.428C238.342 161.308 238.24 160.459 238.034 159.88C237.829 159.301 237.521 158.909 237.11 158.704C236.718 158.499 236.224 158.396 235.626 158.396C235.048 158.396 234.553 158.499 234.142 158.704C233.732 158.909 233.414 159.301 233.19 159.88C232.966 160.459 232.854 161.308 232.854 162.428C232.854 163.548 232.966 164.397 233.19 164.976C233.414 165.555 233.732 165.947 234.142 166.152C234.553 166.357 235.048 166.46 235.626 166.46ZM244.157 171.024C244.437 170.52 244.707 169.997 244.969 169.456C245.23 168.915 245.454 168.429 245.641 168C245.603 168 245.557 168 245.501 168C245.445 167.981 245.389 167.972 245.333 167.972C245.053 167.953 244.81 167.879 244.605 167.748C244.399 167.599 244.297 167.309 244.297 166.88C244.297 166.544 244.381 166.292 244.549 166.124C244.717 165.956 244.941 165.853 245.221 165.816C245.501 165.76 245.818 165.732 246.173 165.732C246.714 165.732 247.125 165.807 247.405 165.956C247.703 166.087 247.853 166.404 247.853 166.908C247.853 167.3 247.75 167.767 247.545 168.308C247.358 168.849 247.125 169.363 246.845 169.848C246.565 170.352 246.322 170.744 246.117 171.024H244.157ZM264.093 168.168C262.861 168.168 261.843 168.093 261.041 167.944C260.238 167.776 259.603 167.496 259.137 167.104C258.67 166.712 258.334 166.152 258.129 165.424C257.923 164.696 257.821 163.763 257.821 162.624C257.821 161.205 258.007 160.067 258.381 159.208C258.773 158.349 259.445 157.724 260.397 157.332C261.367 156.94 262.711 156.744 264.429 156.744C265.773 156.744 266.846 156.893 267.649 157.192C268.451 157.491 269.03 157.967 269.385 158.62C269.739 159.255 269.917 160.076 269.917 161.084V163.044H262.077C262.077 162.708 262.151 162.428 262.301 162.204C262.469 161.961 262.758 161.84 263.169 161.84H266.865V161.168C266.846 160.272 266.65 159.609 266.277 159.18C265.922 158.751 265.269 158.536 264.317 158.536C263.514 158.536 262.889 158.657 262.441 158.9C262.011 159.143 261.703 159.553 261.517 160.132C261.349 160.711 261.265 161.523 261.265 162.568C261.265 163.576 261.367 164.341 261.573 164.864C261.778 165.387 262.133 165.741 262.637 165.928C263.159 166.096 263.878 166.18 264.793 166.18C265.129 166.18 265.549 166.171 266.053 166.152C266.575 166.133 267.098 166.115 267.621 166.096C268.162 166.059 268.638 166.021 269.049 165.984C269.459 165.928 269.721 165.881 269.833 165.844V166.292C269.833 166.516 269.786 166.759 269.693 167.02C269.618 167.263 269.441 167.459 269.161 167.608C268.806 167.832 268.209 167.981 267.369 168.056C266.547 168.131 265.455 168.168 264.093 168.168ZM273.054 168C272.438 168 272.13 167.683 272.13 167.048V157.556C272.69 157.332 273.484 157.145 274.51 156.996C275.556 156.828 276.713 156.744 277.982 156.744C279.308 156.744 280.353 156.819 281.118 156.968C281.902 157.117 282.481 157.369 282.854 157.724C283.246 158.079 283.498 158.545 283.61 159.124C283.741 159.703 283.806 160.421 283.806 161.28V166.684C283.806 167.02 283.778 167.291 283.722 167.496C283.685 167.683 283.564 167.823 283.358 167.916C283.172 167.991 282.873 168.028 282.462 168.028L280.446 168V160.496C280.446 159.843 280.241 159.367 279.83 159.068C279.42 158.769 278.813 158.62 278.01 158.62C277.73 158.62 277.432 158.648 277.114 158.704C276.797 158.741 276.498 158.807 276.218 158.9C275.938 158.975 275.705 159.077 275.518 159.208V168H273.054ZM292.675 168.168C291.089 168.168 289.801 168.028 288.811 167.748C287.841 167.449 287.131 166.899 286.683 166.096C286.254 165.293 286.039 164.127 286.039 162.596C286.039 160.972 286.254 159.74 286.683 158.9C287.131 158.041 287.841 157.453 288.811 157.136C289.801 156.819 291.089 156.66 292.675 156.66C293.161 156.66 293.627 156.688 294.075 156.744C294.523 156.781 295.055 156.847 295.671 156.94C296.007 156.977 296.278 157.052 296.483 157.164C296.707 157.276 296.875 157.463 296.987 157.724C297.099 157.985 297.155 158.368 297.155 158.872C296.931 158.779 296.605 158.704 296.175 158.648C295.746 158.573 295.289 158.517 294.803 158.48C294.337 158.443 293.907 158.424 293.515 158.424C292.526 158.424 291.733 158.545 291.135 158.788C290.557 159.031 290.137 159.441 289.875 160.02C289.633 160.599 289.511 161.383 289.511 162.372C289.511 163.361 289.633 164.145 289.875 164.724C290.118 165.303 290.529 165.713 291.107 165.956C291.705 166.199 292.507 166.32 293.515 166.32C293.982 166.32 294.449 166.301 294.915 166.264C295.401 166.208 295.839 166.152 296.231 166.096C296.623 166.021 296.931 165.937 297.155 165.844V166.796C297.155 167.188 296.95 167.487 296.539 167.692C296.147 167.879 295.615 168 294.943 168.056C294.271 168.131 293.515 168.168 292.675 168.168ZM302.475 156.828V164.192C302.475 164.957 302.671 165.499 303.063 165.816C303.473 166.115 304.108 166.264 304.967 166.264C305.881 166.264 306.525 166.105 306.899 165.788C307.291 165.452 307.487 164.929 307.487 164.22V156.828C307.505 156.828 307.599 156.828 307.767 156.828C307.953 156.828 308.159 156.828 308.383 156.828C308.625 156.809 308.84 156.8 309.027 156.8C309.232 156.8 309.363 156.8 309.419 156.8C309.773 156.8 310.053 156.828 310.259 156.884C310.483 156.921 310.641 157.024 310.735 157.192C310.828 157.341 310.875 157.612 310.875 158.004V163.772C310.875 164.836 310.716 165.695 310.399 166.348C310.081 166.983 309.493 167.449 308.635 167.748C307.776 168.028 306.525 168.168 304.883 168.168C303.389 168.168 302.213 168.047 301.355 167.804C300.515 167.561 299.917 167.141 299.563 166.544C299.227 165.947 299.059 165.107 299.059 164.024V158.004C299.059 157.537 299.133 157.22 299.283 157.052C299.451 156.884 299.796 156.8 300.319 156.8C300.673 156.8 301.028 156.809 301.383 156.828C301.737 156.828 302.101 156.828 302.475 156.828ZM319.354 168.168C318.122 168.168 317.105 168.093 316.302 167.944C315.5 167.776 314.865 167.496 314.398 167.104C313.932 166.712 313.596 166.152 313.39 165.424C313.185 164.696 313.082 163.763 313.082 162.624C313.082 161.205 313.269 160.067 313.642 159.208C314.034 158.349 314.706 157.724 315.658 157.332C316.629 156.94 317.973 156.744 319.69 156.744C321.034 156.744 322.108 156.893 322.91 157.192C323.713 157.491 324.292 157.967 324.646 158.62C325.001 159.255 325.178 160.076 325.178 161.084V163.044H317.338C317.338 162.708 317.413 162.428 317.562 162.204C317.73 161.961 318.02 161.84 318.43 161.84H322.126V161.168C322.108 160.272 321.912 159.609 321.538 159.18C321.184 158.751 320.53 158.536 319.578 158.536C318.776 158.536 318.15 158.657 317.702 158.9C317.273 159.143 316.965 159.553 316.778 160.132C316.61 160.711 316.526 161.523 316.526 162.568C316.526 163.576 316.629 164.341 316.834 164.864C317.04 165.387 317.394 165.741 317.898 165.928C318.421 166.096 319.14 166.18 320.054 166.18C320.39 166.18 320.81 166.171 321.314 166.152C321.837 166.133 322.36 166.115 322.882 166.096C323.424 166.059 323.9 166.021 324.31 165.984C324.721 165.928 324.982 165.881 325.094 165.844V166.292C325.094 166.516 325.048 166.759 324.954 167.02C324.88 167.263 324.702 167.459 324.422 167.608C324.068 167.832 323.47 167.981 322.63 168.056C321.809 168.131 320.717 168.168 319.354 168.168ZM328.316 168C327.7 168 327.392 167.683 327.392 167.048V157.556C327.952 157.332 328.746 157.145 329.772 156.996C330.818 156.828 331.975 156.744 333.244 156.744C334.57 156.744 335.615 156.819 336.38 156.968C337.164 157.117 337.743 157.369 338.116 157.724C338.508 158.079 338.76 158.545 338.872 159.124C339.003 159.703 339.068 160.421 339.068 161.28V166.684C339.068 167.02 339.04 167.291 338.984 167.496C338.947 167.683 338.826 167.823 338.62 167.916C338.434 167.991 338.135 168.028 337.724 168.028L335.708 168V160.496C335.708 159.843 335.503 159.367 335.092 159.068C334.682 158.769 334.075 158.62 333.272 158.62C332.992 158.62 332.694 158.648 332.376 158.704C332.059 158.741 331.76 158.807 331.48 158.9C331.2 158.975 330.967 159.077 330.78 159.208V168H328.316ZM345.557 168.112C344.68 168.112 343.989 168.019 343.485 167.832C343 167.627 342.654 167.3 342.449 166.852C342.244 166.385 342.141 165.751 342.141 164.948V158.62H340.993V156.828H342.141V155.176C342.141 154.784 342.169 154.495 342.225 154.308C342.281 154.121 342.393 154 342.561 153.944C342.748 153.888 343.018 153.86 343.373 153.86H345.557C345.557 153.916 345.548 154.009 345.529 154.14C345.529 154.252 345.529 154.401 345.529 154.588V156.828H348.217V158.62H345.557V164.64C345.557 165.368 345.622 165.9 345.753 166.236C345.902 166.553 346.276 166.712 346.873 166.712C347.06 166.712 347.274 166.693 347.517 166.656C347.778 166.619 347.956 166.581 348.049 166.544V167.86C347.937 167.879 347.657 167.925 347.209 168C346.761 168.075 346.21 168.112 345.557 168.112ZM353.613 168H351.233C350.878 168 350.617 167.916 350.449 167.748C350.281 167.561 350.197 167.207 350.197 166.684V157.388C350.682 157.257 351.373 157.117 352.269 156.968C353.184 156.819 354.229 156.744 355.405 156.744C356.618 156.744 357.57 156.819 358.261 156.968C358.952 157.117 359.456 157.332 359.773 157.612C360.109 157.892 360.324 158.247 360.417 158.676C360.51 159.105 360.557 159.619 360.557 160.216H357.309V159.824C357.29 159.376 357.188 159.049 357.001 158.844C356.814 158.639 356.581 158.517 356.301 158.48C356.021 158.424 355.741 158.396 355.461 158.396C355.05 158.396 354.677 158.443 354.341 158.536C354.024 158.611 353.781 158.723 353.613 158.872V168ZM367.934 168.14C366.702 168.14 365.704 168.093 364.938 168C364.173 167.925 363.585 167.767 363.174 167.524C362.764 167.263 362.484 166.908 362.334 166.46C362.185 166.012 362.11 165.443 362.11 164.752C362.11 163.8 362.213 163.072 362.418 162.568C362.624 162.064 362.969 161.728 363.454 161.56C363.958 161.373 364.63 161.28 365.47 161.28C365.937 161.28 366.46 161.289 367.038 161.308C367.636 161.308 368.214 161.317 368.774 161.336C369.334 161.355 369.82 161.392 370.23 161.448C370.66 161.485 370.949 161.523 371.098 161.56C371.098 160.888 371.042 160.356 370.93 159.964C370.818 159.572 370.632 159.273 370.37 159.068C370.109 158.863 369.773 158.732 369.362 158.676C368.97 158.62 368.494 158.592 367.934 158.592C367.3 158.592 366.656 158.611 366.002 158.648C365.368 158.667 364.761 158.713 364.182 158.788C363.622 158.844 363.128 158.928 362.698 159.04V158.396C362.698 157.929 362.81 157.593 363.034 157.388C363.258 157.164 363.548 157.015 363.902 156.94C364.313 156.847 364.91 156.781 365.694 156.744C366.497 156.707 367.346 156.688 368.242 156.688C369.4 156.688 370.37 156.744 371.154 156.856C371.938 156.968 372.564 157.192 373.03 157.528C373.516 157.864 373.861 158.359 374.066 159.012C374.272 159.647 374.374 160.505 374.374 161.588V167.244C374.15 167.561 373.497 167.795 372.414 167.944C371.35 168.075 369.857 168.14 367.934 168.14ZM367.906 166.684C368.541 166.684 369.064 166.675 369.474 166.656C369.904 166.619 370.249 166.563 370.51 166.488C370.772 166.413 370.968 166.32 371.098 166.208V162.736C370.912 162.68 370.613 162.633 370.202 162.596C369.81 162.54 369.409 162.503 368.998 162.484C368.588 162.447 368.242 162.428 367.962 162.428C367.402 162.428 366.945 162.475 366.59 162.568C366.236 162.643 365.974 162.829 365.806 163.128C365.657 163.427 365.582 163.893 365.582 164.528C365.582 165.032 365.638 165.452 365.75 165.788C365.862 166.105 366.086 166.339 366.422 166.488C366.758 166.619 367.253 166.684 367.906 166.684ZM388.432 168.112C387.555 168.112 386.864 168.019 386.36 167.832C385.875 167.627 385.529 167.3 385.324 166.852C385.119 166.385 385.016 165.751 385.016 164.948V158.62H383.868V156.828H385.016V155.176C385.016 154.784 385.044 154.495 385.1 154.308C385.156 154.121 385.268 154 385.436 153.944C385.623 153.888 385.893 153.86 386.248 153.86H388.432C388.432 153.916 388.423 154.009 388.404 154.14C388.404 154.252 388.404 154.401 388.404 154.588V156.828H391.092V158.62H388.432V164.64C388.432 165.368 388.497 165.9 388.628 166.236C388.777 166.553 389.151 166.712 389.748 166.712C389.935 166.712 390.149 166.693 390.392 166.656C390.653 166.619 390.831 166.581 390.924 166.544V167.86C390.812 167.879 390.532 167.925 390.084 168C389.636 168.075 389.085 168.112 388.432 168.112ZM396.264 156.828V164.192C396.264 164.957 396.46 165.499 396.852 165.816C397.263 166.115 397.897 166.264 398.756 166.264C399.671 166.264 400.315 166.105 400.688 165.788C401.08 165.452 401.276 164.929 401.276 164.22V156.828C401.295 156.828 401.388 156.828 401.556 156.828C401.743 156.828 401.948 156.828 402.172 156.828C402.415 156.809 402.629 156.8 402.816 156.8C403.021 156.8 403.152 156.8 403.208 156.8C403.563 156.8 403.843 156.828 404.048 156.884C404.272 156.921 404.431 157.024 404.524 157.192C404.617 157.341 404.664 157.612 404.664 158.004V163.772C404.664 164.836 404.505 165.695 404.188 166.348C403.871 166.983 403.283 167.449 402.424 167.748C401.565 168.028 400.315 168.168 398.672 168.168C397.179 168.168 396.003 168.047 395.144 167.804C394.304 167.561 393.707 167.141 393.352 166.544C393.016 165.947 392.848 165.107 392.848 164.024V158.004C392.848 157.537 392.923 157.22 393.072 157.052C393.24 156.884 393.585 156.8 394.108 156.8C394.463 156.8 394.817 156.809 395.172 156.828C395.527 156.828 395.891 156.828 396.264 156.828ZM420.38 168.14C419.148 168.14 418.149 168.093 417.384 168C416.618 167.925 416.03 167.767 415.62 167.524C415.209 167.263 414.929 166.908 414.78 166.46C414.63 166.012 414.556 165.443 414.556 164.752C414.556 163.8 414.658 163.072 414.864 162.568C415.069 162.064 415.414 161.728 415.9 161.56C416.404 161.373 417.076 161.28 417.916 161.28C418.382 161.28 418.905 161.289 419.484 161.308C420.081 161.308 420.66 161.317 421.22 161.336C421.78 161.355 422.265 161.392 422.676 161.448C423.105 161.485 423.394 161.523 423.544 161.56C423.544 160.888 423.488 160.356 423.376 159.964C423.264 159.572 423.077 159.273 422.816 159.068C422.554 158.863 422.218 158.732 421.808 158.676C421.416 158.62 420.94 158.592 420.38 158.592C419.745 158.592 419.101 158.611 418.448 158.648C417.813 158.667 417.206 158.713 416.628 158.788C416.068 158.844 415.573 158.928 415.144 159.04V158.396C415.144 157.929 415.256 157.593 415.48 157.388C415.704 157.164 415.993 157.015 416.348 156.94C416.758 156.847 417.356 156.781 418.14 156.744C418.942 156.707 419.792 156.688 420.688 156.688C421.845 156.688 422.816 156.744 423.6 156.856C424.384 156.968 425.009 157.192 425.476 157.528C425.961 157.864 426.306 158.359 426.512 159.012C426.717 159.647 426.82 160.505 426.82 161.588V167.244C426.596 167.561 425.942 167.795 424.86 167.944C423.796 168.075 422.302 168.14 420.38 168.14ZM420.352 166.684C420.986 166.684 421.509 166.675 421.92 166.656C422.349 166.619 422.694 166.563 422.956 166.488C423.217 166.413 423.413 166.32 423.544 166.208V162.736C423.357 162.68 423.058 162.633 422.648 162.596C422.256 162.54 421.854 162.503 421.444 162.484C421.033 162.447 420.688 162.428 420.408 162.428C419.848 162.428 419.39 162.475 419.036 162.568C418.681 162.643 418.42 162.829 418.252 163.128C418.102 163.427 418.028 163.893 418.028 164.528C418.028 165.032 418.084 165.452 418.196 165.788C418.308 166.105 418.532 166.339 418.868 166.488C419.204 166.619 419.698 166.684 420.352 166.684ZM432.549 156.828V164.192C432.549 164.957 432.745 165.499 433.137 165.816C433.548 166.115 434.182 166.264 435.041 166.264C435.956 166.264 436.6 166.105 436.973 165.788C437.365 165.452 437.561 164.929 437.561 164.22V156.828C437.58 156.828 437.673 156.828 437.841 156.828C438.028 156.828 438.233 156.828 438.457 156.828C438.7 156.809 438.914 156.8 439.101 156.8C439.306 156.8 439.437 156.8 439.493 156.8C439.848 156.8 440.128 156.828 440.333 156.884C440.557 156.921 440.716 157.024 440.809 157.192C440.902 157.341 440.949 157.612 440.949 158.004V163.772C440.949 164.836 440.79 165.695 440.473 166.348C440.156 166.983 439.568 167.449 438.709 167.748C437.85 168.028 436.6 168.168 434.957 168.168C433.464 168.168 432.288 168.047 431.429 167.804C430.589 167.561 429.992 167.141 429.637 166.544C429.301 165.947 429.133 165.107 429.133 164.024V158.004C429.133 157.537 429.208 157.22 429.357 157.052C429.525 156.884 429.87 156.8 430.393 156.8C430.748 156.8 431.102 156.809 431.457 156.828C431.812 156.828 432.176 156.828 432.549 156.828ZM447.412 168.112C446.535 168.112 445.844 168.019 445.34 167.832C444.855 167.627 444.51 167.3 444.304 166.852C444.099 166.385 443.996 165.751 443.996 164.948V158.62H442.848V156.828H443.996V155.176C443.996 154.784 444.024 154.495 444.08 154.308C444.136 154.121 444.248 154 444.416 153.944C444.603 153.888 444.874 153.86 445.228 153.86H447.412C447.412 153.916 447.403 154.009 447.384 154.14C447.384 154.252 447.384 154.401 447.384 154.588V156.828H450.072V158.62H447.412V164.64C447.412 165.368 447.478 165.9 447.608 166.236C447.758 166.553 448.131 166.712 448.728 166.712C448.915 166.712 449.13 166.693 449.372 166.656C449.634 166.619 449.811 166.581 449.904 166.544V167.86C449.792 167.879 449.512 167.925 449.064 168C448.616 168.075 448.066 168.112 447.412 168.112ZM457.712 168.168C456.723 168.168 455.846 168.103 455.08 167.972C454.315 167.823 453.662 167.552 453.12 167.16C452.598 166.749 452.196 166.161 451.916 165.396C451.636 164.631 451.496 163.641 451.496 162.428C451.496 161.215 451.636 160.225 451.916 159.46C452.196 158.695 452.598 158.116 453.12 157.724C453.662 157.313 454.315 157.043 455.08 156.912C455.846 156.763 456.723 156.688 457.712 156.688C458.72 156.688 459.598 156.763 460.344 156.912C461.11 157.043 461.754 157.313 462.276 157.724C462.799 158.116 463.191 158.695 463.452 159.46C463.732 160.225 463.872 161.215 463.872 162.428C463.872 163.66 463.732 164.659 463.452 165.424C463.191 166.171 462.799 166.749 462.276 167.16C461.754 167.552 461.11 167.823 460.344 167.972C459.579 168.103 458.702 168.168 457.712 168.168ZM457.712 166.46C458.31 166.46 458.804 166.357 459.196 166.152C459.607 165.947 459.915 165.555 460.12 164.976C460.326 164.397 460.428 163.548 460.428 162.428C460.428 161.308 460.326 160.459 460.12 159.88C459.915 159.301 459.607 158.909 459.196 158.704C458.804 158.499 458.31 158.396 457.712 158.396C457.134 158.396 456.639 158.499 456.228 158.704C455.818 158.909 455.5 159.301 455.276 159.88C455.052 160.459 454.94 161.308 454.94 162.428C454.94 163.548 455.052 164.397 455.276 164.976C455.5 165.555 455.818 165.947 456.228 166.152C456.639 166.357 457.134 166.46 457.712 166.46Z" fill="#DAF0F2" fill-opacity="0.58"/>
<path d="M87.0483 103.056V100.848C87.0483 96.24 84.2643 94.128 77.9283 94.128C71.7843 94.128 68.5203 96.144 67.0803 100.848L48.7443 97.872C50.6643 92.208 52.7763 89.136 56.8083 86.256C61.9923 82.608 69.0963 80.784 78.4083 80.784C85.5123 80.784 92.4243 82.128 96.1683 84.144C102.312 87.504 105 92.784 105 101.424V127.344C105 133.2 105.192 136.656 105.672 140.976H87.0483V136.56C81.6723 140.688 76.2963 142.32 68.4243 142.32C61.1283 142.32 55.6563 140.592 51.8163 137.04C48.3603 133.872 46.5363 129.264 46.5363 123.984C46.5363 117.936 48.9363 113.136 53.5443 109.968C58.4403 106.512 64.8723 104.496 73.5123 103.728C77.2563 103.344 80.1363 103.248 87.0483 103.056ZM87.0483 118.032V115.344C78.5043 115.536 74.3763 116.016 70.4403 117.264C66.9843 118.416 64.8723 120.816 64.8723 123.6C64.8723 127.056 67.7523 129.072 72.7443 129.072C76.6803 129.072 81.0003 127.632 83.5923 125.424C85.8003 123.504 87.0483 120.912 87.0483 118.032Z" fill="#FF6346"/>
<path d="M163.673 82.416L159.065 99.696C154.649 98.352 152.249 97.872 149.273 97.872C144.377 97.872 140.633 99.6 137.849 103.056C136.025 105.36 135.353 107.376 134.969 111.6V126.576C134.969 132.72 135.161 136.368 135.737 140.976H115.865C116.441 136.176 116.633 132.72 116.633 126.48V96.912C116.633 89.904 116.441 86.544 115.865 82.416H134.969V90C139.673 83.856 145.433 81.264 154.169 81.264C157.241 81.264 159.161 81.456 163.673 82.416Z" fill="#FF6346"/>
<path d="M224.116 78.672H235.444C234.868 80.592 233.14 86.448 232.66 88.56L226.9 109.872C226.612 110.928 226.516 111.888 226.516 112.752C226.516 114.288 227.38 115.152 229.012 115.152C230.836 115.152 233.14 114.192 235.06 112.656C239.764 109.008 242.836 101.904 242.836 94.512C242.836 85.68 238.708 78 231.796 73.68C227.476 71.088 221.428 69.648 214.612 69.648C194.356 69.648 180.148 83.088 180.148 102.096C180.148 120.528 192.916 132.624 212.212 132.624C217.204 132.624 222.484 131.856 226.9 130.512C230.644 129.36 233.044 128.208 237.652 125.424L243.508 133.872C238.324 136.944 236.02 138.096 231.508 139.44C224.98 141.456 218.068 142.512 211.156 142.512C197.62 142.512 187.06 138.672 179.476 131.088C172.276 123.984 168.34 113.808 168.34 102.672C168.34 90.768 172.372 80.496 180.052 72.72C188.884 63.888 200.5 59.568 215.38 59.568C237.748 59.568 253.684 73.968 253.684 94.032C253.684 103.056 250.42 111.312 244.564 117.168C239.572 122.16 233.044 125.04 226.612 125.04C222.868 125.04 219.796 123.6 218.356 121.296C217.876 120.528 217.78 120.048 217.492 118.32C213.844 122.544 210.004 124.368 204.628 124.368C195.124 124.368 189.076 117.264 189.076 106.32C189.076 90.096 199.732 76.656 212.5 76.656C217.876 76.656 220.564 78 223.156 82.032L224.116 78.672ZM206.26 114.864C209.812 114.864 213.172 112.08 215.668 107.184C217.972 102.672 219.508 96.816 219.508 92.4C219.508 88.464 217.3 85.776 213.94 85.776C210.292 85.776 206.932 88.176 204.532 92.688C202.228 97.008 200.692 102.672 200.692 107.088C200.692 112.176 202.612 114.864 206.26 114.864Z" fill="#FF6346"/>
<path d="M281.587 140.976H262.771C263.347 136.368 263.539 132.336 263.539 125.904V76.176C263.539 69.168 263.347 65.712 262.771 61.104H282.259C281.779 65.712 281.587 69.168 281.587 76.176V84.24C281.587 85.68 281.587 86.544 281.491 87.888C287.155 82.896 293.299 80.688 301.267 80.688C318.739 80.688 328.915 91.824 328.915 110.832C328.915 121.104 325.939 129.36 320.371 135.216C315.379 140.208 308.851 142.704 300.403 142.704C292.435 142.704 287.731 141.072 281.491 135.888C281.491 136.176 281.587 137.424 281.587 137.904V140.976ZM310.291 111.024C310.291 101.232 305.203 95.28 296.755 95.28C288.019 95.28 281.779 102 281.779 111.312C281.779 120.816 288.115 128.016 296.371 128.016C304.723 128.016 310.291 121.2 310.291 111.024Z" fill="#FF6346"/>
<path d="M375.048 103.056V100.848C375.048 96.24 372.264 94.128 365.928 94.128C359.784 94.128 356.52 96.144 355.08 100.848L336.744 97.872C338.664 92.208 340.776 89.136 344.808 86.256C349.992 82.608 357.096 80.784 366.408 80.784C373.512 80.784 380.424 82.128 384.168 84.144C390.312 87.504 393 92.784 393 101.424V127.344C393 133.2 393.192 136.656 393.672 140.976H375.048V136.56C369.672 140.688 364.296 142.32 356.424 142.32C349.128 142.32 343.656 140.592 339.816 137.04C336.36 133.872 334.536 129.264 334.536 123.984C334.536 117.936 336.936 113.136 341.544 109.968C346.44 106.512 352.872 104.496 361.512 103.728C365.256 103.344 368.136 103.248 375.048 103.056ZM375.048 118.032V115.344C366.504 115.536 362.376 116.016 358.44 117.264C354.984 118.416 352.872 120.816 352.872 123.6C352.872 127.056 355.752 129.072 360.744 129.072C364.68 129.072 369 127.632 371.592 125.424C373.8 123.504 375.048 120.912 375.048 118.032Z" fill="#FF6346"/>
<path d="M108.739 35.3858C108.677 34.5232 108.82 33.6568 109.149 32.8958C109.478 32.1347 109.978 31.5129 110.588 31.1086C134.726 15.5255 161.476 7.41613 188.611 7.45573V32.791H189.223C190.576 32.7872 191.873 32.1101 192.829 30.9077C193.786 29.7053 194.324 28.0756 194.327 26.3752V7.52702C242.214 8.95275 278.033 32.4488 278.033 32.4488C183.824 -40.3776 83.582 32.1352 83.582 32.1352H48.2623C47.2349 32.1357 46.2223 32.4434 45.3082 33.033C44.394 33.6226 43.6046 34.4772 43.0051 35.526C42.4057 36.5749 42.0133 37.788 41.8605 39.0651C41.7076 40.3423 41.7987 41.6468 42.1262 42.8709L43.578 48.2602C44.2623 50.7508 44.3675 53.435 43.8813 55.998C43.3952 58.5611 42.3378 60.8969 40.8332 62.7314C30.4643 108.5 67.4643 101 67.4643 101C67.4643 101 35.9643 92 46.8105 70.7583C57.8919 66.9801 73.011 56.501 58.6518 47.6472L194.668 45.1093L111.994 39.4064C111.157 39.3411 110.368 38.8985 109.77 38.1599C109.172 37.4213 108.806 36.4363 108.739 35.3858Z" fill="#FF6346"/>
<path d="M392.26 82.5491C391.387 61.6051 363.905 42.2579 308.679 42.2579H222.876L245.14 47.5901C258.479 50.7838 293.674 52.3948 307.262 52.3948H316.075C339.44 52.3948 355.863 56.4582 367.319 61.6478C372.964 64.2054 376.964 68.5 376.964 68.5C381.964 73.5 379.464 82.5491 379.464 82.5491C385.495 85.0491 391.24 95.8949 392.964 100.5C392.949 99.9685 392.38 83.059 392.26 82.5491Z" fill="#FF6346"/>
</svg>
