<svg width="161" height="111" viewBox="0 0 161 111" fill="none" xmlns="http://www.w3.org/2000/svg">
<g clip-path="url(#clip0_4_684)">
<path d="M41.8328 36.2478C41.8423 16.2374 58.0719 0 78.0464 0C97.8853 0 114.247 16.0997 114.22 36.3339C114.218 41.0967 113.28 45.8126 111.457 50.2116C109.635 54.6106 106.965 58.6064 103.599 61.9704C100.234 65.3345 96.2396 68.0007 91.8448 69.8166C87.4501 71.6324 82.741 72.5623 77.9872 72.553C57.9249 72.5282 41.8423 56.2372 41.8328 36.2478ZM111.132 36.3014C111.134 27.516 107.659 19.0882 101.469 12.8653C95.2797 6.64238 86.8799 3.13202 78.1113 3.10368C59.8928 3.0597 44.9668 17.8476 44.9382 36.2287C44.9096 54.4664 59.6027 69.3862 77.9185 69.4493C96.1522 69.5125 111.086 54.7819 111.132 36.3014Z" fill="#A4A4A5"/>
<path d="M61.769 110.987H61.3186C59.2076 110.987 57.0965 110.987 54.9855 110.987C54.8283 110.993 54.6714 110.966 54.5253 110.908C54.3792 110.849 54.2472 110.76 54.1381 110.646C51.3915 107.969 48.6277 105.309 45.8811 102.628C45.7444 102.484 45.5784 102.371 45.3942 102.297C45.2101 102.223 45.0122 102.19 44.8141 102.2C42.8386 102.221 40.8631 102.2 38.8972 102.2H38.3093V110.86C37.8913 110.998 33.486 111.015 32.965 110.891V88.4787H38.2692C38.3208 89.1729 38.2826 89.8766 38.2864 90.5823C38.2902 91.2879 38.2864 92.0375 38.2864 92.7642C38.2864 93.4909 38.2864 94.187 38.2864 94.8964V97.0612C38.4175 97.0927 38.5509 97.1138 38.6853 97.1243C40.9643 97.1358 43.2452 97.1377 45.5242 97.153C45.6407 97.1534 45.756 97.1288 45.8623 97.081C45.9686 97.0332 46.0635 96.9632 46.1407 96.8757C48.8815 94.1908 51.6231 91.5066 54.3652 88.823C54.4834 88.6952 54.628 88.5949 54.7888 88.5288C54.9497 88.4628 55.123 88.4326 55.2966 88.4405C57.3561 88.4558 59.4156 88.4405 61.4751 88.4405H61.9694L62.021 88.5323L50.2825 99.857C54.14 103.548 57.9955 107.198 61.8358 110.864L61.769 110.987Z" fill="#A4A4A5"/>
<path d="M2.94891 106.21H20.1825C20.3352 106.21 20.486 106.21 20.6387 106.21C21.3449 106.191 21.7839 105.783 21.803 105.076C21.8259 104.311 21.803 103.546 21.803 102.792C21.803 102.494 21.7877 102.194 21.7781 101.85H21.0719C15.9388 101.85 10.8051 101.85 5.6707 101.85C4.85842 101.882 4.04905 101.734 3.30011 101.417C1.55557 100.61 0.627943 99.2374 0.578317 97.3136C0.542052 95.9253 0.534417 94.5369 0.578317 93.1505C0.668025 90.393 2.90883 88.3698 5.65353 88.4577C5.71184 88.4688 5.7688 88.4861 5.8234 88.5093V95.5199C5.8234 95.6729 5.8234 95.8258 5.8234 95.9769C5.82904 96.2594 5.94229 96.5291 6.13994 96.7307C6.3376 96.9323 6.6047 97.0505 6.88654 97.0612C7.03733 97.0727 7.19002 97.0612 7.34272 97.0612C12.2722 97.0612 17.203 97.0612 22.1351 97.0612C22.6409 97.0554 23.1456 97.1087 23.6391 97.2199C25.7101 97.7248 27.0194 99.3713 27.0748 101.565C27.1129 103.102 27.1129 104.642 27.0748 106.183C27.0757 107.312 26.679 108.406 25.9546 109.271C25.2302 110.137 24.2244 110.718 23.1142 110.914C22.7992 110.969 22.4796 110.993 22.1599 110.987C14.9489 110.987 7.73782 110.987 0.526782 110.987C0.381722 110.987 0.234752 110.969 0.00189209 110.958C1.00395 109.34 1.97166 107.784 2.94891 106.21Z" fill="#A4A4A5"/>
<path d="M26.5308 88.5055C25.5554 90.0564 24.6125 91.5557 23.6677 93.0702H11.0169L8.17297 88.5399C8.56616 88.4309 25.7158 88.3946 26.5308 88.5055Z" fill="#A4A4A5"/>
<path d="M126.164 96.5066C126.149 94.3323 125.428 92.4277 123.891 90.8711C122.292 89.2475 120.316 88.4998 118.06 88.452C117.217 88.4348 116.373 88.452 115.527 88.452H99.1126C98.9007 88.452 98.687 88.4615 98.4617 88.4654V110.96C98.666 110.971 98.8148 110.987 98.9637 110.987C105.362 110.987 111.76 110.987 118.159 110.987C118.699 110.986 119.238 110.931 119.767 110.822C123.593 110.013 126.107 106.925 126.157 102.959C126.197 100.804 126.185 98.6542 126.164 96.5066ZM120.786 103.368C120.769 104.863 119.641 105.936 118.15 105.94C113.523 105.949 108.897 105.949 104.272 105.94C104.138 105.94 104.006 105.921 103.818 105.908V93.5426C103.944 93.5202 104.071 93.5048 104.199 93.4967C108.858 93.4967 113.519 93.4871 118.179 93.4967C118.518 93.4887 118.856 93.5491 119.172 93.6743C119.488 93.7995 119.776 93.987 120.018 94.2255C120.26 94.4641 120.453 94.749 120.583 95.0633C120.714 95.3776 120.78 95.7149 120.778 96.0553C120.819 98.4942 120.823 100.932 120.792 103.368H120.786Z" fill="#A4A4A5"/>
<path d="M92.3806 96.3307C92.3906 94.833 91.9503 93.367 91.1171 92.1236C89.4661 89.651 87.0936 88.4902 84.1637 88.4634C80.0772 88.4366 75.9907 88.4539 71.9042 88.4634C71.398 88.4627 70.8925 88.5024 70.3925 88.582C66.4473 89.2264 63.6949 92.4353 63.6472 96.4626C63.6224 98.6445 63.6281 100.828 63.6472 103.01C63.6293 104.718 64.1726 106.384 65.1932 107.751C66.7565 109.824 68.8675 110.908 71.4461 110.979C73.6239 111.04 75.8037 110.992 77.9815 110.992C80.041 110.992 82.1004 110.992 84.1618 110.992C84.6843 110.991 85.2061 110.953 85.7231 110.878C87.5704 110.589 89.2549 109.651 90.4748 108.232C91.6947 106.812 92.3703 105.004 92.3806 103.131C92.3908 100.865 92.3908 98.5987 92.3806 96.3307ZM87.021 103.387C87.018 104.065 86.7473 104.714 86.2681 105.193C85.7889 105.672 85.1401 105.941 84.4634 105.942C83.4861 105.963 82.507 105.942 81.5278 105.942H78.0349C75.9086 105.942 73.7824 105.942 71.6561 105.942C71.0941 105.958 70.5427 105.786 70.0884 105.455C69.6342 105.123 69.3028 104.649 69.1461 104.108C69.0545 103.798 69.0089 103.476 69.0106 103.152C68.9992 100.869 69.0106 98.5872 69.0106 96.3039C68.9939 95.8626 69.0795 95.4233 69.2607 95.0207C69.4578 94.5774 69.7756 94.1988 70.1777 93.9282C70.5797 93.6576 71.0498 93.506 71.5339 93.4909C71.6179 93.4909 71.7038 93.4909 71.7878 93.4909C75.9398 93.4909 80.0912 93.4909 84.242 93.4909C84.6645 93.4722 85.0856 93.5507 85.4731 93.7204C86.4408 94.1831 87 94.9557 87.0191 96.0304C87.0459 98.4839 87.0363 100.936 87.021 103.387Z" fill="#A4A4A5"/>
<path d="M160.782 110.503C156.736 103.278 152.692 96.0534 148.651 88.8287C148.593 88.7013 148.496 88.5956 148.374 88.5269C148.252 88.4582 148.112 88.4299 147.973 88.4462C145.81 88.4602 143.647 88.4602 141.484 88.4462C141.328 88.4322 141.172 88.468 141.039 88.5484C140.905 88.6289 140.8 88.7497 140.739 88.8937C136.714 96.1031 132.683 103.311 128.646 110.518C128.573 110.646 128.516 110.782 128.43 110.958C128.621 110.958 128.776 110.983 128.921 110.983C130.558 110.983 132.198 110.969 133.834 110.996C133.998 111.012 134.163 110.975 134.304 110.889C134.445 110.804 134.554 110.675 134.616 110.522C135.998 108.023 137.401 105.535 138.796 103.045C138.89 102.876 138.987 102.716 139.121 102.507C139.26 102.722 139.355 102.861 139.445 103.003C140.209 104.204 140.972 105.401 141.709 106.609C141.757 106.717 141.839 106.806 141.942 106.862C142.046 106.918 142.165 106.938 142.281 106.919C142.399 106.911 142.517 106.911 142.635 106.919C145.759 106.919 148.882 106.934 152.006 106.904C152.218 106.88 152.432 106.926 152.614 107.037C152.796 107.147 152.937 107.315 153.014 107.514C153.491 108.445 154.026 109.348 154.541 110.262C154.673 110.497 154.81 110.728 154.94 110.95H161.011C160.912 110.767 160.855 110.631 160.782 110.503ZM139.249 102.222L144.639 92.6074L150.006 102.182C149.597 102.293 140.098 102.328 139.249 102.222Z" fill="#A4A4A5"/>
<path d="M79.2508 21.9686C79.163 21.7774 79.079 21.5861 78.9816 21.3949C77.7269 18.9571 76.1845 16.6792 74.3874 14.61C72.7585 12.6864 70.979 10.8959 69.066 9.25557C68.9701 9.18716 68.8686 9.12703 68.7625 9.07582L68.8312 8.92474C69.673 8.69527 70.509 8.44284 71.3564 8.24396C74.0777 7.63008 76.8692 7.38694 79.6554 7.52111C80.3097 7.52675 80.9397 7.76999 81.4286 8.20572C85.078 11.3515 88.0078 15.0384 90.0005 19.4463C91.2416 22.2067 92.0817 25.131 92.4952 28.1301C92.7889 30.1738 92.9095 32.2389 92.8559 34.303C92.7091 39.4504 91.6867 44.5349 89.8326 49.3376C89.7734 49.4944 89.7123 49.6512 89.6417 49.8463C89.7558 49.8792 89.8728 49.9016 89.991 49.9132C90.7163 49.9132 91.4435 49.9132 92.1688 49.9227C92.2853 49.9365 92.4026 49.9058 92.4974 49.8367C92.5923 49.7675 92.6576 49.6651 92.6803 49.5498C92.8922 48.9475 93.125 48.3508 93.3636 47.714C96.7304 48.1304 99.8542 49.6861 102.218 52.1238C99.8564 54.5602 96.7367 56.1176 93.3732 56.5393C93.0945 55.8146 92.8235 55.1108 92.5391 54.3689H91.9665C83.3036 54.3689 74.64 54.3689 65.9758 54.3689C65.6394 54.3638 65.3072 54.444 65.01 54.6022C63.9946 55.1395 62.9658 55.6482 61.9561 56.1836C61.5398 56.4098 61.0725 56.525 60.599 56.5183C59.5683 56.5068 58.5377 56.5183 57.507 56.5183C57.4003 56.5257 57.2933 56.5087 57.1941 56.4686C57.0949 56.4285 57.0061 56.3664 56.9344 56.2869C54.6738 53.8335 52.8268 51.0278 51.466 47.9798C51.4386 47.9039 51.415 47.8267 51.3953 47.7485C51.5442 47.7332 51.6683 47.7102 51.7942 47.7102C54.497 47.7102 57.1978 47.7102 59.9005 47.7102C60.2892 47.7117 60.6732 47.7965 61.0266 47.9588C62.3627 48.5516 63.7159 49.1368 65.0577 49.7334C65.3488 49.8681 65.6669 49.9335 65.9873 49.9247C66.4759 49.9113 66.9664 49.9247 67.457 49.9247C67.6192 49.9247 67.7834 49.9074 68.0009 49.8941C67.957 49.4791 67.9246 49.1119 67.8769 48.7467C67.6596 46.896 67.1588 45.0899 66.3919 43.3922C65.1322 40.671 63.1624 38.5847 60.6658 36.9649C58.3659 35.4695 55.8521 34.4541 53.222 33.714C51.9584 33.3526 50.6777 33.0543 49.3416 32.712C49.3293 32.5643 49.3293 32.4159 49.3416 32.2683C49.8605 28.7125 51.0387 25.2854 52.8154 22.1637C52.865 22.0776 52.9261 21.9973 53.0063 21.8692C53.5178 21.9935 54.0408 22.1082 54.5599 22.2516C58.0777 23.1676 61.5152 24.3131 64.7447 26.0093C65.6704 26.495 66.5503 27.0687 67.4303 27.631C68.0162 28.0134 68.0029 28.0306 68.6537 27.5736C68.5277 27.4187 68.4075 27.2619 68.272 27.1165C67.0256 25.7473 65.5998 24.5923 64.1129 23.4832C61.5622 21.5933 58.8935 19.8687 56.1232 18.3199C55.9781 18.2396 55.835 18.1536 55.6517 18.0445C55.9418 17.7061 56.1957 17.3925 56.4667 17.0884C58.5539 14.7648 61.0002 12.7923 63.7121 11.2463C63.8506 11.1553 64.0104 11.1019 64.1757 11.0916C64.3411 11.0812 64.5062 11.1141 64.655 11.187C66.787 12.0954 68.6976 13.3594 70.509 14.7841C73.122 16.836 75.4716 19.169 77.7066 21.6225L77.8422 21.7736C78.3785 22.374 78.4472 22.374 79.2508 21.9686ZM86.542 42.9868C86.5401 42.2769 86.328 41.5834 85.9325 40.9943C85.5371 40.4052 84.9761 39.9469 84.3205 39.6774C83.6649 39.4079 82.9443 39.3394 82.2498 39.4804C81.5554 39.6215 80.9183 39.9658 80.4192 40.4698C79.9202 40.9739 79.5816 41.6149 79.4464 42.3118C79.3112 43.0087 79.3854 43.7301 79.6596 44.3847C79.9338 45.0394 80.3957 45.5978 80.9868 45.9892C81.578 46.3807 82.2718 46.5876 82.9804 46.5839C83.4506 46.5841 83.9162 46.4911 84.3503 46.31C84.7844 46.129 85.1784 45.8636 85.5095 45.5291C85.8407 45.1947 86.1024 44.7978 86.2796 44.3615C86.4569 43.9251 86.546 43.4579 86.542 42.9868Z" fill="#A4A4A5"/>
</g>
<defs>
<clipPath id="clip0_4_684">
<rect width="161" height="111" fill="white"/>
</clipPath>
</defs>
</svg>
