<svg width="357" height="169" viewBox="0 0 357 169" fill="none" xmlns="http://www.w3.org/2000/svg">
<path d="M1.4405 162V153.077C1.4405 152.69 1.49783 152.432 1.6125 152.303C1.7415 152.174 2.00667 152.11 2.408 152.11H11.825V153.636H4.3V156.13H11.18V157.657H4.3V160.473H11.825V162H1.4405ZM14.3402 162C13.8672 162 13.6307 161.756 13.6307 161.269V153.98C14.0607 153.808 14.6698 153.665 15.4582 153.55C16.2608 153.421 17.1495 153.357 18.1242 153.357C19.1418 153.357 19.9445 153.414 20.5322 153.529C21.1342 153.644 21.5785 153.837 21.8652 154.109C22.1662 154.382 22.3597 154.74 22.4457 155.184C22.546 155.629 22.5962 156.181 22.5962 156.84V160.989C22.5962 161.247 22.5747 161.455 22.5317 161.613C22.503 161.756 22.4098 161.864 22.2522 161.935C22.1088 161.993 21.8795 162.022 21.5642 162.022L20.0162 162V156.238C20.0162 155.736 19.8585 155.371 19.5432 155.141C19.2278 154.912 18.762 154.797 18.1457 154.797C17.9307 154.797 17.7013 154.819 17.4577 154.862C17.214 154.891 16.9847 154.941 16.7697 155.012C16.5547 155.07 16.3755 155.149 16.2322 155.249V162H14.3402ZM29.4061 162.129C28.1878 162.129 27.1988 162.021 26.4391 161.806C25.6938 161.577 25.1491 161.154 24.8051 160.538C24.4755 159.922 24.3106 159.026 24.3106 157.85C24.3106 156.603 24.4755 155.657 24.8051 155.012C25.1491 154.353 25.6938 153.902 26.4391 153.658C27.1988 153.414 28.1878 153.292 29.4061 153.292C29.7788 153.292 30.1371 153.314 30.4811 153.357C30.8251 153.386 31.2336 153.436 31.7066 153.507C31.9646 153.536 32.1725 153.593 32.3301 153.679C32.5021 153.765 32.6311 153.909 32.7171 154.109C32.8031 154.31 32.8461 154.604 32.8461 154.991C32.6741 154.919 32.4233 154.862 32.0936 154.819C31.764 154.762 31.4128 154.719 31.0401 154.69C30.6818 154.661 30.3521 154.647 30.0511 154.647C29.2915 154.647 28.6823 154.74 28.2236 154.926C27.7793 155.113 27.4568 155.428 27.2561 155.872C27.0698 156.317 26.9766 156.919 26.9766 157.678C26.9766 158.438 27.0698 159.04 27.2561 159.484C27.4425 159.929 27.7578 160.244 28.2021 160.43C28.6608 160.617 29.2771 160.71 30.0511 160.71C30.4095 160.71 30.7678 160.696 31.1261 160.667C31.4988 160.624 31.8356 160.581 32.1366 160.538C32.4376 160.481 32.6741 160.416 32.8461 160.344V161.075C32.8461 161.376 32.6885 161.606 32.3731 161.763C32.0721 161.907 31.6636 162 31.1476 162.043C30.6316 162.1 30.0511 162.129 29.4061 162.129ZM36.9308 153.421V159.076C36.9308 159.664 37.0813 160.079 37.3823 160.323C37.6976 160.552 38.185 160.667 38.8443 160.667C39.5466 160.667 40.0411 160.545 40.3278 160.301C40.6288 160.043 40.7793 159.642 40.7793 159.097V153.421C40.7936 153.421 40.8653 153.421 40.9943 153.421C41.1376 153.421 41.2953 153.421 41.4673 153.421C41.6536 153.407 41.8185 153.4 41.9618 153.4C42.1195 153.4 42.2198 153.4 42.2628 153.4C42.5351 153.4 42.7501 153.421 42.9078 153.464C43.0798 153.493 43.2016 153.572 43.2733 153.701C43.345 153.816 43.3808 154.023 43.3808 154.324V158.753C43.3808 159.57 43.259 160.23 43.0153 160.731C42.7716 161.219 42.3201 161.577 41.6608 161.806C41.0015 162.021 40.0411 162.129 38.7798 162.129C37.6331 162.129 36.7301 162.036 36.0708 161.849C35.4258 161.663 34.9671 161.341 34.6948 160.882C34.4368 160.423 34.3078 159.778 34.3078 158.947V154.324C34.3078 153.966 34.3651 153.722 34.4798 153.593C34.6088 153.464 34.874 153.4 35.2753 153.4C35.5476 153.4 35.82 153.407 36.0923 153.421C36.3646 153.421 36.6441 153.421 36.9308 153.421ZM49.8918 162.129C48.9458 162.129 48.1646 162.072 47.5483 161.957C46.9319 161.828 46.4446 161.613 46.0863 161.312C45.7279 161.011 45.4699 160.581 45.3123 160.022C45.1546 159.463 45.0758 158.746 45.0758 157.872C45.0758 156.783 45.2191 155.908 45.5058 155.249C45.8068 154.59 46.3228 154.109 47.0538 153.808C47.7991 153.507 48.8311 153.357 50.1498 153.357C51.1818 153.357 52.0059 153.472 52.6223 153.701C53.2386 153.93 53.6829 154.296 53.9553 154.797C54.2276 155.285 54.3638 155.915 54.3638 156.689V158.194H48.3438C48.3438 157.936 48.4011 157.721 48.5158 157.549C48.6448 157.363 48.8669 157.27 49.1823 157.27H52.0203V156.754C52.0059 156.066 51.8554 155.557 51.5688 155.227C51.2964 154.898 50.7948 154.733 50.0638 154.733C49.4474 154.733 48.9673 154.826 48.6233 155.012C48.2936 155.199 48.0571 155.514 47.9138 155.958C47.7848 156.403 47.7203 157.026 47.7203 157.829C47.7203 158.603 47.7991 159.191 47.9568 159.592C48.1144 159.993 48.3868 160.266 48.7738 160.409C49.1751 160.538 49.7269 160.602 50.4293 160.602C50.6873 160.602 51.0098 160.595 51.3968 160.581C51.7981 160.567 52.1994 160.552 52.6008 160.538C53.0164 160.509 53.3819 160.481 53.6973 160.452C54.0126 160.409 54.2133 160.373 54.2993 160.344V160.688C54.2993 160.86 54.2634 161.047 54.1918 161.247C54.1344 161.434 53.9983 161.584 53.7833 161.699C53.5109 161.871 53.0523 161.986 52.4073 162.043C51.7766 162.1 50.9381 162.129 49.8918 162.129ZM56.7733 162C56.3003 162 56.0638 161.756 56.0638 161.269V153.98C56.4938 153.808 57.1029 153.665 57.8913 153.55C58.6939 153.421 59.5826 153.357 60.5573 153.357C61.5749 153.357 62.3776 153.414 62.9653 153.529C63.5673 153.644 64.0116 153.837 64.2983 154.109C64.5993 154.382 64.7928 154.74 64.8788 155.184C64.9791 155.629 65.0293 156.181 65.0293 156.84V160.989C65.0293 161.247 65.0078 161.455 64.9648 161.613C64.9361 161.756 64.8429 161.864 64.6853 161.935C64.5419 161.993 64.3126 162.022 63.9973 162.022L62.4493 162V156.238C62.4493 155.736 62.2916 155.371 61.9763 155.141C61.6609 154.912 61.1951 154.797 60.5788 154.797C60.3638 154.797 60.1344 154.819 59.8908 154.862C59.6471 154.891 59.4178 154.941 59.2028 155.012C58.9878 155.07 58.8086 155.149 58.6653 155.249V162H56.7733ZM70.0117 162.086C69.3381 162.086 68.8077 162.014 68.4207 161.871C68.0481 161.713 67.7829 161.462 67.6252 161.118C67.4676 160.76 67.3887 160.273 67.3887 159.656V154.797H66.5072V153.421H67.3887V152.153C67.3887 151.852 67.4102 151.63 67.4532 151.486C67.4962 151.343 67.5822 151.25 67.7112 151.207C67.8546 151.164 68.0624 151.143 68.3347 151.143H70.0117C70.0117 151.185 70.0046 151.257 69.9902 151.357C69.9902 151.443 69.9902 151.558 69.9902 151.701V153.421H72.0542V154.797H70.0117V159.42C70.0117 159.979 70.0619 160.387 70.1622 160.645C70.2769 160.889 70.5636 161.011 71.0222 161.011C71.1656 161.011 71.3304 160.997 71.5167 160.968C71.7174 160.939 71.8536 160.911 71.9252 160.882V161.892C71.8392 161.907 71.6242 161.943 71.2802 162C70.9362 162.057 70.5134 162.086 70.0117 162.086ZM76.1975 162H74.37C74.0977 162 73.897 161.935 73.768 161.806C73.639 161.663 73.5745 161.391 73.5745 160.989V153.851C73.9472 153.751 74.4775 153.644 75.1655 153.529C75.8678 153.414 76.6705 153.357 77.5735 153.357C78.5052 153.357 79.2362 153.414 79.7665 153.529C80.2968 153.644 80.6838 153.808 80.9275 154.023C81.1855 154.238 81.3503 154.511 81.422 154.84C81.4937 155.17 81.5295 155.564 81.5295 156.023H79.0355V155.722C79.0212 155.378 78.9423 155.127 78.799 154.969C78.6557 154.812 78.4765 154.719 78.2615 154.69C78.0465 154.647 77.8315 154.625 77.6165 154.625C77.3012 154.625 77.0145 154.661 76.7565 154.733C76.5128 154.79 76.3265 154.876 76.1975 154.991V162ZM87.1943 162.108C86.2483 162.108 85.4814 162.072 84.8938 162C84.3061 161.943 83.8546 161.821 83.5393 161.634C83.2239 161.434 83.0089 161.161 82.8943 160.817C82.7796 160.473 82.7223 160.036 82.7223 159.506C82.7223 158.775 82.8011 158.216 82.9588 157.829C83.1164 157.442 83.3816 157.184 83.7543 157.055C84.1413 156.912 84.6573 156.84 85.3023 156.84C85.6606 156.84 86.0619 156.847 86.5063 156.861C86.9649 156.861 87.4093 156.869 87.8393 156.883C88.2693 156.897 88.6419 156.926 88.9573 156.969C89.2869 156.998 89.5091 157.026 89.6238 157.055C89.6238 156.539 89.5808 156.13 89.4948 155.829C89.4088 155.528 89.2654 155.299 89.0648 155.141C88.8641 154.984 88.6061 154.883 88.2908 154.84C87.9898 154.797 87.6243 154.776 87.1943 154.776C86.7069 154.776 86.2124 154.79 85.7108 154.819C85.2234 154.833 84.7576 154.869 84.3133 154.926C83.8833 154.969 83.5034 155.034 83.1738 155.12V154.625C83.1738 154.267 83.2598 154.009 83.4318 153.851C83.6038 153.679 83.8259 153.565 84.0983 153.507C84.4136 153.436 84.8723 153.386 85.4743 153.357C86.0906 153.328 86.7428 153.314 87.4308 153.314C88.3194 153.314 89.0648 153.357 89.6668 153.443C90.2688 153.529 90.7489 153.701 91.1073 153.959C91.4799 154.217 91.7451 154.597 91.9028 155.098C92.0604 155.586 92.1393 156.245 92.1393 157.076V161.419C91.9673 161.663 91.4656 161.842 90.6343 161.957C89.8173 162.057 88.6706 162.108 87.1943 162.108ZM87.1728 160.989C87.6601 160.989 88.0614 160.982 88.3768 160.968C88.7064 160.939 88.9716 160.896 89.1723 160.839C89.3729 160.782 89.5234 160.71 89.6238 160.624V157.958C89.4804 157.915 89.2511 157.879 88.9358 157.85C88.6348 157.807 88.3266 157.779 88.0113 157.764C87.6959 157.736 87.4308 157.721 87.2158 157.721C86.7858 157.721 86.4346 157.757 86.1623 157.829C85.8899 157.886 85.6893 158.03 85.5603 158.259C85.4456 158.488 85.3883 158.847 85.3883 159.334C85.3883 159.721 85.4313 160.043 85.5173 160.301C85.6033 160.545 85.7753 160.724 86.0333 160.839C86.2913 160.939 86.6711 160.989 87.1728 160.989ZM102.934 162.086C102.26 162.086 101.73 162.014 101.343 161.871C100.97 161.713 100.705 161.462 100.547 161.118C100.389 160.76 100.311 160.273 100.311 159.656V154.797H99.4291V153.421H100.311V152.153C100.311 151.852 100.332 151.63 100.375 151.486C100.418 151.343 100.504 151.25 100.633 151.207C100.776 151.164 100.984 151.143 101.257 151.143H102.934C102.934 151.185 102.926 151.257 102.912 151.357C102.912 151.443 102.912 151.558 102.912 151.701V153.421H104.976V154.797H102.934V159.42C102.934 159.979 102.984 160.387 103.084 160.645C103.199 160.889 103.485 161.011 103.944 161.011C104.087 161.011 104.252 160.997 104.439 160.968C104.639 160.939 104.775 160.911 104.847 160.882V161.892C104.761 161.907 104.546 161.943 104.202 162C103.858 162.057 103.435 162.086 102.934 162.086ZM108.947 153.421V159.076C108.947 159.664 109.098 160.079 109.399 160.323C109.714 160.552 110.202 160.667 110.861 160.667C111.563 160.667 112.058 160.545 112.344 160.301C112.645 160.043 112.796 159.642 112.796 159.097V153.421C112.81 153.421 112.882 153.421 113.011 153.421C113.154 153.421 113.312 153.421 113.484 153.421C113.67 153.407 113.835 153.4 113.978 153.4C114.136 153.4 114.236 153.4 114.279 153.4C114.552 153.4 114.767 153.421 114.924 153.464C115.096 153.493 115.218 153.572 115.29 153.701C115.362 153.816 115.397 154.023 115.397 154.324V158.753C115.397 159.57 115.276 160.23 115.032 160.731C114.788 161.219 114.337 161.577 113.677 161.806C113.018 162.021 112.058 162.129 110.796 162.129C109.65 162.129 108.747 162.036 108.087 161.849C107.442 161.663 106.984 161.341 106.711 160.882C106.453 160.423 106.324 159.778 106.324 158.947V154.324C106.324 153.966 106.382 153.722 106.496 153.593C106.625 153.464 106.891 153.4 107.292 153.4C107.564 153.4 107.837 153.407 108.109 153.421C108.381 153.421 108.661 153.421 108.947 153.421ZM128.067 162.129C126.848 162.129 125.859 162.021 125.1 161.806C124.354 161.577 123.81 161.154 123.466 160.538C123.136 159.922 122.971 159.026 122.971 157.85C122.971 156.603 123.136 155.657 123.466 155.012C123.81 154.353 124.354 153.902 125.1 153.658C125.859 153.414 126.848 153.292 128.067 153.292C128.439 153.292 128.798 153.314 129.142 153.357C129.486 153.386 129.894 153.436 130.367 153.507C130.625 153.536 130.833 153.593 130.991 153.679C131.163 153.765 131.292 153.909 131.378 154.109C131.464 154.31 131.507 154.604 131.507 154.991C131.335 154.919 131.084 154.862 130.754 154.819C130.425 154.762 130.073 154.719 129.701 154.69C129.342 154.661 129.013 154.647 128.712 154.647C127.952 154.647 127.343 154.74 126.884 154.926C126.44 155.113 126.117 155.428 125.917 155.872C125.73 156.317 125.637 156.919 125.637 157.678C125.637 158.438 125.73 159.04 125.917 159.484C126.103 159.929 126.418 160.244 126.863 160.43C127.321 160.617 127.938 160.71 128.712 160.71C129.07 160.71 129.428 160.696 129.787 160.667C130.159 160.624 130.496 160.581 130.797 160.538C131.098 160.481 131.335 160.416 131.507 160.344V161.075C131.507 161.376 131.349 161.606 131.034 161.763C130.733 161.907 130.324 162 129.808 162.043C129.292 162.1 128.712 162.129 128.067 162.129ZM137.333 162.108C136.387 162.108 135.62 162.072 135.032 162C134.445 161.943 133.993 161.821 133.678 161.634C133.363 161.434 133.148 161.161 133.033 160.817C132.918 160.473 132.861 160.036 132.861 159.506C132.861 158.775 132.94 158.216 133.097 157.829C133.255 157.442 133.52 157.184 133.893 157.055C134.28 156.912 134.796 156.84 135.441 156.84C135.799 156.84 136.201 156.847 136.645 156.861C137.104 156.861 137.548 156.869 137.978 156.883C138.408 156.897 138.781 156.926 139.096 156.969C139.426 156.998 139.648 157.026 139.762 157.055C139.762 156.539 139.719 156.13 139.633 155.829C139.547 155.528 139.404 155.299 139.203 155.141C139.003 154.984 138.745 154.883 138.429 154.84C138.128 154.797 137.763 154.776 137.333 154.776C136.846 154.776 136.351 154.79 135.849 154.819C135.362 154.833 134.896 154.869 134.452 154.926C134.022 154.969 133.642 155.034 133.312 155.12V154.625C133.312 154.267 133.398 154.009 133.57 153.851C133.742 153.679 133.965 153.565 134.237 153.507C134.552 153.436 135.011 153.386 135.613 153.357C136.229 153.328 136.881 153.314 137.569 153.314C138.458 153.314 139.203 153.357 139.805 153.443C140.407 153.529 140.888 153.701 141.246 153.959C141.619 154.217 141.884 154.597 142.041 155.098C142.199 155.586 142.278 156.245 142.278 157.076V161.419C142.106 161.663 141.604 161.842 140.773 161.957C139.956 162.057 138.809 162.108 137.333 162.108ZM137.311 160.989C137.799 160.989 138.2 160.982 138.515 160.968C138.845 160.939 139.11 160.896 139.311 160.839C139.512 160.782 139.662 160.71 139.762 160.624V157.958C139.619 157.915 139.39 157.879 139.074 157.85C138.773 157.807 138.465 157.779 138.15 157.764C137.835 157.736 137.569 157.721 137.354 157.721C136.924 157.721 136.573 157.757 136.301 157.829C136.029 157.886 135.828 158.03 135.699 158.259C135.584 158.488 135.527 158.847 135.527 159.334C135.527 159.721 135.57 160.043 135.656 160.301C135.742 160.545 135.914 160.724 136.172 160.839C136.43 160.939 136.81 160.989 137.311 160.989ZM145.215 162C144.814 162 144.549 161.943 144.42 161.828C144.291 161.699 144.226 161.427 144.226 161.011V154.002C144.413 153.93 144.656 153.866 144.957 153.808C145.258 153.737 145.595 153.672 145.968 153.615C146.341 153.543 146.735 153.486 147.15 153.443C147.58 153.4 148.003 153.378 148.419 153.378C148.964 153.378 149.429 153.421 149.816 153.507C150.218 153.593 150.555 153.751 150.827 153.98C151.114 154.195 151.357 154.518 151.558 154.948H151.149C151.278 154.618 151.458 154.353 151.687 154.152C151.916 153.937 152.189 153.78 152.504 153.679C152.819 153.565 153.135 153.486 153.45 153.443C153.765 153.4 154.052 153.378 154.31 153.378C155.242 153.378 155.973 153.464 156.503 153.636C157.033 153.794 157.413 154.081 157.642 154.496C157.886 154.898 158.008 155.464 158.008 156.195V161.097C158.008 161.484 157.936 161.735 157.793 161.849C157.664 161.95 157.406 162 157.019 162H155.385C155.385 161.011 155.385 160.029 155.385 159.054C155.385 158.08 155.385 157.098 155.385 156.109C155.385 155.521 155.263 155.134 155.019 154.948C154.776 154.747 154.41 154.647 153.923 154.647C153.694 154.647 153.464 154.683 153.235 154.754C153.006 154.812 152.812 154.898 152.654 155.012C152.511 155.127 152.439 155.263 152.439 155.421V162H149.816V155.765C149.816 155.407 149.68 155.141 149.408 154.969C149.136 154.783 148.777 154.69 148.333 154.69C148.061 154.69 147.817 154.711 147.602 154.754C147.387 154.783 147.208 154.84 147.064 154.926C146.935 154.998 146.864 155.098 146.849 155.227V162H145.215ZM162.23 162.086C161.384 162.086 160.797 161.907 160.467 161.548C160.152 161.176 159.994 160.595 159.994 159.807V153.421H162.617V159.678C162.617 160.18 162.681 160.531 162.81 160.731C162.939 160.918 163.169 161.011 163.498 161.011C163.656 161.011 163.807 160.997 163.95 160.968C164.093 160.939 164.186 160.918 164.229 160.903V161.892C164.172 161.907 164.072 161.928 163.928 161.957C163.785 161.986 163.577 162.014 163.305 162.043C163.033 162.072 162.674 162.086 162.23 162.086ZM161.327 152.303C160.911 152.303 160.61 152.253 160.424 152.153C160.238 152.038 160.144 151.83 160.144 151.529C160.144 151.228 160.238 151.021 160.424 150.906C160.625 150.791 160.933 150.734 161.348 150.734C161.764 150.748 162.058 150.813 162.23 150.927C162.416 151.028 162.502 151.228 162.488 151.529C162.488 151.83 162.402 152.038 162.23 152.153C162.058 152.253 161.757 152.303 161.327 152.303ZM166.184 162C165.711 162 165.474 161.756 165.474 161.269V153.98C165.904 153.808 166.514 153.665 167.302 153.55C168.105 153.421 168.993 153.357 169.968 153.357C170.986 153.357 171.788 153.414 172.376 153.529C172.978 153.644 173.422 153.837 173.709 154.109C174.01 154.382 174.203 154.74 174.289 155.184C174.39 155.629 174.44 156.181 174.44 156.84V160.989C174.44 161.247 174.418 161.455 174.375 161.613C174.347 161.756 174.254 161.864 174.096 161.935C173.953 161.993 173.723 162.022 173.408 162.022L171.86 162V156.238C171.86 155.736 171.702 155.371 171.387 155.141C171.072 154.912 170.606 154.797 169.989 154.797C169.774 154.797 169.545 154.819 169.301 154.862C169.058 154.891 168.828 154.941 168.613 155.012C168.398 155.07 168.219 155.149 168.076 155.249V162H166.184ZM180.927 162.129C180.168 162.129 179.494 162.079 178.906 161.978C178.319 161.864 177.817 161.656 177.401 161.355C177 161.04 176.692 160.588 176.477 160C176.262 159.413 176.154 158.653 176.154 157.721C176.154 156.79 176.262 156.03 176.477 155.442C176.692 154.855 177 154.41 177.401 154.109C177.817 153.794 178.319 153.586 178.906 153.486C179.494 153.371 180.168 153.314 180.927 153.314C181.701 153.314 182.375 153.371 182.948 153.486C183.536 153.586 184.031 153.794 184.432 154.109C184.833 154.41 185.134 154.855 185.335 155.442C185.55 156.03 185.657 156.79 185.657 157.721C185.657 158.667 185.55 159.434 185.335 160.022C185.134 160.595 184.833 161.04 184.432 161.355C184.031 161.656 183.536 161.864 182.948 161.978C182.361 162.079 181.687 162.129 180.927 162.129ZM180.927 160.817C181.386 160.817 181.766 160.739 182.067 160.581C182.382 160.423 182.619 160.122 182.776 159.678C182.934 159.234 183.013 158.581 183.013 157.721C183.013 156.861 182.934 156.209 182.776 155.765C182.619 155.321 182.382 155.02 182.067 154.862C181.766 154.704 181.386 154.625 180.927 154.625C180.483 154.625 180.103 154.704 179.788 154.862C179.473 155.02 179.229 155.321 179.057 155.765C178.885 156.209 178.799 156.861 178.799 157.721C178.799 158.581 178.885 159.234 179.057 159.678C179.229 160.122 179.473 160.423 179.788 160.581C180.103 160.739 180.483 160.817 180.927 160.817ZM187.477 164.322C187.692 163.935 187.9 163.534 188.101 163.118C188.301 162.702 188.473 162.33 188.617 162C188.588 162 188.552 162 188.509 162C188.466 161.986 188.423 161.978 188.38 161.978C188.165 161.964 187.979 161.907 187.821 161.806C187.664 161.692 187.585 161.47 187.585 161.14C187.585 160.882 187.649 160.688 187.778 160.559C187.907 160.43 188.079 160.352 188.294 160.323C188.509 160.28 188.753 160.258 189.025 160.258C189.441 160.258 189.756 160.316 189.971 160.43C190.201 160.531 190.315 160.774 190.315 161.161C190.315 161.462 190.236 161.821 190.079 162.237C189.935 162.652 189.756 163.046 189.541 163.419C189.326 163.806 189.14 164.107 188.982 164.322H187.477ZM202.785 162.129C201.839 162.129 201.058 162.072 200.442 161.957C199.825 161.828 199.338 161.613 198.98 161.312C198.621 161.011 198.363 160.581 198.206 160.022C198.048 159.463 197.969 158.746 197.969 157.872C197.969 156.783 198.113 155.908 198.399 155.249C198.7 154.59 199.216 154.109 199.947 153.808C200.693 153.507 201.725 153.357 203.043 153.357C204.075 153.357 204.899 153.472 205.516 153.701C206.132 153.93 206.576 154.296 206.849 154.797C207.121 155.285 207.257 155.915 207.257 156.689V158.194H201.237C201.237 157.936 201.295 157.721 201.409 157.549C201.538 157.363 201.76 157.27 202.076 157.27H204.914V156.754C204.899 156.066 204.749 155.557 204.462 155.227C204.19 154.898 203.688 154.733 202.957 154.733C202.341 154.733 201.861 154.826 201.517 155.012C201.187 155.199 200.951 155.514 200.807 155.958C200.678 156.403 200.614 157.026 200.614 157.829C200.614 158.603 200.693 159.191 200.85 159.592C201.008 159.993 201.28 160.266 201.667 160.409C202.069 160.538 202.62 160.602 203.323 160.602C203.581 160.602 203.903 160.595 204.29 160.581C204.692 160.567 205.093 160.552 205.494 160.538C205.91 160.509 206.275 160.481 206.591 160.452C206.906 160.409 207.107 160.373 207.193 160.344V160.688C207.193 160.86 207.157 161.047 207.085 161.247C207.028 161.434 206.892 161.584 206.677 161.699C206.404 161.871 205.946 161.986 205.301 162.043C204.67 162.1 203.832 162.129 202.785 162.129ZM209.667 162C209.194 162 208.957 161.756 208.957 161.269V153.98C209.387 153.808 209.996 153.665 210.785 153.55C211.587 153.421 212.476 153.357 213.451 153.357C214.468 153.357 215.271 153.414 215.859 153.529C216.461 153.644 216.905 153.837 217.192 154.109C217.493 154.382 217.686 154.74 217.772 155.184C217.873 155.629 217.923 156.181 217.923 156.84V160.989C217.923 161.247 217.901 161.455 217.858 161.613C217.83 161.756 217.736 161.864 217.579 161.935C217.435 161.993 217.206 162.022 216.891 162.022L215.343 162V156.238C215.343 155.736 215.185 155.371 214.87 155.141C214.554 154.912 214.089 154.797 213.472 154.797C213.257 154.797 213.028 154.819 212.784 154.862C212.541 154.891 212.311 154.941 212.096 155.012C211.881 155.07 211.702 155.149 211.559 155.249V162H209.667ZM224.733 162.129C223.514 162.129 222.525 162.021 221.766 161.806C221.02 161.577 220.476 161.154 220.132 160.538C219.802 159.922 219.637 159.026 219.637 157.85C219.637 156.603 219.802 155.657 220.132 155.012C220.476 154.353 221.02 153.902 221.766 153.658C222.525 153.414 223.514 153.292 224.733 153.292C225.105 153.292 225.464 153.314 225.808 153.357C226.152 153.386 226.56 153.436 227.033 153.507C227.291 153.536 227.499 153.593 227.657 153.679C227.829 153.765 227.958 153.909 228.044 154.109C228.13 154.31 228.173 154.604 228.173 154.991C228.001 154.919 227.75 154.862 227.42 154.819C227.091 154.762 226.739 154.719 226.367 154.69C226.008 154.661 225.679 154.647 225.378 154.647C224.618 154.647 224.009 154.74 223.55 154.926C223.106 155.113 222.783 155.428 222.583 155.872C222.396 156.317 222.303 156.919 222.303 157.678C222.303 158.438 222.396 159.04 222.583 159.484C222.769 159.929 223.084 160.244 223.529 160.43C223.987 160.617 224.604 160.71 225.378 160.71C225.736 160.71 226.094 160.696 226.453 160.667C226.825 160.624 227.162 160.581 227.463 160.538C227.764 160.481 228.001 160.416 228.173 160.344V161.075C228.173 161.376 228.015 161.606 227.7 161.763C227.399 161.907 226.99 162 226.474 162.043C225.958 162.1 225.378 162.129 224.733 162.129ZM232.257 153.421V159.076C232.257 159.664 232.408 160.079 232.709 160.323C233.024 160.552 233.512 160.667 234.171 160.667C234.873 160.667 235.368 160.545 235.654 160.301C235.955 160.043 236.106 159.642 236.106 159.097V153.421C236.12 153.421 236.192 153.421 236.321 153.421C236.464 153.421 236.622 153.421 236.794 153.421C236.98 153.407 237.145 153.4 237.288 153.4C237.446 153.4 237.546 153.4 237.589 153.4C237.862 153.4 238.077 153.421 238.234 153.464C238.406 153.493 238.528 153.572 238.6 153.701C238.672 153.816 238.707 154.023 238.707 154.324V158.753C238.707 159.57 238.586 160.23 238.342 160.731C238.098 161.219 237.647 161.577 236.987 161.806C236.328 162.021 235.368 162.129 234.106 162.129C232.96 162.129 232.057 162.036 231.397 161.849C230.752 161.663 230.294 161.341 230.021 160.882C229.763 160.423 229.634 159.778 229.634 158.947V154.324C229.634 153.966 229.692 153.722 229.806 153.593C229.935 153.464 230.201 153.4 230.602 153.4C230.874 153.4 231.147 153.407 231.419 153.421C231.691 153.421 231.971 153.421 232.257 153.421ZM245.218 162.129C244.272 162.129 243.491 162.072 242.875 161.957C242.259 161.828 241.771 161.613 241.413 161.312C241.055 161.011 240.797 160.581 240.639 160.022C240.481 159.463 240.402 158.746 240.402 157.872C240.402 156.783 240.546 155.908 240.832 155.249C241.133 154.59 241.649 154.109 242.38 153.808C243.126 153.507 244.158 153.357 245.476 153.357C246.508 153.357 247.333 153.472 247.949 153.701C248.565 153.93 249.01 154.296 249.282 154.797C249.554 155.285 249.69 155.915 249.69 156.689V158.194H243.67C243.67 157.936 243.728 157.721 243.842 157.549C243.971 157.363 244.194 157.27 244.509 157.27H247.347V156.754C247.333 156.066 247.182 155.557 246.895 155.227C246.623 154.898 246.121 154.733 245.39 154.733C244.774 154.733 244.294 154.826 243.95 155.012C243.62 155.199 243.384 155.514 243.24 155.958C243.111 156.403 243.047 157.026 243.047 157.829C243.047 158.603 243.126 159.191 243.283 159.592C243.441 159.993 243.713 160.266 244.1 160.409C244.502 160.538 245.054 160.602 245.756 160.602C246.014 160.602 246.336 160.595 246.723 160.581C247.125 160.567 247.526 160.552 247.927 160.538C248.343 160.509 248.709 160.481 249.024 160.452C249.339 160.409 249.54 160.373 249.626 160.344V160.688C249.626 160.86 249.59 161.047 249.518 161.247C249.461 161.434 249.325 161.584 249.11 161.699C248.838 161.871 248.379 161.986 247.734 162.043C247.103 162.1 246.265 162.129 245.218 162.129ZM252.1 162C251.627 162 251.39 161.756 251.39 161.269V153.98C251.82 153.808 252.43 153.665 253.218 153.55C254.021 153.421 254.909 153.357 255.884 153.357C256.902 153.357 257.704 153.414 258.292 153.529C258.894 153.644 259.338 153.837 259.625 154.109C259.926 154.382 260.119 154.74 260.205 155.184C260.306 155.629 260.356 156.181 260.356 156.84V160.989C260.356 161.247 260.334 161.455 260.291 161.613C260.263 161.756 260.17 161.864 260.012 161.935C259.869 161.993 259.639 162.022 259.324 162.022L257.776 162V156.238C257.776 155.736 257.618 155.371 257.303 155.141C256.988 154.912 256.522 154.797 255.905 154.797C255.69 154.797 255.461 154.819 255.217 154.862C254.974 154.891 254.744 154.941 254.529 155.012C254.314 155.07 254.135 155.149 253.992 155.249V162H252.1ZM265.338 162.086C264.665 162.086 264.134 162.014 263.747 161.871C263.375 161.713 263.11 161.462 262.952 161.118C262.794 160.76 262.715 160.273 262.715 159.656V154.797H261.834V153.421H262.715V152.153C262.715 151.852 262.737 151.63 262.78 151.486C262.823 151.343 262.909 151.25 263.038 151.207C263.181 151.164 263.389 151.143 263.661 151.143H265.338C265.338 151.185 265.331 151.257 265.317 151.357C265.317 151.443 265.317 151.558 265.317 151.701V153.421H267.381V154.797H265.338V159.42C265.338 159.979 265.389 160.387 265.489 160.645C265.604 160.889 265.89 161.011 266.349 161.011C266.492 161.011 266.657 160.997 266.843 160.968C267.044 160.939 267.18 160.911 267.252 160.882V161.892C267.166 161.907 266.951 161.943 266.607 162C266.263 162.057 265.84 162.086 265.338 162.086ZM271.524 162H269.697C269.424 162 269.224 161.935 269.095 161.806C268.966 161.663 268.901 161.391 268.901 160.989V153.851C269.274 153.751 269.804 153.644 270.492 153.529C271.195 153.414 271.997 153.357 272.9 153.357C273.832 153.357 274.563 153.414 275.093 153.529C275.624 153.644 276.011 153.808 276.254 154.023C276.512 154.238 276.677 154.511 276.749 154.84C276.82 155.17 276.856 155.564 276.856 156.023H274.362V155.722C274.348 155.378 274.269 155.127 274.126 154.969C273.982 154.812 273.803 154.719 273.588 154.69C273.373 154.647 273.158 154.625 272.943 154.625C272.628 154.625 272.341 154.661 272.083 154.733C271.84 154.79 271.653 154.876 271.524 154.991V162ZM282.521 162.108C281.575 162.108 280.808 162.072 280.22 162C279.633 161.943 279.181 161.821 278.866 161.634C278.551 161.434 278.336 161.161 278.221 160.817C278.106 160.473 278.049 160.036 278.049 159.506C278.049 158.775 278.128 158.216 278.285 157.829C278.443 157.442 278.708 157.184 279.081 157.055C279.468 156.912 279.984 156.84 280.629 156.84C280.987 156.84 281.389 156.847 281.833 156.861C282.292 156.861 282.736 156.869 283.166 156.883C283.596 156.897 283.969 156.926 284.284 156.969C284.614 156.998 284.836 157.026 284.95 157.055C284.95 156.539 284.907 156.13 284.821 155.829C284.735 155.528 284.592 155.299 284.391 155.141C284.191 154.984 283.933 154.883 283.617 154.84C283.316 154.797 282.951 154.776 282.521 154.776C282.034 154.776 281.539 154.79 281.037 154.819C280.55 154.833 280.084 154.869 279.64 154.926C279.21 154.969 278.83 155.034 278.5 155.12V154.625C278.5 154.267 278.586 154.009 278.758 153.851C278.93 153.679 279.153 153.565 279.425 153.507C279.74 153.436 280.199 153.386 280.801 153.357C281.417 153.328 282.069 153.314 282.757 153.314C283.646 153.314 284.391 153.357 284.993 153.443C285.595 153.529 286.076 153.701 286.434 153.959C286.807 154.217 287.072 154.597 287.229 155.098C287.387 155.586 287.466 156.245 287.466 157.076V161.419C287.294 161.663 286.792 161.842 285.961 161.957C285.144 162.057 283.997 162.108 282.521 162.108ZM282.499 160.989C282.987 160.989 283.388 160.982 283.703 160.968C284.033 160.939 284.298 160.896 284.499 160.839C284.7 160.782 284.85 160.71 284.95 160.624V157.958C284.807 157.915 284.578 157.879 284.262 157.85C283.961 157.807 283.653 157.779 283.338 157.764C283.023 157.736 282.757 157.721 282.542 157.721C282.112 157.721 281.761 157.757 281.489 157.829C281.217 157.886 281.016 158.03 280.887 158.259C280.772 158.488 280.715 158.847 280.715 159.334C280.715 159.721 280.758 160.043 280.844 160.301C280.93 160.545 281.102 160.724 281.36 160.839C281.618 160.939 281.998 160.989 282.499 160.989ZM298.26 162.086C297.587 162.086 297.056 162.014 296.669 161.871C296.297 161.713 296.031 161.462 295.874 161.118C295.716 160.76 295.637 160.273 295.637 159.656V154.797H294.756V153.421H295.637V152.153C295.637 151.852 295.659 151.63 295.702 151.486C295.745 151.343 295.831 151.25 295.96 151.207C296.103 151.164 296.311 151.143 296.583 151.143H298.26C298.26 151.185 298.253 151.257 298.239 151.357C298.239 151.443 298.239 151.558 298.239 151.701V153.421H300.303V154.797H298.26V159.42C298.26 159.979 298.31 160.387 298.411 160.645C298.525 160.889 298.812 161.011 299.271 161.011C299.414 161.011 299.579 160.997 299.765 160.968C299.966 160.939 300.102 160.911 300.174 160.882V161.892C300.088 161.907 299.873 161.943 299.529 162C299.185 162.057 298.762 162.086 298.26 162.086ZM304.274 153.421V159.076C304.274 159.664 304.425 160.079 304.726 160.323C305.041 160.552 305.528 160.667 306.188 160.667C306.89 160.667 307.384 160.545 307.671 160.301C307.972 160.043 308.123 159.642 308.123 159.097V153.421C308.137 153.421 308.209 153.421 308.338 153.421C308.481 153.421 308.639 153.421 308.811 153.421C308.997 153.407 309.162 153.4 309.305 153.4C309.463 153.4 309.563 153.4 309.606 153.4C309.878 153.4 310.093 153.421 310.251 153.464C310.423 153.493 310.545 153.572 310.617 153.701C310.688 153.816 310.724 154.023 310.724 154.324V158.753C310.724 159.57 310.602 160.23 310.359 160.731C310.115 161.219 309.663 161.577 309.004 161.806C308.345 162.021 307.384 162.129 306.123 162.129C304.976 162.129 304.073 162.036 303.414 161.849C302.769 161.663 302.31 161.341 302.038 160.882C301.78 160.423 301.651 159.778 301.651 158.947V154.324C301.651 153.966 301.708 153.722 301.823 153.593C301.952 153.464 302.217 153.4 302.619 153.4C302.891 153.4 303.163 153.407 303.436 153.421C303.708 153.421 303.987 153.421 304.274 153.421ZM322.791 162.108C321.845 162.108 321.079 162.072 320.491 162C319.903 161.943 319.452 161.821 319.136 161.634C318.821 161.434 318.606 161.161 318.491 160.817C318.377 160.473 318.319 160.036 318.319 159.506C318.319 158.775 318.398 158.216 318.556 157.829C318.714 157.442 318.979 157.184 319.351 157.055C319.738 156.912 320.254 156.84 320.899 156.84C321.258 156.84 321.659 156.847 322.103 156.861C322.562 156.861 323.006 156.869 323.436 156.883C323.866 156.897 324.239 156.926 324.554 156.969C324.884 156.998 325.106 157.026 325.221 157.055C325.221 156.539 325.178 156.13 325.092 155.829C325.006 155.528 324.863 155.299 324.662 155.141C324.461 154.984 324.203 154.883 323.888 154.84C323.587 154.797 323.221 154.776 322.791 154.776C322.304 154.776 321.81 154.79 321.308 154.819C320.821 154.833 320.355 154.869 319.91 154.926C319.48 154.969 319.101 155.034 318.771 155.12V154.625C318.771 154.267 318.857 154.009 319.029 153.851C319.201 153.679 319.423 153.565 319.695 153.507C320.011 153.436 320.469 153.386 321.071 153.357C321.688 153.328 322.34 153.314 323.028 153.314C323.917 153.314 324.662 153.357 325.264 153.443C325.866 153.529 326.346 153.701 326.704 153.959C327.077 154.217 327.342 154.597 327.5 155.098C327.658 155.586 327.736 156.245 327.736 157.076V161.419C327.564 161.663 327.063 161.842 326.231 161.957C325.414 162.057 324.268 162.108 322.791 162.108ZM322.77 160.989C323.257 160.989 323.659 160.982 323.974 160.968C324.304 160.939 324.569 160.896 324.769 160.839C324.97 160.782 325.121 160.71 325.221 160.624V157.958C325.078 157.915 324.848 157.879 324.533 157.85C324.232 157.807 323.924 157.779 323.608 157.764C323.293 157.736 323.028 157.721 322.813 157.721C322.383 157.721 322.032 157.757 321.759 157.829C321.487 157.886 321.286 158.03 321.157 158.259C321.043 158.488 320.985 158.847 320.985 159.334C320.985 159.721 321.028 160.043 321.114 160.301C321.2 160.545 321.372 160.724 321.63 160.839C321.888 160.939 322.268 160.989 322.77 160.989ZM332.136 153.421V159.076C332.136 159.664 332.286 160.079 332.587 160.323C332.903 160.552 333.39 160.667 334.049 160.667C334.752 160.667 335.246 160.545 335.533 160.301C335.834 160.043 335.984 159.642 335.984 159.097V153.421C335.999 153.421 336.07 153.421 336.199 153.421C336.343 153.421 336.5 153.421 336.672 153.421C336.859 153.407 337.024 153.4 337.167 153.4C337.325 153.4 337.425 153.4 337.468 153.4C337.74 153.4 337.955 153.421 338.113 153.464C338.285 153.493 338.407 153.572 338.478 153.701C338.55 153.816 338.586 154.023 338.586 154.324V158.753C338.586 159.57 338.464 160.23 338.22 160.731C337.977 161.219 337.525 161.577 336.866 161.806C336.207 162.021 335.246 162.129 333.985 162.129C332.838 162.129 331.935 162.036 331.276 161.849C330.631 161.663 330.172 161.341 329.9 160.882C329.642 160.423 329.513 159.778 329.513 158.947V154.324C329.513 153.966 329.57 153.722 329.685 153.593C329.814 153.464 330.079 153.4 330.48 153.4C330.753 153.4 331.025 153.407 331.297 153.421C331.57 153.421 331.849 153.421 332.136 153.421ZM343.549 162.086C342.875 162.086 342.345 162.014 341.958 161.871C341.585 161.713 341.32 161.462 341.162 161.118C341.005 160.76 340.926 160.273 340.926 159.656V154.797H340.044V153.421H340.926V152.153C340.926 151.852 340.947 151.63 340.99 151.486C341.033 151.343 341.119 151.25 341.248 151.207C341.392 151.164 341.6 151.143 341.872 151.143H343.549C343.549 151.185 343.542 151.257 343.527 151.357C343.527 151.443 343.527 151.558 343.527 151.701V153.421H345.591V154.797H343.549V159.42C343.549 159.979 343.599 160.387 343.699 160.645C343.814 160.889 344.101 161.011 344.559 161.011C344.703 161.011 344.868 160.997 345.054 160.968C345.255 160.939 345.391 160.911 345.462 160.882V161.892C345.376 161.907 345.161 161.943 344.817 162C344.473 162.057 344.051 162.086 343.549 162.086ZM351.458 162.129C350.698 162.129 350.024 162.079 349.437 161.978C348.849 161.864 348.347 161.656 347.932 161.355C347.53 161.04 347.222 160.588 347.007 160C346.792 159.413 346.685 158.653 346.685 157.721C346.685 156.79 346.792 156.03 347.007 155.442C347.222 154.855 347.53 154.41 347.932 154.109C348.347 153.794 348.849 153.586 349.437 153.486C350.024 153.371 350.698 153.314 351.458 153.314C352.232 153.314 352.905 153.371 353.479 153.486C354.066 153.586 354.561 153.794 354.962 154.109C355.363 154.41 355.664 154.855 355.865 155.442C356.08 156.03 356.188 156.79 356.188 157.721C356.188 158.667 356.08 159.434 355.865 160.022C355.664 160.595 355.363 161.04 354.962 161.355C354.561 161.656 354.066 161.864 353.479 161.978C352.891 162.079 352.217 162.129 351.458 162.129ZM351.458 160.817C351.916 160.817 352.296 160.739 352.597 160.581C352.912 160.423 353.149 160.122 353.307 159.678C353.464 159.234 353.543 158.581 353.543 157.721C353.543 156.861 353.464 156.209 353.307 155.765C353.149 155.321 352.912 155.02 352.597 154.862C352.296 154.704 351.916 154.625 351.458 154.625C351.013 154.625 350.633 154.704 350.318 154.862C350.003 155.02 349.759 155.321 349.587 155.765C349.415 156.209 349.329 156.861 349.329 157.721C349.329 158.581 349.415 159.234 349.587 159.678C349.759 160.122 350.003 160.423 350.318 160.581C350.633 160.739 351.013 160.817 351.458 160.817Z" fill="#007684"/>
<path d="M48.0483 103.056V100.848C48.0483 96.24 45.2643 94.128 38.9283 94.128C32.7843 94.128 29.5203 96.144 28.0803 100.848L9.74432 97.872C11.6643 92.208 13.7763 89.136 17.8083 86.256C22.9923 82.608 30.0963 80.784 39.4083 80.784C46.5123 80.784 53.4243 82.128 57.1683 84.144C63.3123 87.504 66.0003 92.784 66.0003 101.424V127.344C66.0003 133.2 66.1923 136.656 66.6723 140.976H48.0483V136.56C42.6723 140.688 37.2963 142.32 29.4243 142.32C22.1283 142.32 16.6563 140.592 12.8163 137.04C9.36032 133.872 7.53632 129.264 7.53632 123.984C7.53632 117.936 9.93632 113.136 14.5443 109.968C19.4403 106.512 25.8723 104.496 34.5123 103.728C38.2563 103.344 41.1363 103.248 48.0483 103.056ZM48.0483 118.032V115.344C39.5043 115.536 35.3763 116.016 31.4403 117.264C27.9843 118.416 25.8723 120.816 25.8723 123.6C25.8723 127.056 28.7523 129.072 33.7443 129.072C37.6803 129.072 42.0003 127.632 44.5923 125.424C46.8003 123.504 48.0483 120.912 48.0483 118.032Z" fill="#472B53"/>
<path d="M124.673 82.416L120.065 99.696C115.649 98.352 113.249 97.872 110.273 97.872C105.377 97.872 101.633 99.6 98.8488 103.056C97.0248 105.36 96.3528 107.376 95.9688 111.6V126.576C95.9688 132.72 96.1608 136.368 96.7368 140.976H76.8648C77.4408 136.176 77.6328 132.72 77.6328 126.48V96.912C77.6328 89.904 77.4408 86.544 76.8648 82.416H95.9688V90C100.673 83.856 106.433 81.264 115.169 81.264C118.241 81.264 120.161 81.456 124.673 82.416Z" fill="#472B53"/>
<path d="M185.116 78.672H196.444C195.868 80.592 194.14 86.448 193.66 88.56L187.9 109.872C187.612 110.928 187.516 111.888 187.516 112.752C187.516 114.288 188.38 115.152 190.012 115.152C191.836 115.152 194.14 114.192 196.06 112.656C200.764 109.008 203.836 101.904 203.836 94.512C203.836 85.68 199.708 78 192.796 73.68C188.476 71.088 182.428 69.648 175.612 69.648C155.356 69.648 141.148 83.088 141.148 102.096C141.148 120.528 153.916 132.624 173.212 132.624C178.204 132.624 183.484 131.856 187.9 130.512C191.644 129.36 194.044 128.208 198.652 125.424L204.508 133.872C199.324 136.944 197.02 138.096 192.508 139.44C185.98 141.456 179.068 142.512 172.156 142.512C158.62 142.512 148.06 138.672 140.476 131.088C133.276 123.984 129.34 113.808 129.34 102.672C129.34 90.768 133.372 80.496 141.052 72.72C149.884 63.888 161.5 59.568 176.38 59.568C198.748 59.568 214.684 73.968 214.684 94.032C214.684 103.056 211.42 111.312 205.564 117.168C200.572 122.16 194.044 125.04 187.612 125.04C183.868 125.04 180.796 123.6 179.356 121.296C178.876 120.528 178.78 120.048 178.492 118.32C174.844 122.544 171.004 124.368 165.628 124.368C156.124 124.368 150.076 117.264 150.076 106.32C150.076 90.096 160.732 76.656 173.5 76.656C178.876 76.656 181.564 78 184.156 82.032L185.116 78.672ZM167.26 114.864C170.812 114.864 174.172 112.08 176.668 107.184C178.972 102.672 180.508 96.816 180.508 92.4C180.508 88.464 178.3 85.776 174.94 85.776C171.292 85.776 167.932 88.176 165.532 92.688C163.228 97.008 161.692 102.672 161.692 107.088C161.692 112.176 163.612 114.864 167.26 114.864Z" fill="#472B53"/>
<path d="M242.587 140.976H223.771C224.347 136.368 224.539 132.336 224.539 125.904V76.176C224.539 69.168 224.347 65.712 223.771 61.104H243.259C242.779 65.712 242.587 69.168 242.587 76.176V84.24C242.587 85.68 242.587 86.544 242.491 87.888C248.155 82.896 254.299 80.688 262.267 80.688C279.739 80.688 289.915 91.824 289.915 110.832C289.915 121.104 286.939 129.36 281.371 135.216C276.379 140.208 269.851 142.704 261.403 142.704C253.435 142.704 248.731 141.072 242.491 135.888C242.491 136.176 242.587 137.424 242.587 137.904V140.976ZM271.291 111.024C271.291 101.232 266.203 95.28 257.755 95.28C249.019 95.28 242.779 102 242.779 111.312C242.779 120.816 249.115 128.016 257.371 128.016C265.723 128.016 271.291 121.2 271.291 111.024Z" fill="#472B53"/>
<path d="M336.048 103.056V100.848C336.048 96.24 333.264 94.128 326.928 94.128C320.784 94.128 317.52 96.144 316.08 100.848L297.744 97.872C299.664 92.208 301.776 89.136 305.808 86.256C310.992 82.608 318.096 80.784 327.408 80.784C334.512 80.784 341.424 82.128 345.168 84.144C351.312 87.504 354 92.784 354 101.424V127.344C354 133.2 354.192 136.656 354.672 140.976H336.048V136.56C330.672 140.688 325.296 142.32 317.424 142.32C310.128 142.32 304.656 140.592 300.816 137.04C297.36 133.872 295.536 129.264 295.536 123.984C295.536 117.936 297.936 113.136 302.544 109.968C307.44 106.512 313.872 104.496 322.512 103.728C326.256 103.344 329.136 103.248 336.048 103.056ZM336.048 118.032V115.344C327.504 115.536 323.376 116.016 319.44 117.264C315.984 118.416 313.872 120.816 313.872 123.6C313.872 127.056 316.752 129.072 321.744 129.072C325.68 129.072 330 127.632 332.592 125.424C334.8 123.504 336.048 120.912 336.048 118.032Z" fill="#472B53"/>
<path d="M69.739 35.3858C69.6772 34.5232 69.8198 33.6568 70.1487 32.8958C70.4777 32.1347 70.9784 31.5129 71.5878 31.1086C95.7256 15.5255 122.476 7.41613 149.611 7.45573V32.791H150.223C151.576 32.7872 152.873 32.1101 153.829 30.9077C154.786 29.7053 155.324 28.0756 155.327 26.3752V7.52702C203.214 8.95275 239.033 32.4488 239.033 32.4488C144.824 -40.3776 44.582 32.1352 44.582 32.1352H9.26233C8.23489 32.1357 7.22229 32.4434 6.30816 33.033C5.39404 33.6226 4.60463 34.4772 4.00514 35.526C3.40565 36.5749 3.01328 37.788 2.86045 39.0651C2.70762 40.3423 2.79871 41.6468 3.12619 42.8709L4.578 48.2602C5.26226 50.7508 5.36749 53.435 4.88134 55.998C4.39519 58.5611 3.33782 60.8969 1.83318 62.7314C-8.53569 108.5 28.4643 101 28.4643 101C28.4643 101 -3.03575 92 7.81052 70.7583C18.8919 66.9801 34.011 56.501 19.6518 47.6472L155.668 45.1093L72.9942 39.4064C72.1574 39.3411 71.3675 38.8985 70.7695 38.1599C70.1716 37.4213 69.8056 36.4363 69.739 35.3858Z" fill="#472B53"/>
<path d="M353.26 82.5491C352.387 61.6051 324.905 42.2579 269.679 42.2579H183.876L206.14 47.5901C219.479 50.7838 254.674 52.3948 268.262 52.3948H277.075C300.44 52.3948 316.863 56.4582 328.319 61.6478C333.964 64.2054 337.964 68.5 337.964 68.5C342.964 73.5 340.464 82.5491 340.464 82.5491C346.495 85.0491 352.24 95.8949 353.964 100.5C353.949 99.9685 353.38 83.059 353.26 82.5491Z" fill="#472B53"/>
</svg>
