<svg width="176" height="176" viewBox="0 0 176 176" fill="none" xmlns="http://www.w3.org/2000/svg">
<path fill-rule="evenodd" clip-rule="evenodd" d="M85.4172 150.068C69.2976 142.57 55.2972 130.282 45.9929 115.473C36.7111 100.706 31.8331 83.6033 30.6397 61.6453C30.2596 54.64 30.2596 45.9017 30.6377 34.936L30.8093 29.9313L35.7486 29.1037C53.129 26.2039 70.7097 24.7325 88.0002 24.7325C105.291 24.7325 122.869 26.2039 140.248 29.1037L145.187 29.9313L145.361 34.936C145.741 45.9038 145.741 54.642 145.359 61.6453C144.163 83.6033 139.287 100.706 130.006 115.473C120.703 130.282 106.699 142.57 90.5813 150.068L88.0002 151.267L85.4172 150.068Z" fill="#A4A4A5"/>
<path fill-rule="evenodd" clip-rule="evenodd" d="M88 28.3406C105.431 28.3406 123.523 29.8235 141.887 32.9817C142.161 40.3173 142.472 51.6562 141.949 61.278C140.779 82.7306 136.041 99.3814 127.033 113.68C118.053 127.937 104.148 140.195 88 147.476C71.8515 140.195 57.9455 127.937 48.9658 113.68C39.9591 99.3814 35.2197 82.7306 34.0505 61.278C33.5255 51.6562 33.8378 40.3173 34.112 32.9817C52.4758 29.8235 70.5692 28.3406 88 28.3406ZM88 30.4073C70.8164 30.4073 53.3709 31.8631 36.1221 34.7368C35.7434 45.6194 35.7434 54.2785 36.1196 61.1664C37.2679 82.2535 41.9077 98.5916 50.7202 112.581C59.5315 126.569 72.7441 138.124 88 145.203C103.255 138.124 116.468 126.569 125.28 112.581C134.092 98.5916 138.731 82.2535 139.88 61.1664C140.257 54.2785 140.257 45.6194 139.878 34.7368C122.629 31.8631 105.182 30.4073 88 30.4073ZM87.8498 93.0516C87.8498 93.0516 88.1891 95.0594 88.2923 95.642C88.3501 95.9719 88.3624 96.0602 88.2788 96.384C88.0077 97.4252 86.7549 102.913 85.7521 108.531L85.596 109.418C85.1863 111.785 84.8324 114.133 84.6262 116.143C84.5094 117.285 84.5475 117.558 84.85 118.571C85.7069 121.434 88.8763 128.913 89.4849 130.277C89.5525 130.428 89.5931 130.586 89.6127 130.749L89.8414 132.513C88.8259 130.983 83.3083 120.868 81.1408 115.267C80.8851 114.607 80.8359 114.282 81.1187 113.069C82.6259 106.634 86.7039 95.6984 87.8498 93.0516ZM79.8032 77.5059C79.8032 77.5059 80.2272 78.8756 80.636 80.3632L80.779 80.891C81.0373 81.8603 81.2676 82.8171 81.351 83.4225C81.4309 84.005 81.4174 84.162 81.2096 84.7201C80.7058 86.0568 79.7787 88.207 78.7896 90.4051L78.3631 91.3479C77.1496 94.0147 75.921 96.591 75.3244 97.7062C75.0306 98.2556 74.7539 98.6138 74.2007 99.1743C72.9381 100.456 70.521 102.878 69.0248 104.234C68.4814 104.727 68.3351 105.147 68.2245 105.785C68.0462 106.809 67.8692 108.557 67.82 109.46C67.777 110.253 67.9061 110.625 68.3499 111.411C70.987 116.102 79.7909 126.895 82.2989 129.162C82.4809 129.326 82.6136 129.437 82.9972 129.691C83.3661 129.936 84.5684 130.713 84.5684 130.713C84.6164 130.747 84.6569 130.791 84.6877 130.841L85.1229 131.605C85.1229 131.605 85.0822 131.585 85.0089 131.549L84.8209 131.456C84.6697 131.381 84.4699 131.281 84.2402 131.167L83.6814 130.888C82.8246 130.459 81.8032 129.943 81.2662 129.655C81.0449 129.536 80.8371 129.396 80.6441 129.236C77.707 126.802 68.7064 116.297 66.0595 111.911C65.3993 110.816 65.3317 110.462 65.4202 109.425C65.5862 107.496 65.8431 105.07 66.0681 104.007C66.2045 103.365 66.3459 102.989 66.8389 102.422C68.4956 100.52 70.5164 98.009 72.4855 95.4326L73.1776 94.5214C76.1618 90.5689 78.9108 86.6128 79.9372 84.5974C80.172 84.1387 80.1917 83.9793 80.1966 83.5463C80.2101 82.2904 79.8081 79.8448 79.7024 79.2266C79.6864 79.1297 79.6815 79.0316 79.69 78.9335L79.8032 77.5059ZM104.368 75.1487L105.129 75.4786C105.354 75.5755 105.559 75.7178 105.728 75.8944C110.394 80.7513 114.125 85.7872 114.873 87.1143C115.017 87.3694 115.115 87.6245 115.151 87.9164C115.989 94.9994 115.269 102.503 113.556 109.03C113.401 109.619 113.228 109.921 112.66 110.346C110.832 111.718 108.102 113.905 105.388 116.136L104.532 116.84C101.263 119.54 98.1566 122.184 96.8385 123.4C96.5078 123.707 96.2189 124.053 95.9829 124.436C95.3647 125.438 94.421 127.163 93.9576 128.019L93.8282 128.258C93.7352 128.431 93.6814 128.532 93.6814 128.532C93.0667 127.194 91.7266 123.929 91.2668 122.609C91.1168 122.178 91.0898 121.953 91.2484 121.376C91.9983 118.64 95.5427 110.685 96.2324 109.246L96.2337 109.835C96.2337 109.921 96.2201 110.006 96.1931 110.086C95.8821 111.027 93.9764 117.297 93.5892 120.016C93.5031 120.621 93.5105 120.784 93.5892 121.378C93.7588 122.647 94.5199 124.975 94.5199 124.975C94.5199 124.975 94.9711 124.035 95.3915 123.4C95.5981 123.089 95.7222 122.939 96.0591 122.605C97.7631 120.924 100.67 118.326 103.698 115.713L104.77 114.792C107.096 112.8 109.418 110.863 111.252 109.382C111.729 108.997 111.908 108.74 112.013 108.009C112.539 104.408 112.692 97.9442 112.375 93.2406C112.315 92.3527 112.026 91.4941 111.524 90.757C110.373 89.0608 108.998 87.4553 106.911 85.3935C106.614 85.098 106.411 84.7202 106.335 84.3081C105.726 81.0702 104.368 75.1487 104.368 75.1487ZM64.9127 82.6401C65.2028 82.5469 65.5114 82.5358 65.8065 82.607C67.1367 82.9258 69.9521 83.6139 72.0802 84.1572C72.379 84.2333 72.7515 84.5117 72.9101 84.7754L73.3736 85.5444C73.5358 85.8142 73.5469 86.1454 73.4031 86.425C73.0162 87.1731 72.4645 88.186 71.8812 89.2304L71.4399 90.016C70.6276 91.4537 69.8187 92.8407 69.3595 93.5706C69.0571 94.0526 68.8886 94.266 68.3501 94.4561C66.2564 95.1908 63.6562 96.0689 62.1108 96.5681C61.7949 96.6699 61.6879 96.8612 61.7494 97.2108C61.86 97.8473 62.2166 100.008 62.353 100.639C62.4034 100.872 62.5903 101.057 62.937 100.991C63.8505 100.818 66.2822 100.224 66.2822 100.224C66.2822 100.224 65.5655 100.885 65.1364 101.275C65.0577 101.349 64.9668 101.403 64.8647 101.436C64.2021 101.657 62.5842 102.109 62.0801 102.22C61.6867 102.304 61.4359 102.15 61.3351 101.706C61.3351 101.706 60.6454 98.777 60.3958 97.7811C60.3564 97.629 60.3171 97.4978 60.2691 97.3482C60.0823 96.7717 59.6335 95.6384 59.3803 95.0448C59.3508 94.9761 59.336 94.9025 59.3372 94.8265C59.3446 94.1482 59.47 92.6348 59.47 92.6348C59.47 92.6348 60.9589 94.0268 61.6793 94.5297C61.8416 94.6437 61.9387 94.667 62.1379 94.6168C63.1276 94.3629 65.4032 93.6123 66.6523 93.1462C66.9375 93.0395 67.1871 92.8604 67.3813 92.6262C68.6735 91.0697 70.2938 88.6487 71.2294 86.8224C71.3585 86.571 71.3831 86.2828 71.302 86.0129L71.1003 85.3506C71.0413 85.1568 70.836 84.9385 70.6467 84.8662C68.4448 84.0309 66.7089 83.4103 64.6692 82.7173L64.9127 82.6401ZM108.46 63.7893C108.944 63.6114 109.475 63.6237 109.951 63.8236C113.642 65.369 119.848 69.0043 123.298 71.5652C123.631 71.813 123.763 71.9835 123.851 72.3833C124.661 76.0579 124.968 81.7377 124.458 86.5198C124.421 86.8632 124.352 87.0693 124.173 87.436C121.987 91.8943 119.527 96.0901 116.938 99.3268L116.943 99.2739C116.977 98.9292 117.162 96.9858 117.173 95.9344C117.174 95.8154 117.229 95.7062 117.324 95.6339C117.804 95.261 118.465 94.7312 118.838 94.4086C119.02 94.2516 119.121 94.1339 119.216 93.9818C120.271 92.2819 122.157 88.7226 122.916 86.5812C123.102 86.0587 123.176 85.5055 123.13 84.9524C122.887 81.9683 122.417 77.8338 121.718 75.1355C121.598 74.6756 121.294 74.2868 120.869 74.0697C120.266 73.7606 119.082 73.2222 116.386 72.1441C116.012 71.9945 115.663 71.7872 115.355 71.5297C113.588 70.0481 110.824 67.8269 109.104 66.5489C108.601 66.1748 107.959 66.0387 107.347 66.1773C106.094 66.4606 104.5 66.8555 103.602 67.0984C103.297 67.1805 103.177 67.1879 102.862 67.1511C102.698 67.1321 102.486 67.1114 102.264 67.0912L101.927 67.0616C101.535 67.0283 101.167 67 101.023 66.9891L100.959 66.9843C103.884 65.6143 106.698 64.432 108.46 63.7893ZM69.4376 87.909C68.5229 89.4102 67.4299 91.0046 66.6037 92.0005C66.4955 92.1305 66.3517 92.2311 66.1882 92.2924C65.2846 92.6297 63.7785 93.1375 62.6696 93.4748L69.4376 87.909ZM57.3487 85.938L56.8089 89.653L54.9734 87.5042C55.3078 86.7818 56.2852 86.0999 57.3487 85.938ZM67.2355 64.9051L66.7339 65.5208C66.7057 65.5478 66.6786 65.5736 66.6503 65.6018C66.209 65.9268 64.3513 67.3459 63.8485 67.7432C63.7059 67.8561 63.6493 67.9542 63.6161 68.132C63.503 68.76 63.3149 69.9534 63.2596 70.6145C63.2436 70.8082 63.16 70.9039 62.9621 70.9836C62.1002 71.3332 61.0786 71.7011 60.2524 72.0311C60.0754 72.101 60.0262 72.1279 59.9217 72.2077C59.8393 72.2715 58.7415 73.249 58.7415 73.249C58.7415 73.249 61.1278 72.6627 62.0031 72.4652C62.2121 72.4186 62.3019 72.4309 62.4949 72.5217C62.6756 72.6051 62.9768 72.724 63.1354 72.7817C63.3788 72.8712 63.5079 72.8675 63.7772 72.8087C64.7632 72.5891 66.4217 72.1966 67.3044 71.9673C67.763 71.8483 68.0138 71.7244 68.4023 71.4534C68.8252 71.1603 69.896 70.3594 69.896 70.3594C69.896 70.3594 69.8763 70.5004 69.8616 70.5789C69.8505 70.6464 69.8259 70.6844 69.7817 70.7371C69.5641 70.9984 69.1829 71.424 68.9936 71.619C68.5596 72.0666 68.3002 72.2261 67.7556 72.453C65.2476 73.4955 60.9618 75.1145 57.7469 76.2244C57.5366 76.298 57.4457 76.3581 57.2895 76.5176C57.1199 76.6893 56.8936 76.9395 56.8936 76.9395C56.8936 76.9395 59.5148 77.1296 60.3151 77.2216C60.5745 77.251 60.7602 77.3356 60.9581 77.5061C61.6159 78.0703 63.7932 80.3062 64.4448 81.0826C64.4448 81.0826 58.2546 82.1091 55.3864 82.8193C55.0323 82.9064 54.8553 83.1308 54.7754 83.4141C54.5381 84.2457 53.9787 86.9194 53.9787 86.9194C53.9787 86.9194 53.7795 86.8557 53.5017 86.6962C53.3111 86.587 53.214 86.4963 53.005 86.2755C52.3263 85.5605 51.2113 84.1917 50.6752 83.3982C50.5179 83.1639 50.4515 82.8659 50.6482 82.6267C51.2297 81.9129 52.3977 80.6104 53.0419 79.9407C53.1107 79.8683 53.198 79.742 53.2902 79.5605C53.507 79.131 53.7927 78.0432 53.8923 77.6504L53.9241 77.5234L53.9282 77.5061C53.9282 77.5061 53.9221 77.5099 53.911 77.5169L53.7933 77.5907C53.6339 77.6907 53.3762 77.8524 53.2656 77.9219C53.0996 78.0274 53.0541 78.0727 52.9853 78.2175C52.8808 78.4358 52.6976 78.7804 52.5587 79.0196C52.5132 79.0981 52.3915 79.2195 52.3263 79.2698C51.5038 79.8965 50.5953 80.5699 49.9486 81.0237C49.9043 81.0543 49.8478 81.0408 49.8097 81.004C49.7273 80.9219 49.3818 80.5306 49.3204 80.4386C49.2687 80.3614 49.2453 80.289 49.2453 80.1958C49.2441 80.0327 49.2601 79.7457 49.2761 79.5323C49.2958 79.2796 49.3683 79.1594 49.6769 78.8405C50.0224 78.4836 50.3986 78.1083 50.7944 77.7232C51.7645 76.9088 54.2135 74.9268 58.5865 71.8139C58.6689 71.7551 58.7439 71.6864 58.8041 71.6042C59.2639 70.9861 60.5683 69.2984 60.8905 68.8974C60.9359 68.8409 60.9864 68.7882 61.0441 68.7428C61.5593 68.3368 61.8138 68.1615 62.3363 67.8328C63.5546 67.0674 65.9139 65.6717 67.2355 64.9051ZM93.8897 63.5247C94.0728 63.4928 94.2609 63.5186 94.4294 63.5983L95.7067 64.2079C95.8321 64.268 95.9243 64.382 95.9575 64.5194C96.1309 65.248 96.3436 66.2132 96.4862 67.0337C96.544 67.3747 96.48 67.723 96.3067 68.0235C95.778 68.9397 94.6925 70.5881 94.0851 71.4736C93.9499 71.6723 93.9339 71.9127 93.9757 72.1494C94.2511 73.6678 95.3994 78.9699 95.3994 78.9699L94.6765 78.3138C94.5326 78.1813 94.438 78.0415 94.3765 77.8587C93.8626 76.3587 92.9012 73.225 92.4586 71.7005C92.3873 71.4491 92.4414 71.1805 92.6074 70.9806C93.361 70.0681 94.4589 68.6085 95.1006 67.6838C95.2801 67.4237 95.3391 67.1367 95.2334 66.9221C95.0859 66.6204 94.8375 66.1617 94.599 65.7459C94.5351 65.6306 94.4281 65.5448 94.3015 65.5031L93.4348 65.2259C93.2836 65.178 93.1213 65.1805 92.9713 65.2345C91.0829 65.9176 88.5429 66.9025 86.9889 67.5452C86.7615 67.6396 86.668 67.647 86.3926 67.6053C85.9427 67.539 84.6321 67.3048 83.9891 67.1846C83.8736 67.1625 83.8158 67.0325 83.8748 66.9307L84.637 65.6135C84.7403 65.4356 84.9112 65.3093 85.1128 65.2639C87.5643 64.7071 90.8063 64.0668 93.8897 63.5247ZM66.7622 69.574C66.879 69.5642 66.9897 69.6292 67.0351 69.7359C67.1888 70.0928 67.147 70.4914 66.9983 70.8324C66.9405 70.971 66.7622 71.1059 66.6159 71.1378L65.3926 71.4089C65.3189 71.4248 65.2513 71.3659 65.2562 71.2911L65.3705 69.8586C65.3791 69.7617 65.4553 69.6844 65.5525 69.677L66.7622 69.574ZM80.6812 60.3693C80.8226 60.3681 80.9111 60.5202 80.8411 60.6416L77.8585 65.7647C77.6925 66.0664 77.4147 66.2908 77.0852 66.3902L71.4925 68.1355C70.8434 68.3317 70.2951 68.4372 69.6189 68.4887C68.3784 68.5819 64.6938 68.6972 64.6938 68.6972L64.775 68.523C64.8131 68.4409 64.8807 68.3759 64.9643 68.3403L66.7076 67.602C66.8379 67.5468 66.9523 67.4621 67.0396 67.353L69.732 64.0464C69.8758 63.8697 70.0639 63.7005 70.2643 63.595C72.0433 62.6616 75.2066 61.2598 77.422 60.5214C77.631 60.4515 77.9126 60.4074 78.1326 60.4049L80.6812 60.3693ZM77.6913 54.4201C83.863 53.8792 92.2144 53.7321 100.192 54.3343C100.646 54.3686 101.087 54.4753 101.506 54.6519C104.12 55.7484 108.758 58.1474 113.914 61.0898C114.141 61.2198 114.355 61.3719 114.552 61.5448C115.918 62.7455 119.379 66.2778 119.379 66.2778L118.299 66.0644C118.148 66.035 118.006 65.9761 117.879 65.8903C115.695 64.4271 112.507 62.5223 109.836 61.1793C109.519 61.0211 109.176 60.9193 108.823 60.8825C107.523 60.7439 105.766 60.6225 104.617 60.5759C104.05 60.5526 103.664 60.4581 103.11 60.1773C102.05 59.6413 99.4828 58.4798 98.2042 57.9929C97.6571 57.7844 97.378 57.7353 96.842 57.7439C94.645 57.7758 89.64 57.9352 87.0841 58.0935C86.9955 58.0984 86.9107 58.0947 86.8247 58.0812L85.6063 57.8911C89.061 57.2975 97.6005 56.5383 101.135 56.3531L99.6967 55.8735C99.4189 55.7815 99.1299 55.7325 98.8361 55.7251C98.0688 55.7069 96.3625 55.6728 94.1475 55.6699L93.391 55.6701C90.036 55.6766 85.7196 55.7587 81.7385 56.0575C81.3906 56.0832 81.0513 56.1666 80.7316 56.3077C79.1236 57.0123 75.2022 59.1333 71.2695 61.3119L70.3963 61.7964C69.3796 62.3615 68.3735 62.9237 67.4182 63.4593C67.4182 63.4593 67.9088 62.8301 68.0034 62.7075C68.087 62.6008 68.1129 62.5812 68.226 62.5076C68.384 62.4042 68.9235 62.0497 69.4675 61.6899L69.8704 61.423C70.197 61.2061 70.4885 61.0113 70.6528 60.8984C70.734 60.8432 70.7856 60.804 70.8877 60.7279C72.0716 59.8375 73.9403 58.2676 75.0542 57.295C75.3062 57.0755 75.5201 56.8203 75.6959 56.5358C76.0562 55.9544 76.4496 55.324 76.6918 54.9745C76.8983 54.6715 77.2511 54.4594 77.6913 54.4201ZM51.4093 40.2739C52.9338 40.1169 53.7858 40.7081 53.7858 42.2473V43.0985C53.7858 44.6733 52.9338 45.3099 51.4093 45.4681C49.3009 45.6876 47.1924 45.9256 45.0876 46.1831V48.5098C44.6463 48.5638 44.2037 48.6177 43.7623 48.6741V41.1545C46.3084 40.8332 48.857 40.54 51.4093 40.2739ZM122.164 40.0301C125.526 40.3563 128.884 40.7316 132.237 41.1535V42.3665C130.787 42.1838 129.335 42.0096 127.882 41.8453V48.1531C127.441 48.1028 127 48.0538 126.556 48.0047V41.6969C125.094 41.5362 123.629 41.3853 122.164 41.2431V40.0301ZM66.3264 39.0418V40.2535C63.5614 40.424 60.7977 40.6264 58.0364 40.8607V42.7127C60.4928 42.5029 62.9504 42.3202 65.4092 42.1632V43.3762C62.9504 43.5332 60.4928 43.7159 58.0364 43.9244V45.9567C60.7977 45.7212 63.5614 45.5189 66.3264 45.3496V46.5614C63.1287 46.7576 59.9334 46.998 56.7394 47.2813V39.7605C59.9334 39.4772 63.1287 39.238 66.3264 39.0418ZM109.33 41.1017C109.33 39.4152 110.169 39.0681 112.059 39.1957C113.718 39.3098 115.376 39.4336 117.034 39.571C118.675 39.7059 119.758 40.1658 119.758 41.8866V45.2447C119.758 46.9336 118.823 47.2378 117.034 47.0906C115.376 46.9545 113.718 46.8294 112.059 46.7165C110.251 46.5951 109.33 46.2468 109.33 44.4598V41.1017ZM96.4718 38.4787C99.6732 38.5547 102.873 38.6749 106.074 38.8393V40.051C103.307 39.91 100.54 39.8008 97.7713 39.7248V41.5756C100.234 41.6443 102.695 41.7375 105.155 41.8564V43.0694C102.695 42.9505 100.234 42.856 97.7713 42.7886V44.8196C100.54 44.8957 103.307 45.0048 106.074 45.1471V46.3589C102.873 46.1958 99.6732 46.0756 96.4718 45.9983V38.4787ZM79.8133 38.4721V43.9115C79.8133 45.6323 78.9072 46.0101 77.0815 46.0665C75.4919 46.1155 73.9022 46.1744 72.3126 46.2456C70.6184 46.3216 69.5832 46.0003 69.5832 44.2967V38.8572L70.8815 38.7909V44.4598C70.8815 44.8044 71.1778 45.0853 71.5712 45.0669C73.6551 44.97 75.7377 44.8915 77.8216 44.8314C78.2175 44.8204 78.4806 44.5187 78.4806 44.174V38.5052C78.9244 38.4929 79.3682 38.4819 79.8133 38.4721ZM111.32 40.3596C110.925 40.3326 110.629 40.6086 110.629 41.0023V44.721C110.629 45.0657 110.925 45.4275 111.32 45.4545C113.472 45.5967 115.623 45.7586 117.773 45.9402C118.117 45.9696 118.461 45.6544 118.461 45.311V41.591C118.461 41.1985 118.117 40.8735 117.773 40.8441C115.623 40.6626 113.472 40.5007 111.32 40.3596ZM85.5543 38.3857C87.9406 38.3685 90.3269 38.3771 92.712 38.409V39.6208C90.1622 39.5877 87.6111 39.5803 85.0601 39.6012C84.7146 39.6048 84.3691 39.9029 84.3691 40.2475V44.0153C84.3691 44.3599 84.7146 44.7009 85.0601 44.6972C87.348 44.6776 89.6347 44.6813 91.9227 44.7071V42.6748C90.5949 42.66 89.2672 42.6527 87.9406 42.6539V41.4409C89.7011 41.4409 91.4617 41.4544 93.2222 41.4802V45.936C90.7486 45.8992 88.275 45.8894 85.8014 45.9041C83.9905 45.9164 83.0696 45.6049 83.0696 43.851V40.5738C83.0696 38.9364 83.8921 38.398 85.5543 38.3857ZM51.8027 41.4464C49.5627 41.677 47.3239 41.9284 45.0876 42.2019V44.9701C47.3239 44.6978 49.5627 44.4451 51.8027 44.2158C52.1457 44.179 52.49 43.8662 52.49 43.5388V42.0155C52.49 41.6708 52.1457 41.4108 51.8027 41.4464Z" fill="white"/>
</svg>
