<svg width="50" height="37" viewBox="0 0 50 37" fill="none" xmlns="http://www.w3.org/2000/svg">
<g clip-path="url(#clip0_4_705)">
<path d="M25.0115 20.9878C24.2248 20.9878 23.4558 21.2206 22.8018 21.6568C22.1477 22.0929 21.6379 22.7128 21.3369 23.4381C21.0358 24.1634 20.9571 24.9614 21.1105 25.7314C21.264 26.5013 21.6428 27.2086 22.1991 27.7637C22.7553 28.3188 23.464 28.6968 24.2355 28.8499C25.0071 29.0031 25.8068 28.9245 26.5335 28.6241C27.2603 28.3237 27.8815 27.8149 28.3185 27.1622C28.7556 26.5095 28.9888 25.7421 28.9888 24.957C28.9898 24.4355 28.8876 23.9189 28.6881 23.4369C28.4886 22.9549 28.1957 22.5169 27.8261 22.1481C27.4566 21.7794 27.0177 21.487 26.5347 21.2879C26.0517 21.0888 25.5341 20.9868 25.0115 20.9878ZM0 25.7722C0.131672 29.6011 1.14283 33.3485 2.95548 36.7257L6.03947 34.9395C4.546 32.1028 3.69529 28.9733 3.5475 25.7722H0ZM46.4464 25.7722C46.3057 28.9744 45.4601 32.1064 43.9697 34.9456L47.0552 36.7257C48.8662 33.3488 49.8718 29.6004 49.9939 25.7722H46.4464ZM14.9105 5.89271C16.4647 5.33398 17.9211 4.70196 19.4386 4.29741C20.9561 3.89286 22.5715 3.70203 24.1609 3.41503V0C20.3299 0.123506 16.5798 1.1315 13.2048 2.94483L14.9105 5.89271ZM38.1979 3.75546C37.586 4.8134 37.0093 5.80875 36.4173 6.83463C39.1317 8.56086 41.4365 10.8567 43.1712 13.5624L46.2399 11.7854C44.2063 8.53104 41.4559 5.78219 38.1979 3.74783V3.75546ZM11.8082 3.75546C8.55047 5.78681 5.79964 8.53251 3.76472 11.7839L6.73092 13.4907C7.79104 12.2388 8.73642 10.9611 9.85008 9.85121C10.9637 8.74137 12.2671 7.77503 13.5215 6.71556C12.9876 5.78891 12.4185 4.80424 11.8082 3.74783V3.75546ZM35.0314 6.01179L36.8074 2.94025C33.4285 1.12779 29.6735 0.124335 25.8391 0.00915966V3.54479C29.048 3.68056 32.1871 4.52302 35.0314 6.01179ZM50 24.1204C49.8756 20.293 48.8657 16.5462 47.0491 13.1731L43.9682 14.9486C45.5102 17.8613 46.2812 20.9146 46.4617 24.1204H50ZM6.03794 14.9409L2.95854 13.1685C1.14359 16.5372 0.131194 20.2781 0 24.1006H3.55362C3.69632 20.9022 4.5446 17.7746 6.03794 14.9409ZM33.7831 16.2691L33.7035 16.1851L28.1964 20.0505L29.9205 21.7542L33.7831 16.2691Z" fill="white"/>
<path d="M25.0115 20.9878C25.7988 20.9894 26.5679 21.224 27.2215 21.6621C27.875 22.1002 28.3836 22.722 28.6828 23.4487C28.9819 24.1754 29.0583 24.9744 28.9021 25.7445C28.7459 26.5146 28.3642 27.221 27.8053 27.7744C27.2465 28.3279 26.5356 28.7033 25.7628 28.8532C24.99 29.0032 24.1899 28.9209 23.464 28.6167C22.7381 28.3126 22.119 27.8003 21.6851 27.1447C21.2511 26.4891 21.0219 25.7198 21.0265 24.9341C21.0325 23.8841 21.4553 22.8792 22.2022 22.1396C22.9491 21.3999 23.9593 20.9858 25.0115 20.9878Z" fill="#6B315A"/>
<path d="M0 25.7722H3.5475C3.69529 28.9733 4.546 32.1028 6.03947 34.9395L2.95548 36.7257C1.14283 33.3486 0.131672 29.6011 0 25.7722Z" fill="#6B315A"/>
<path d="M46.4464 25.7676H49.9939C49.8718 29.5958 48.8662 33.3442 47.0552 36.7211L43.9697 34.941C45.4601 32.1018 46.3056 28.9698 46.4464 25.7676Z" fill="#6B315A"/>
<path d="M14.9105 5.89271L13.2048 2.94483C16.5798 1.1315 20.3299 0.123506 24.1609 0V3.41503C22.5715 3.70203 20.976 3.88675 19.4386 4.29741C17.9012 4.70807 16.4647 5.33398 14.9105 5.89271Z" fill="#6B315A"/>
<path d="M38.198 3.74783C41.4551 5.78001 44.2054 8.52619 46.2399 11.7778L43.1712 13.5548C41.4365 10.8491 39.1317 8.55324 36.4173 6.82701C37.0093 5.80112 37.5861 4.80577 38.198 3.74783Z" fill="#6B315A"/>
<path d="M11.8082 3.74783C12.4201 4.80425 12.9876 5.78891 13.5245 6.71556C12.2671 7.77503 10.9744 8.73069 9.85313 9.85122C8.73182 10.9718 7.79102 12.2388 6.7309 13.4907L3.76471 11.7839C5.79871 8.52974 8.54961 5.78136 11.8082 3.74783Z" fill="#6B315A"/>
<path d="M35.0314 6.01179C32.1885 4.52366 29.051 3.68122 25.8437 3.54478V0.00915527C29.6765 0.125036 33.4298 1.12847 36.8074 2.94025L35.0314 6.01179Z" fill="#6B315A"/>
<path d="M50 24.1204H46.4617C46.2812 20.9146 45.5102 17.8613 43.9682 14.9501L47.0491 13.1731C48.8657 16.5463 49.8756 20.293 50 24.1204Z" fill="#6B315A"/>
<path d="M6.03794 14.9409C4.5446 17.7746 3.69632 20.9022 3.55362 24.1006H0C0.129307 20.2786 1.1396 16.5378 2.95242 13.1685L6.03794 14.9409Z" fill="#6B315A"/>
<path d="M33.7831 16.2691L29.9189 21.7542L28.1949 20.0505L33.702 16.1851L33.7831 16.2691Z" fill="#6B315A"/>
</g>
<defs>
<clipPath id="clip0_4_705">
<rect width="50" height="36.7257" fill="white"/>
</clipPath>
</defs>
</svg>
