<svg width="178" height="178" viewBox="0 0 178 178" fill="none" xmlns="http://www.w3.org/2000/svg">
<g clip-path="url(#clip0_2_326)">
<path d="M42.7653 155.377H135.235V22.6234H42.7653V155.377Z" fill="#A4A4A5"/>
<mask id="mask0_2_326" style="mask-type:luminance" maskUnits="userSpaceOnUse" x="42" y="22" width="94" height="134">
<path d="M42.7653 155.377H135.235V22.6233H42.7653V155.377Z" fill="white"/>
</mask>
<g mask="url(#mask0_2_326)">
<path d="M89.0604 106.406L98.5667 52.9359C107.631 52.9359 110.487 53.9305 110.9 57.9864C110.9 57.9864 116.982 55.7189 120.048 51.1155C108.082 45.5708 96.0605 45.3214 96.0605 45.3214L89.0452 53.8651L89.0604 53.8636L82.045 45.3199C82.045 45.3199 70.0218 45.5693 58.0578 51.114C61.1222 55.7174 67.2053 57.9849 67.2053 57.9849C67.6189 53.9275 70.4749 52.9359 79.4764 52.9283L89.0604 106.406Z" fill="white"/>
<path d="M89.0564 42.853C98.727 42.7785 109.8 44.3495 121.133 49.2874C122.647 46.5622 123.035 45.3578 123.035 45.3578C110.647 40.4563 99.0464 38.7789 89.0549 38.7363C79.0649 38.7789 67.4644 40.4563 55.0762 45.3578C55.0762 45.3578 55.6282 46.842 56.9787 49.2874C68.31 44.3495 79.3858 42.7785 89.0564 42.853Z" fill="white"/>
<path d="M50.3012 125.619C50.5187 126.468 51.2532 127.334 52.263 127.553H55.3091L55.4642 127.614V135.303H57.3683V127.614L57.5401 127.553H60.5908C61.6097 127.29 62.329 126.468 62.5435 125.619V125.599H50.3012V125.619Z" fill="white"/>
<path d="M108.403 135.325C109.351 134.922 109.861 134.226 110.057 133.412H101.611L101.615 125.609L99.7234 125.614V135.325H108.403Z" fill="white"/>
<path d="M85.6427 127.522H92.3311C93.3378 127.23 94.1849 126.462 94.3917 125.611H83.7676V131.348H92.4634V133.364L85.6427 133.368C84.5736 133.668 83.6687 134.384 83.2155 135.333L83.7676 135.322H94.3324V129.443H85.6427V127.522Z" fill="white"/>
<path d="M114.105 129.449V135.322H115.988V131.414H122.844V135.322H124.725V129.46L114.105 129.449Z" fill="white"/>
<path d="M69.1341 127.543H76.373C77.3797 127.342 78.1295 126.454 78.3394 125.596H67.1677C67.3761 126.454 68.1365 127.342 69.1341 127.543Z" fill="white"/>
<path d="M69.1341 131.382H76.373C77.3797 131.181 78.1295 130.293 78.3394 129.435H67.1677C67.3761 130.293 68.1365 131.181 69.1341 131.382Z" fill="white"/>
<path d="M69.1341 135.324H76.373C77.3797 135.123 78.1295 134.236 78.3394 133.377H67.1677C67.3761 134.236 68.1365 135.123 69.1341 135.324Z" fill="white"/>
<path d="M115.779 127.55H123.02C124.027 127.35 124.775 126.462 124.985 125.603H113.813C114.023 126.462 114.782 127.35 115.779 127.55Z" fill="white"/>
</g>
</g>
<defs>
<clipPath id="clip0_2_326">
<rect width="178" height="178" fill="white"/>
</clipPath>
</defs>
</svg>
