<svg width="355" height="143" viewBox="0 0 355 143" fill="none" xmlns="http://www.w3.org/2000/svg">
<path d="M48.0483 103.056V100.848C48.0483 96.24 45.2643 94.128 38.9283 94.128C32.7843 94.128 29.5203 96.144 28.0803 100.848L9.74432 97.872C11.6643 92.208 13.7763 89.136 17.8083 86.256C22.9923 82.608 30.0963 80.784 39.4083 80.784C46.5123 80.784 53.4243 82.128 57.1683 84.144C63.3123 87.504 66.0003 92.784 66.0003 101.424V127.344C66.0003 133.2 66.1923 136.656 66.6723 140.976H48.0483V136.56C42.6723 140.688 37.2963 142.32 29.4243 142.32C22.1283 142.32 16.6563 140.592 12.8163 137.04C9.36032 133.872 7.53632 129.264 7.53632 123.984C7.53632 117.936 9.93632 113.136 14.5443 109.968C19.4403 106.512 25.8723 104.496 34.5123 103.728C38.2563 103.344 41.1363 103.248 48.0483 103.056ZM48.0483 118.032V115.344C39.5043 115.536 35.3763 116.016 31.4403 117.264C27.9843 118.416 25.8723 120.816 25.8723 123.6C25.8723 127.056 28.7523 129.072 33.7443 129.072C37.6803 129.072 42.0003 127.632 44.5923 125.424C46.8003 123.504 48.0483 120.912 48.0483 118.032Z" fill="#FF6346"/>
<path d="M124.673 82.416L120.065 99.696C115.649 98.352 113.249 97.872 110.273 97.872C105.377 97.872 101.633 99.6 98.8488 103.056C97.0248 105.36 96.3528 107.376 95.9688 111.6V126.576C95.9688 132.72 96.1608 136.368 96.7368 140.976H76.8648C77.4408 136.176 77.6328 132.72 77.6328 126.48V96.912C77.6328 89.904 77.4408 86.544 76.8648 82.416H95.9688V90C100.673 83.856 106.433 81.264 115.169 81.264C118.241 81.264 120.161 81.456 124.673 82.416Z" fill="#FF6346"/>
<path d="M185.116 78.672H196.444C195.868 80.592 194.14 86.448 193.66 88.56L187.9 109.872C187.612 110.928 187.516 111.888 187.516 112.752C187.516 114.288 188.38 115.152 190.012 115.152C191.836 115.152 194.14 114.192 196.06 112.656C200.764 109.008 203.836 101.904 203.836 94.512C203.836 85.68 199.708 78 192.796 73.68C188.476 71.088 182.428 69.648 175.612 69.648C155.356 69.648 141.148 83.088 141.148 102.096C141.148 120.528 153.916 132.624 173.212 132.624C178.204 132.624 183.484 131.856 187.9 130.512C191.644 129.36 194.044 128.208 198.652 125.424L204.508 133.872C199.324 136.944 197.02 138.096 192.508 139.44C185.98 141.456 179.068 142.512 172.156 142.512C158.62 142.512 148.06 138.672 140.476 131.088C133.276 123.984 129.34 113.808 129.34 102.672C129.34 90.768 133.372 80.496 141.052 72.72C149.884 63.888 161.5 59.568 176.38 59.568C198.748 59.568 214.684 73.968 214.684 94.032C214.684 103.056 211.42 111.312 205.564 117.168C200.572 122.16 194.044 125.04 187.612 125.04C183.868 125.04 180.796 123.6 179.356 121.296C178.876 120.528 178.78 120.048 178.492 118.32C174.844 122.544 171.004 124.368 165.628 124.368C156.124 124.368 150.076 117.264 150.076 106.32C150.076 90.096 160.732 76.656 173.5 76.656C178.876 76.656 181.564 78 184.156 82.032L185.116 78.672ZM167.26 114.864C170.812 114.864 174.172 112.08 176.668 107.184C178.972 102.672 180.508 96.816 180.508 92.4C180.508 88.464 178.3 85.776 174.94 85.776C171.292 85.776 167.932 88.176 165.532 92.688C163.228 97.008 161.692 102.672 161.692 107.088C161.692 112.176 163.612 114.864 167.26 114.864Z" fill="#FF6346"/>
<path d="M242.587 140.976H223.771C224.347 136.368 224.539 132.336 224.539 125.904V76.176C224.539 69.168 224.347 65.712 223.771 61.104H243.259C242.779 65.712 242.587 69.168 242.587 76.176V84.24C242.587 85.68 242.587 86.544 242.491 87.888C248.155 82.896 254.299 80.688 262.267 80.688C279.739 80.688 289.915 91.824 289.915 110.832C289.915 121.104 286.939 129.36 281.371 135.216C276.379 140.208 269.851 142.704 261.403 142.704C253.435 142.704 248.731 141.072 242.491 135.888C242.491 136.176 242.587 137.424 242.587 137.904V140.976ZM271.291 111.024C271.291 101.232 266.203 95.28 257.755 95.28C249.019 95.28 242.779 102 242.779 111.312C242.779 120.816 249.115 128.016 257.371 128.016C265.723 128.016 271.291 121.2 271.291 111.024Z" fill="#FF6346"/>
<path d="M336.048 103.056V100.848C336.048 96.24 333.264 94.128 326.928 94.128C320.784 94.128 317.52 96.144 316.08 100.848L297.744 97.872C299.664 92.208 301.776 89.136 305.808 86.256C310.992 82.608 318.096 80.784 327.408 80.784C334.512 80.784 341.424 82.128 345.168 84.144C351.312 87.504 354 92.784 354 101.424V127.344C354 133.2 354.192 136.656 354.672 140.976H336.048V136.56C330.672 140.688 325.296 142.32 317.424 142.32C310.128 142.32 304.656 140.592 300.816 137.04C297.36 133.872 295.536 129.264 295.536 123.984C295.536 117.936 297.936 113.136 302.544 109.968C307.44 106.512 313.872 104.496 322.512 103.728C326.256 103.344 329.136 103.248 336.048 103.056ZM336.048 118.032V115.344C327.504 115.536 323.376 116.016 319.44 117.264C315.984 118.416 313.872 120.816 313.872 123.6C313.872 127.056 316.752 129.072 321.744 129.072C325.68 129.072 330 127.632 332.592 125.424C334.8 123.504 336.048 120.912 336.048 118.032Z" fill="#FF6346"/>
<path d="M69.739 35.3858C69.6772 34.5232 69.8198 33.6568 70.1487 32.8958C70.4777 32.1347 70.9784 31.5129 71.5878 31.1086C95.7256 15.5255 122.476 7.41613 149.611 7.45573V32.791H150.223C151.576 32.7872 152.873 32.1101 153.829 30.9077C154.786 29.7053 155.324 28.0756 155.327 26.3752V7.52702C203.214 8.95275 239.033 32.4488 239.033 32.4488C144.824 -40.3776 44.582 32.1352 44.582 32.1352H9.26233C8.23489 32.1357 7.22229 32.4434 6.30816 33.033C5.39404 33.6226 4.60463 34.4772 4.00514 35.526C3.40565 36.5749 3.01328 37.788 2.86045 39.0651C2.70762 40.3423 2.79871 41.6468 3.12619 42.8709L4.578 48.2602C5.26226 50.7508 5.36749 53.435 4.88134 55.998C4.39519 58.5611 3.33782 60.8969 1.83318 62.7314C-8.53569 108.5 28.4643 101 28.4643 101C28.4643 101 -3.03575 92 7.81052 70.7583C18.8919 66.9801 34.011 56.501 19.6518 47.6472L155.668 45.1093L72.9942 39.4064C72.1574 39.3411 71.3675 38.8985 70.7695 38.1599C70.1716 37.4213 69.8056 36.4363 69.739 35.3858Z" fill="#FF6346"/>
<path d="M353.26 82.5491C352.387 61.6051 324.905 42.2579 269.679 42.2579H183.876L206.14 47.5901C219.479 50.7838 254.674 52.3948 268.262 52.3948H277.075C300.44 52.3948 316.863 56.4582 328.319 61.6478C333.964 64.2054 337.964 68.5 337.964 68.5C342.964 73.5 340.464 82.5491 340.464 82.5491C346.495 85.0491 352.24 95.8949 353.964 100.5C353.949 99.9685 353.38 83.059 353.26 82.5491Z" fill="#FF6346"/>
</svg>
